{
.appVersion = "1220";
DisplayStrings = (

glyphs = (
{
color = 4;
glyphname = A;
lastChange = "2019-03-25 19:36:12 +0000";
layers = (
{
anchors = (
{
name = bottom;
position = "{298.971, 0}";
},
{
name = ogonek;
position = "{543.147, 0}";
},
{
name = top;
position = "{300, 692.882}";
},
{
name = topleft;
position = "{180.471, 692.882}";
}
);
layerId = "4B7A3BAF-EAD8-4024-9BEA-BB1DE86CFCFA";
paths = (
{
closed = 1;
nodes = (
"436.412 0 LINE",
"612.118 0 LINE",
"399.794 692.882 LINE",
"201.176 692.882 LINE",
"-11.147 0 LINE",
"160.529 0 LINE",
"197.029 149.706 LINE",
"399.912 149.706 LINE"
);
},
{
closed = 1;
nodes = (
"298 575.088 LINE",
"373.029 268.441 LINE",
"222.941 268.441 LINE"
);
}
);
width = 600;
},
{
anchors = (
{
name = bottom;
position = "{297.559, 0}";
},
{
name = ogonek;
position = "{550.206, 0}";
},
{
name = top;
position = "{300, 687.235}";
},
{
name = topleft;
position = "{203.059, 687.235}";
}
);
layerId = "B67F0F2D-EC95-4CB8-966E-23AE86958A69";
paths = (
{
closed = 1;
nodes = (
"504.176 0 LINE",
"569.765 0 LINE",
"341.912 687.235 LINE",
"257.647 687.235 LINE",
"29.794 0 LINE",
"89.941 0 LINE",
"150.441 183.588 LINE",
"443.676 183.588 LINE"
);
},
{
closed = 1;
nodes = (
"298 627.324 LINE",
"422.441 241.618 LINE",
"172.118 241.618 LINE"
);
}
);
width = 600;
}
);
unicode = 0041;
},
{
color = 4;
glyphname = AE;
lastChange = "2019-03-25 19:36:12 +0000";
layers = (
{
anchors = (
{
name = bottom;
position = "{300, 0}";
},
{
name = top;
position = "{350.294, 692.882}";
}
);
layerId = "4B7A3BAF-EAD8-4024-9BEA-BB1DE86CFCFA";
paths = (
{
closed = 1;
nodes = (
"337.765 0 LINE",
"603.118 0 LINE",
"603.118 110.912 LINE",
"454.5 110.912 LINE",
"419.059 295.5 LINE",
"556.029 295.5 LINE",
"556.029 406.412 LINE",
"399.235 406.412 LINE",
"365.765 581.971 LINE",
"548.206 581.971 LINE",
"565.029 692.882 LINE",
"162.735 692.882 LINE",
"-12 0 LINE",
"145.147 0 LINE",
"172.735 152.618 LINE",
"313.441 152.618 LINE"
);
},
{
closed = 1;
nodes = (
"244.882 583 LINE",
"296.471 264.559 LINE",
"190.853 264.559 LINE"
);
}
);
width = 600;
},
{
anchors = (
{
name = bottom;
position = "{300, 0}";
},
{
name = top;
position = "{364.412, 687.235}";
}
);
layerId = "B67F0F2D-EC95-4CB8-966E-23AE86958A69";
paths = (
{
closed = 1;
nodes = (
"374.471 0 LINE",
"608.765 0 LINE",
"608.765 58.676 LINE",
"430.5 58.676 LINE",
"373.882 319.5 LINE",
"557.441 319.5 LINE",
"557.441 378.176 LINE",
"362.529 378.176 LINE",
"306.471 628.559 LINE",
"558.088 628.559 LINE",
"566.441 687.235 LINE",
"198.029 687.235 LINE",
"-12 0 LINE",
"56.206 0 LINE",
"112.029 182.265 LINE",
"334.618 182.265 LINE"
);
},
{
closed = 1;
nodes = (
"239.235 631 LINE",
"319.059 243.382 LINE",
"135.794 243.382 LINE"
);
}
);
width = 600;
}
);
unicode = 00C6;
},
{
color = 4;
glyphname = B;
lastChange = "2019-03-25 19:36:12 +0000";
layers = (
{
anchors = (
{
name = bottom;
position = "{300, 0}";
},
{
name = top;
position = "{300, 692.882}";
}
);
layerId = "4B7A3BAF-EAD8-4024-9BEA-BB1DE86CFCFA";
paths = (
{
closed = 1;
nodes = (
"402.235 133.853 OFFCURVE",
"344.529 119.706 OFFCURVE",
"280.441 119.706 CURVE SMOOTH",
"220 119.706 LINE",
"220 306.471 LINE",
"287.353 306.471 LINE SMOOTH",
"356.647 306.471 OFFCURVE",
"402.235 282.412 OFFCURVE",
"402.235 209.559 CURVE SMOOTH"
);
},
{
closed = 1;
nodes = (
"376.206 440.706 OFFCURVE",
"345.794 416.441 OFFCURVE",
"275.5 416.441 CURVE SMOOTH",
"220 416.441 LINE",
"220 577.118 LINE",
"270.412 577.118 LINE SMOOTH",
"342.706 577.118 OFFCURVE",
"376.206 553.941 OFFCURVE",
"376.206 499.294 CURVE SMOOTH"
);
},
{
closed = 1;
nodes = (
"571.147 313.971 OFFCURVE",
"488.176 354.912 OFFCURVE",
"414.118 366.941 CURVE",
"482.059 383.882 OFFCURVE",
"541.147 432.824 OFFCURVE",
"541.147 515.971 CURVE SMOOTH",
"541.147 650.971 OFFCURVE",
"418.147 692.882 OFFCURVE",
"275.735 692.882 CURVE SMOOTH",
"56.088 692.882 LINE",
"56.088 0 LINE",
"285.882 0 LINE SMOOTH",
"436.235 0 OFFCURVE",
"571.147 43.088 OFFCURVE",
"571.147 202.824 CURVE SMOOTH"
);
}
);
width = 600;
},
{
anchors = (
{
name = bottom;
position = "{300, 0}";
},
{
name = top;
position = "{300, 687.235}";
}
);
layerId = "B67F0F2D-EC95-4CB8-966E-23AE86958A69";
paths = (
{
closed = 1;
nodes = (
"461.529 78.794 OFFCURVE",
"369.941 57.588 OFFCURVE",
"301.618 57.588 CURVE SMOOTH",
"172 57.588 LINE",
"172 329.059 LINE",
"304.294 329.059 LINE SMOOTH",
"387.706 329.059 OFFCURVE",
"461.529 302.176 OFFCURVE",
"461.529 188.382 CURVE SMOOTH"
);
},
{
closed = 1;
nodes = (
"434.088 426.588 OFFCURVE",
"383.912 389.618 OFFCURVE",
"299.5 389.618 CURVE SMOOTH",
"172 389.618 LINE",
"172 630.765 LINE",
"290.176 630.765 LINE SMOOTH",
"376.588 630.765 OFFCURVE",
"434.088 599.118 OFFCURVE",
"434.088 513.412 CURVE SMOOTH"
);
},
{
closed = 1;
nodes = (
"530.206 312.559 OFFCURVE",
"448.647 350.676 OFFCURVE",
"371.765 364.118 CURVE",
"436.882 378.235 OFFCURVE",
"500.206 424.353 OFFCURVE",
"500.206 514.559 CURVE SMOOTH",
"500.206 649.559 OFFCURVE",
"377.206 687.235 OFFCURVE",
"263.029 687.235 CURVE SMOOTH",
"108.324 687.235 LINE",
"108.324 0 LINE",
"280.235 0 LINE SMOOTH",
"399.529 0 OFFCURVE",
"530.206 47.324 OFFCURVE",
"530.206 194.353 CURVE SMOOTH"
);
}
);
width = 600;
}
);
unicode = 0042;
},
{
color = 4;
glyphname = C;
lastChange = "2019-03-25 19:36:12 +0000";
layers = (
{
anchors = (
{
name = bottom;
position = "{351.941, 0}";
},
{
name = top;
position = "{361.118, 692.882}";
}
);
layerId = "4B7A3BAF-EAD8-4024-9BEA-BB1DE86CFCFA";
paths = (
{
closed = 1;
nodes = (
"174.647 710.706 OFFCURVE",
"33.794 579.912 OFFCURVE",
"33.794 347.912 CURVE SMOOTH",
"33.794 110.088 OFFCURVE",
"167.706 -16.853 OFFCURVE",
"356.147 -16.853 CURVE SMOOTH",
"462.912 -16.853 OFFCURVE",
"537.676 24.941 OFFCURVE",
"589.412 76.647 CURVE",
"515.206 171.618 LINE",
"476.265 140.647 OFFCURVE",
"434.147 109.735 OFFCURVE",
"364.941 109.735 CURVE SMOOTH",
"270.324 109.735 OFFCURVE",
"203.647 180.882 OFFCURVE",
"203.647 347.912 CURVE SMOOTH",
"203.647 518 OFFCURVE",
"274.382 589.029 OFFCURVE",
"362.059 589.029 CURVE SMOOTH",
"416.029 589.029 OFFCURVE",
"462.088 569.176 OFFCURVE",
"500.235 538.029 CURVE",
"580.382 634.941 LINE",
"522.471 682.824 OFFCURVE",
"457.735 710.706 OFFCURVE",
"358 710.706 CURVE SMOOTH"
);
}
);
width = 600;
},
{
anchors = (
{
name = bottom;
position = "{349.118, 0}";
},
{
name = top;
position = "{366.765, 687.235}";
}
);
layerId = "B67F0F2D-EC95-4CB8-966E-23AE86958A69";
paths = (
{
closed = 1;
nodes = (
"205.706 696.588 OFFCURVE",
"71.912 575.676 OFFCURVE",
"71.912 343.676 CURVE SMOOTH",
"71.912 114.324 OFFCURVE",
"201.588 -9.794 OFFCURVE",
"363.206 -9.794 CURVE SMOOTH",
"458.676 -9.794 OFFCURVE",
"522.147 22.118 OFFCURVE",
"561.176 59.706 CURVE",
"525.088 105.265 LINE",
"488.971 75.706 OFFCURVE",
"441.206 49.029 OFFCURVE",
"362.118 49.029 CURVE SMOOTH",
"237.853 49.029 OFFCURVE",
"138.706 127.235 OFFCURVE",
"138.706 343.676 CURVE SMOOTH",
"138.706 566 OFFCURVE",
"244.735 638.441 OFFCURVE",
"364.882 638.441 CURVE SMOOTH",
"417.441 638.441 OFFCURVE",
"466.324 625.647 OFFCURVE",
"511.529 587.441 CURVE",
"550.735 632.118 LINE",
"497.059 674.353 OFFCURVE",
"445.029 696.588 OFFCURVE",
"358 696.588 CURVE SMOOTH"
);
}
);
width = 600;
}
);
unicode = 0043;
},
{
color = 4;
glyphname = D;
lastChange = "2019-03-25 19:36:12 +0000";
layers = (
{
anchors = (
{
name = bottom;
position = "{300, 0}";
},
{
name = center;
position = "{300, 346.941}";
},
{
name = top;
position = "{286.912, 692.882}";
}
);
layerId = "4B7A3BAF-EAD8-4024-9BEA-BB1DE86CFCFA";
paths = (
{
closed = 1;
nodes = (
"404.5 167.706 OFFCURVE",
"342.235 118.676 OFFCURVE",
"251.029 118.676 CURVE SMOOTH",
"215.765 118.676 LINE",
"215.765 574.176 LINE",
"251 574.176 LINE SMOOTH",
"338.206 574.176 OFFCURVE",
"404.5 536.382 OFFCURVE",
"404.5 349.941 CURVE SMOOTH"
);
},
{
closed = 1;
nodes = (
"574.412 635.941 OFFCURVE",
"404.647 692.882 OFFCURVE",
"227.088 692.882 CURVE SMOOTH",
"51.853 692.882 LINE",
"51.853 0 LINE",
"239.059 0 LINE SMOOTH",
"411.265 0 OFFCURVE",
"574.412 67.765 OFFCURVE",
"574.412 349.941 CURVE SMOOTH"
);
}
);
width = 600;
},
{
anchors = (
{
name = bottom;
position = "{300, 0}";
},
{
name = center;
position = "{300, 344.118}";
},
{
name = top;
position = "{282.676, 687.235}";
}
);
layerId = "B67F0F2D-EC95-4CB8-966E-23AE86958A69";
paths = (
{
closed = 1;
nodes = (
"476.5 105.588 OFFCURVE",
"353.529 55.147 OFFCURVE",
"252.441 55.147 CURVE SMOOTH",
"156.471 55.147 LINE",
"156.471 630.647 LINE",
"251 630.647 LINE SMOOTH",
"348.088 630.647 OFFCURVE",
"476.5 602.735 OFFCURVE",
"476.5 347.118 CURVE SMOOTH"
);
},
{
closed = 1;
nodes = (
"546.176 633.118 OFFCURVE",
"387.706 687.235 OFFCURVE",
"231.324 687.235 CURVE SMOOTH",
"92.794 687.235 LINE",
"92.794 0 LINE",
"241.882 0 LINE SMOOTH",
"375.971 0 OFFCURVE",
"546.176 56.471 OFFCURVE",
"546.176 347.118 CURVE SMOOTH"
);
}
);
width = 600;
}
);
unicode = 0044;
},
{
color = 4;
glyphname = Eth;
lastChange = "2019-03-25 19:36:12 +0000";
layers = (
{
components = (
{
alignment = -1;
name = D;
transform = "{1, 0, 0, 1, 12.912, 0}";
}
);
layerId = "4B7A3BAF-EAD8-4024-9BEA-BB1DE86CFCFA";
paths = (
{
closed = 1;
nodes = (
"67.559 402.559 LINE",
"9.294 402.559 LINE",
"9.294 303.441 LINE",
"225.882 303.441 LINE",
"348.706 303.441 LINE",
"348.706 402.559 LINE"
);
}
);
width = 600;
},
{
components = (
{
alignment = -1;
name = D;
transform = "{1, 0, 0, 1, 8.676, 0}";
}
);
layerId = "B67F0F2D-EC95-4CB8-966E-23AE86958A69";
paths = (
{
closed = 1;
nodes = (
"238.382 381.382 LINE",
"23.412 381.382 LINE",
"23.412 324.618 LINE",
"28.235 324.618 LINE",
"334.588 324.618 LINE",
"334.588 381.382 LINE"
);
}
);
width = 600;
}
);
unicode = 00D0;
},
{
color = 4;
glyphname = E;
lastChange = "2019-03-25 19:36:12 +0000";
layers = (
{
anchors = (
{
name = bottom;
position = "{320.147, 0}";
},
{
name = ogonek;
position = "{477.029, 0}";
},
{
name = top;
position = "{320.029, 692.882}";
},
{
name = topleft;
position = "{82.882, 692.882}";
}
);
layerId = "4B7A3BAF-EAD8-4024-9BEA-BB1DE86CFCFA";
paths = (
{
closed = 1;
nodes = (
"529.382 576.118 LINE",
"546.206 692.882 LINE",
"92.882 692.882 LINE",
"92.882 0 LINE",
"546.441 0 LINE",
"546.441 117.706 LINE",
"256.794 117.706 LINE",
"256.794 294.529 LINE",
"497.206 294.529 LINE",
"497.206 409.353 LINE",
"256.794 409.353 LINE",
"256.794 576.118 LINE"
);
}
);
width = 600;
},
{
anchors = (
{
name = bottom;
position = "{327.206, 0}";
},
{
name = ogonek;
position = "{478.441, 0}";
},
{
name = top;
position = "{321.441, 687.235}";
},
{
name = topleft;
position = "{125.235, 687.235}";
}
);
layerId = "B67F0F2D-EC95-4CB8-966E-23AE86958A69";
paths = (
{
closed = 1;
nodes = (
"499.735 629.765 LINE",
"508.088 687.235 LINE",
"135.235 687.235 LINE",
"135.235 0 LINE",
"519.618 0 LINE",
"519.618 55.588 LINE",
"198.912 55.588 LINE",
"198.912 319.941 LINE",
"459.088 319.941 LINE",
"459.088 378.294 LINE",
"198.912 378.294 LINE",
"198.912 629.765 LINE"
);
}
);
width = 600;
}
);
unicode = 0045;
},
{
color = 4;
glyphname = F;
lastChange = "2019-03-25 19:36:12 +0000";
layers = (
{
anchors = (
{
name = bottom;
position = "{300, 0}";
},
{
name = top;
position = "{300, 692.882}";
}
);
layerId = "4B7A3BAF-EAD8-4024-9BEA-BB1DE86CFCFA";
paths = (
{
closed = 1;
nodes = (
"546.647 576.118 LINE",
"563.471 692.882 LINE",
"107.824 692.882 LINE",
"107.824 0 LINE",
"272.706 0 LINE",
"272.706 274.853 LINE",
"515.441 274.853 LINE",
"515.441 392.559 LINE",
"272.706 392.559 LINE",
"272.706 576.118 LINE"
);
}
);
width = 600;
},
{
anchors = (
{
name = bottom;
position = "{300, 0}";
},
{
name = top;
position = "{300, 687.235}";
}
);
layerId = "B67F0F2D-EC95-4CB8-966E-23AE86958A69";
paths = (
{
closed = 1;
nodes = (
"529.706 629.765 LINE",
"538.059 687.235 LINE",
"147.353 687.235 LINE",
"147.353 0 LINE",
"210.588 0 LINE",
"210.588 315.794 LINE",
"488.618 315.794 LINE",
"488.618 371.382 LINE",
"210.588 371.382 LINE",
"210.588 629.765 LINE"
);
}
);
width = 600;
}
);
unicode = 0046;
},
{
color = 4;
glyphname = G;
lastChange = "2019-03-25 19:36:12 +0000";
layers = (
{
anchors = (
{
name = bottom;
position = "{327.088, 0}";
},
{
name = top;
position = "{330, 692.882}";
}
);
layerId = "4B7A3BAF-EAD8-4024-9BEA-BB1DE86CFCFA";
paths = (
{
closed = 1;
nodes = (
"419.765 -16.853 OFFCURVE",
"498.412 10.118 OFFCURVE",
"568.206 52.882 CURVE",
"568.206 397.441 LINE",
"309.912 397.441 LINE",
"325.765 282.588 LINE",
"413.059 282.588 LINE",
"413.059 124.206 LINE",
"388.647 110.971 OFFCURVE",
"359.265 102.882 OFFCURVE",
"326.853 102.882 CURVE SMOOTH",
"235.088 102.882 OFFCURVE",
"191.559 165.441 OFFCURVE",
"191.559 346.941 CURVE SMOOTH",
"191.559 520.971 OFFCURVE",
"259.324 590.971 OFFCURVE",
"352.5 590.971 CURVE SMOOTH",
"401.706 590.971 OFFCURVE",
"436.971 572.971 OFFCURVE",
"478.971 535.912 CURVE",
"565.059 624.971 LINE",
"511.059 675.941 OFFCURVE",
"445.412 710.706 OFFCURVE",
"344.706 710.706 CURVE SMOOTH",
"164.559 710.706 OFFCURVE",
"22.618 583.941 OFFCURVE",
"22.618 347.912 CURVE SMOOTH",
"22.618 109.912 OFFCURVE",
"128.588 -16.853 OFFCURVE",
"325.676 -16.853 CURVE SMOOTH"
);
}
);
width = 600;
},
{
anchors = (
{
name = bottom;
position = "{331.324, 0}";
},
{
name = top;
position = "{330, 687.235}";
}
);
layerId = "B67F0F2D-EC95-4CB8-966E-23AE86958A69";
paths = (
{
closed = 1;
nodes = (
"408.471 -9.794 OFFCURVE",
"470.176 15.765 OFFCURVE",
"530.088 47.235 CURVE",
"530.088 370.618 LINE",
"305.676 370.618 LINE",
"314.471 310.824 LINE",
"463.882 310.824 LINE",
"463.882 86.088 LINE",
"419.706 61.559 OFFCURVE",
"371.971 49.235 OFFCURVE",
"319.794 49.235 CURVE SMOOTH",
"191.324 49.235 OFFCURVE",
"122.382 138.618 OFFCURVE",
"122.382 344.118 CURVE SMOOTH",
"122.382 567.559 OFFCURVE",
"226.853 637.559 OFFCURVE",
"328.5 637.559 CURVE SMOOTH",
"387.588 637.559 OFFCURVE",
"435.559 619.559 OFFCURVE",
"477.559 579.676 CURVE",
"519.882 623.559 LINE",
"465.882 673.118 OFFCURVE",
"417.176 696.588 OFFCURVE",
"330.588 696.588 CURVE SMOOTH",
"191.382 696.588 OFFCURVE",
"52.265 581.118 OFFCURVE",
"52.265 343.676 CURVE SMOOTH",
"52.265 105.676 OFFCURVE",
"156.824 -9.794 OFFCURVE",
"310.147 -9.794 CURVE SMOOTH"
);
}
);
width = 600;
}
);
unicode = 0047;
},
{
color = 4;
glyphname = H;
lastChange = "2019-03-25 19:36:12 +0000";
layers = (
{
anchors = (
{
name = bottom;
position = "{300, 0}";
},
{
name = bottomright;
position = "{558.147, 0}";
},
{
name = center;
position = "{300, 346.941}";
},
{
name = top;
position = "{300, 692.882}";
},
{
name = topleft;
position = "{41.853, 692.882}";
}
);
layerId = "4B7A3BAF-EAD8-4024-9BEA-BB1DE86CFCFA";
paths = (
{
closed = 1;
nodes = (
"548.147 0 LINE",
"548.147 692.882 LINE",
"384.235 692.882 LINE",
"384.235 427.206 LINE",
"215.765 427.206 LINE",
"215.765 692.882 LINE",
"51.853 692.882 LINE",
"51.853 0 LINE",
"215.765 0 LINE",
"215.765 291.941 LINE",
"384.235 291.941 LINE",
"384.235 0 LINE"
);
}
);
width = 600;
},
{
anchors = (
{
name = bottom;
position = "{300, 0}";
},
{
name = bottomright;
position = "{517.206, 0}";
},
{
name = center;
position = "{300, 344.118}";
},
{
name = top;
position = "{300, 687.235}";
},
{
name = topleft;
position = "{82.794, 687.235}";
}
);
layerId = "B67F0F2D-EC95-4CB8-966E-23AE86958A69";
paths = (
{
closed = 1;
nodes = (
"507.206 0 LINE",
"507.206 687.235 LINE",
"443.529 687.235 LINE",
"443.529 389.088 LINE",
"156.471 389.088 LINE",
"156.471 687.235 LINE",
"92.794 687.235 LINE",
"92.794 0 LINE",
"156.471 0 LINE",
"156.471 337.118 LINE",
"443.529 337.118 LINE",
"443.529 0 LINE"
);
}
);
width = 600;
}
);
unicode = 0048;
},
{
color = 4;
glyphname = Hbar;
lastChange = "2019-03-25 19:36:12 +0000";
layers = (
{
layerId = "4B7A3BAF-EAD8-4024-9BEA-BB1DE86CFCFA";
paths = (
{
closed = 1;
nodes = (
"379.382 692.882 LINE",
"379.382 424.294 LINE",
"220.618 424.294 LINE",
"220.618 692.882 LINE",
"56.706 692.882 LINE",
"56.706 0 LINE",
"220.618 0 LINE",
"220.618 296.794 LINE",
"379.382 296.794 LINE",
"379.382 0 LINE",
"543.294 0 LINE",
"543.294 692.882 LINE"
);
},
{
closed = 1;
nodes = (
"543.294 591.559 LINE",
"56.706 591.559 LINE",
"2 591.559 LINE",
"2 500.235 LINE",
"598 500.235 LINE",
"598 591.559 LINE"
);
}
);
width = 600;
},
{
layerId = "B67F0F2D-EC95-4CB8-966E-23AE86958A69";
paths = (
{
closed = 1;
nodes = (
"445.735 687.235 LINE",
"445.735 390.412 LINE",
"154.265 390.412 LINE",
"154.265 687.235 LINE",
"90.588 687.235 LINE",
"90.588 0 LINE",
"154.265 0 LINE",
"154.265 334.912 LINE",
"445.735 334.912 LINE",
"445.735 0 LINE",
"509.412 0 LINE",
"509.412 687.235 LINE"
);
},
{
closed = 1;
nodes = (
"509.412 570.382 LINE",
"90.588 570.382 LINE",
"2 570.382 LINE",
"2 511.529 LINE",
"598 511.529 LINE",
"598 570.382 LINE"
);
}
);
width = 600;
}
);
unicode = 0126;
},
{
color = 4;
glyphname = I;
lastChange = "2019-03-25 19:36:12 +0000";
layers = (
{
anchors = (
{
name = bottom;
position = "{300, 0}";
},
{
name = ogonek;
position = "{391.971, 0}";
},
{
name = top;
position = "{300, 692.882}";
},
{
name = topleft;
position = "{64.765, 692.882}";
}
);
layerId = "4B7A3BAF-EAD8-4024-9BEA-BB1DE86CFCFA";
paths = (
{
closed = 1;
nodes = (
"74.765 692.882 LINE",
"74.765 573.235 LINE",
"218.029 573.235 LINE",
"218.029 120.618 LINE",
"74.765 120.618 LINE",
"74.765 0 LINE",
"525.235 0 LINE",
"525.235 120.618 LINE",
"381.971 120.618 LINE",
"381.971 573.235 LINE",
"525.235 573.235 LINE",
"525.235 692.882 LINE"
);
}
);
width = 600;
},
{
anchors = (
{
name = bottom;
position = "{300, 0}";
},
{
name = ogonek;
position = "{342.559, 0}";
},
{
name = top;
position = "{300, 687.235}";
},
{
name = topleft;
position = "{101.471, 687.235}";
}
);
layerId = "B67F0F2D-EC95-4CB8-966E-23AE86958A69";
paths = (
{
closed = 1;
nodes = (
"111.471 687.235 LINE",
"111.471 632.529 LINE",
"267.441 632.529 LINE",
"267.441 54.265 LINE",
"111.471 54.265 LINE",
"111.471 0 LINE",
"488.529 0 LINE",
"488.529 54.265 LINE",
"332.559 54.265 LINE",
"332.559 632.529 LINE",
"488.529 632.529 LINE",
"488.529 687.235 LINE"
);
}
);
width = 600;
}
);
unicode = 0049;
},
{
color = 4;
glyphname = IJ;
lastChange = "2019-03-25 19:36:12 +0000";
layers = (
{
layerId = "4B7A3BAF-EAD8-4024-9BEA-BB1DE86CFCFA";
paths = (
{
closed = 1;
nodes = (
"200.118 -182.735 LINE",
"463.206 -140.235 OFFCURVE",
"556.353 -17.647 OFFCURVE",
"556.353 170.471 CURVE SMOOTH",
"556.353 692.882 LINE",
"8.088 692.882 LINE",
"8.088 591.676 LINE",
"80.824 591.676 LINE",
"80.824 102.176 LINE",
"8.088 102.176 LINE",
"8.088 0 LINE",
"284.882 0 LINE",
"284.882 102.176 LINE",
"232.147 102.176 LINE",
"232.147 591.676 LINE",
"398.265 591.676 LINE",
"398.265 163.794 LINE SMOOTH",
"398.265 29.412 OFFCURVE",
"364.882 -40.294 OFFCURVE",
"181.353 -71.971 CURVE"
);
}
);
width = 600;
},
{
layerId = "B67F0F2D-EC95-4CB8-966E-23AE86958A69";
paths = (
{
closed = 1;
nodes = (
"205.765 -122.029 LINE",
"473.088 -103.529 OFFCURVE",
"525.294 47.294 OFFCURVE",
"525.294 193.059 CURVE SMOOTH",
"525.294 687.235 LINE",
"12.324 687.235 LINE",
"12.324 624.147 LINE",
"120.353 624.147 LINE",
"120.353 62.647 LINE",
"12.324 62.647 LINE",
"12.324 0 LINE",
"279.235 0 LINE",
"279.235 62.647 LINE",
"191.206 62.647 LINE",
"191.206 624.147 LINE",
"458.971 624.147 LINE",
"458.971 201.912 LINE SMOOTH",
"458.971 49.176 OFFCURVE",
"407.235 -54.412 OFFCURVE",
"198.294 -70.559 CURVE"
);
}
);
width = 600;
}
);
unicode = 0132;
},
{
color = 4;
glyphname = J;
lastChange = "2019-03-25 19:36:12 +0000";
layers = (
{
anchors = (
{
name = bottom;
position = "{300, 0}";
},
{
name = top;
position = "{351.941, 692.882}";
}
);
layerId = "4B7A3BAF-EAD8-4024-9BEA-BB1DE86CFCFA";
paths = (
{
closed = 1;
nodes = (
"150.5 692.882 LINE",
"150.5 573.206 LINE",
"363.265 573.206 LINE",
"363.265 247.618 LINE SMOOTH",
"363.265 151.324 OFFCURVE",
"309.265 106.765 OFFCURVE",
"238.588 106.765 CURVE SMOOTH",
"185.912 106.765 OFFCURVE",
"148.588 118.706 OFFCURVE",
"101.265 150.853 CURVE",
"38.912 50.029 LINE",
"98.765 9.029 OFFCURVE",
"158.941 -14.912 OFFCURVE",
"248.353 -14.912 CURVE SMOOTH",
"425.471 -14.912 OFFCURVE",
"527.176 87.706 OFFCURVE",
"527.176 249.441 CURVE SMOOTH",
"527.176 692.882 LINE"
);
}
);
width = 600;
},
{
anchors = (
{
name = bottom;
position = "{300, 0}";
},
{
name = top;
position = "{349.118, 687.235}";
}
);
layerId = "B67F0F2D-EC95-4CB8-966E-23AE86958A69";
paths = (
{
closed = 1;
nodes = (
"222.5 687.235 LINE",
"222.5 631.088 LINE",
"423.971 631.088 LINE",
"423.971 229.265 LINE SMOOTH",
"423.971 118.853 OFFCURVE",
"369.971 47.471 OFFCURVE",
"266.824 47.471 CURVE SMOOTH",
"229.676 47.471 OFFCURVE",
"176.824 56.588 OFFCURVE",
"113.971 95.794 CURVE",
"82.676 51.441 LINE",
"135.471 10.441 OFFCURVE",
"204.118 -10.676 OFFCURVE",
"265.294 -10.676 CURVE SMOOTH",
"448.059 -10.676 OFFCURVE",
"487.647 121.588 OFFCURVE",
"487.647 222.618 CURVE SMOOTH",
"487.647 687.235 LINE"
);
}
);
width = 600;
}
);
unicode = 004A;
},
{
color = 4;
glyphname = K;
lastChange = "2019-03-25 19:36:12 +0000";
layers = (
{
anchors = (
{
name = bottom;
position = "{300.588, 0}";
},
{
name = top;
position = "{300.706, 692.882}";
}
);
layerId = "4B7A3BAF-EAD8-4024-9BEA-BB1DE86CFCFA";
paths = (
{
closed = 1;
nodes = (
"223.147 692.882 LINE",
"59.235 692.882 LINE",
"59.235 0 LINE",
"223.147 0 LINE"
);
},
{
closed = 1;
nodes = (
"418.618 0 LINE",
"608.412 0 LINE",
"393.441 381.765 LINE",
"589.412 692.882 LINE",
"417.353 692.882 LINE",
"228.147 369.941 LINE"
);
}
);
width = 600;
},
{
anchors = (
{
name = bottom;
position = "{328.824, 0}";
},
{
name = top;
position = "{334.588, 687.235}";
}
);
layerId = "B67F0F2D-EC95-4CB8-966E-23AE86958A69";
paths = (
{
closed = 1;
nodes = (
"182.206 687.235 LINE",
"118.529 687.235 LINE",
"118.529 0 LINE",
"182.206 0 LINE"
);
},
{
closed = 1;
nodes = (
"496.265 0 LINE",
"580.176 0 LINE",
"270.618 370.471 LINE",
"561.176 687.235 LINE",
"482.294 687.235 LINE",
"187.206 367.118 LINE"
);
}
);
width = 600;
}
);
unicode = 004B;
},
{
color = 4;
glyphname = L;
lastChange = "2019-03-25 19:36:12 +0000";
layers = (
{
anchors = (
{
name = bottom;
position = "{317.382, 0}";
},
{
name = center;
position = "{466.147, 384.853}";
},
{
name = top;
position = "{175.118, 692.882}";
},
{
name = topright;
position = "{307.059, 692.882}";
}
);
layerId = "4B7A3BAF-EAD8-4024-9BEA-BB1DE86CFCFA";
paths = (
{
closed = 1;
nodes = (
"540.618 0 LINE",
"557.441 129.588 LINE",
"257.059 129.588 LINE",
"257.059 692.882 LINE",
"93.147 692.882 LINE",
"93.147 0 LINE"
);
}
);
width = 600;
},
{
anchors = (
{
name = bottom;
position = "{335.735, 0}";
},
{
name = center;
position = "{473.206, 377.794}";
},
{
name = top;
position = "{180.765, 687.235}";
},
{
name = topright;
position = "{261.882, 687.235}";
}
);
layerId = "B67F0F2D-EC95-4CB8-966E-23AE86958A69";
paths = (
{
closed = 1;
nodes = (
"522.265 0 LINE",
"530.618 61.824 LINE",
"211.882 61.824 LINE",
"211.882 687.235 LINE",
"148.206 687.235 LINE",
"148.206 0 LINE"
);
}
);
width = 600;
}
);
unicode = 004C;
},
{
color = 4;
glyphname = Lslash;
lastChange = "2019-03-25 19:36:12 +0000";
layers = (
{
components = (
{
alignment = -1;
name = L;
transform = "{1, 0, 0, 1, 14.559, 0}";
}
);
layerId = "4B7A3BAF-EAD8-4024-9BEA-BB1DE86CFCFA";
paths = (
{
closed = 1;
nodes = (
"450.235 442.118 LINE",
"395.706 527.324 LINE",
"107.706 348.912 LINE",
"8.853 288.029 LINE",
"62.382 200.853 LINE"
);
}
);
width = 600;
},
{
components = (
{
alignment = -1;
name = L;
transform = "{1, 0, 0, 1, -6.618, 0}";
}
);
layerId = "B67F0F2D-EC95-4CB8-966E-23AE86958A69";
paths = (
{
closed = 1;
nodes = (
"413.529 447.765 LINE",
"381.588 494.853 LINE",
"141.588 344.676 LINE",
"49.794 289.441 LINE",
"80.735 241.794 LINE"
);
}
);
width = 600;
}
);
unicode = 0141;
},
{
color = 4;
glyphname = M;
lastChange = "2019-03-25 19:36:12 +0000";
layers = (
{
anchors = (
{
name = bottom;
position = "{300, 0}";
},
{
name = bottomright;
position = "{615.529, 0}";
},
{
name = top;
position = "{300, 692.882}";
}
);
layerId = "4B7A3BAF-EAD8-4024-9BEA-BB1DE86CFCFA";
paths = (
{
closed = 1;
nodes = (
"374.912 692.882 LINE",
"302 245.235 LINE",
"225.059 692.882 LINE",
"56.353 692.882 LINE",
"17.353 0 LINE",
"157.765 0 LINE",
"163.118 293.794 LINE SMOOTH",
"165.176 405.118 OFFCURVE",
"161.265 465.853 OFFCURVE",
"153.412 553.5 CURVE",
"237.5 118.147 LINE",
"361.5 118.147 LINE",
"439.529 553.5 LINE",
"432.706 461.088 OFFCURVE",
"427.853 406.324 OFFCURVE",
"430.912 296.706 CURVE SMOOTH",
"439.265 0 LINE",
"582.647 0 LINE",
"543.647 692.882 LINE"
);
}
);
width = 600;
},
{
anchors = (
{
name = bottom;
position = "{300, 0}";
},
{
name = bottomright;
position = "{544.941, 0}";
},
{
name = top;
position = "{300, 687.235}";
}
);
layerId = "B67F0F2D-EC95-4CB8-966E-23AE86958A69";
paths = (
{
closed = 1;
nodes = (
"418.676 687.235 LINE",
"302 208.529 LINE",
"179.882 687.235 LINE",
"73.294 687.235 LINE",
"34.294 0 LINE",
"98.471 0 LINE",
"120.765 379.912 LINE SMOOTH",
"125.647 458.765 OFFCURVE",
"125.971 602.794 OFFCURVE",
"125.176 625.5 CURVE",
"261.5 125.206 LINE",
"337.5 125.206 LINE",
"464.941 625.5 LINE",
"466.588 609.324 OFFCURVE",
"468.794 469.853 OFFCURVE",
"474.676 378.588 CURVE SMOOTH",
"499.971 0 LINE",
"565.706 0 LINE",
"526.706 687.235 LINE"
);
}
);
width = 600;
}
);
unicode = 004D;
},
{
color = 4;
glyphname = N;
lastChange = "2019-03-25 19:36:12 +0000";
layers = (
{
anchors = (
{
name = bottom;
position = "{300, 0}";
},
{
name = top;
position = "{309.706, 692.882}";
}
);
layerId = "4B7A3BAF-EAD8-4024-9BEA-BB1DE86CFCFA";
paths = (
{
closed = 1;
nodes = (
"548.147 0 LINE",
"548.147 692.882 LINE",
"408.735 692.882 LINE",
"408.735 427.735 LINE SMOOTH",
"408.735 302.765 OFFCURVE",
"422.647 201.5 OFFCURVE",
"433.382 138.441 CURVE",
"256.5 692.882 LINE",
"51.853 692.882 LINE",
"51.853 0 LINE",
"191.265 0 LINE",
"191.265 261.265 LINE SMOOTH",
"191.265 382.853 OFFCURVE",
"175.412 498.088 OFFCURVE",
"166.618 557.294 CURVE",
"349.235 0 LINE"
);
}
);
width = 600;
},
{
anchors = (
{
name = bottom;
position = "{300, 0}";
},
{
name = top;
position = "{295.588, 687.235}";
}
);
layerId = "B67F0F2D-EC95-4CB8-966E-23AE86958A69";
paths = (
{
closed = 1;
nodes = (
"507.206 0 LINE",
"507.206 687.235 LINE",
"444.029 687.235 LINE",
"444.029 319.029 LINE SMOOTH",
"444.029 195.471 OFFCURVE",
"453.706 81.5 OFFCURVE",
"451.735 63.618 CURVE",
"184.5 687.235 LINE",
"92.794 687.235 LINE",
"92.794 0 LINE",
"155.971 0 LINE",
"155.971 369.971 LINE SMOOTH",
"155.971 471.794 OFFCURVE",
"147.176 598.324 OFFCURVE",
"148.265 619.412 CURVE",
"408.529 0 LINE"
);
}
);
width = 600;
}
);
unicode = 004E;
},
{
color = 4;
glyphname = O;
lastChange = "2019-03-25 19:36:12 +0000";
layers = (
{
anchors = (
{
name = bottom;
position = "{300, 0}";
},
{
name = top;
position = "{300, 692.882}";
},
{
name = topleft;
position = "{94.294, 692.882}";
}
);
layerId = "4B7A3BAF-EAD8-4024-9BEA-BB1DE86CFCFA";
paths = (
{
closed = 1;
nodes = (
"577.353 571.588 OFFCURVE",
"481.618 710.706 OFFCURVE",
"300 710.706 CURVE SMOOTH",
"118.382 710.706 OFFCURVE",
"22.647 566.588 OFFCURVE",
"22.647 346.882 CURVE SMOOTH",
"22.647 122.206 OFFCURVE",
"118.382 -16.853 OFFCURVE",
"300 -16.853 CURVE SMOOTH",
"481.618 -16.853 OFFCURVE",
"577.353 127.206 OFFCURVE",
"577.353 346.912 CURVE SMOOTH"
);
},
{
closed = 1;
nodes = (
"409.441 178.5 OFFCURVE",
"379.971 102.882 OFFCURVE",
"300 102.882 CURVE SMOOTH",
"223.029 102.882 OFFCURVE",
"190.559 176.529 OFFCURVE",
"190.559 346.882 CURVE SMOOTH",
"190.559 517.235 OFFCURVE",
"221.971 590.971 OFFCURVE",
"300 590.971 CURVE SMOOTH",
"378.029 590.971 OFFCURVE",
"409.441 517.265 OFFCURVE",
"409.441 346.912 CURVE SMOOTH"
);
}
);
width = 600;
},
{
anchors = (
{
name = bottom;
position = "{300, 0}";
},
{
name = top;
position = "{300, 687.235}";
},
{
name = topleft;
position = "{108.412, 687.235}";
}
);
layerId = "B67F0F2D-EC95-4CB8-966E-23AE86958A69";
paths = (
{
closed = 1;
nodes = (
"546.294 551.824 OFFCURVE",
"463.265 696.588 OFFCURVE",
"300 696.588 CURVE SMOOTH",
"136.735 696.588 OFFCURVE",
"53.706 546.824 OFFCURVE",
"53.706 341.235 CURVE SMOOTH",
"53.706 132.088 OFFCURVE",
"136.735 -9.794 OFFCURVE",
"300 -9.794 CURVE SMOOTH",
"463.265 -9.794 OFFCURVE",
"546.294 137.088 OFFCURVE",
"546.294 342.676 CURVE SMOOTH"
);
},
{
closed = 1;
nodes = (
"478.618 154.5 OFFCURVE",
"426.559 49.235 OFFCURVE",
"300 49.235 CURVE SMOOTH",
"176.441 49.235 OFFCURVE",
"121.382 153.941 OFFCURVE",
"121.382 341.235 CURVE SMOOTH",
"121.382 528.529 OFFCURVE",
"172.559 637.559 OFFCURVE",
"300 637.559 CURVE SMOOTH",
"427.441 637.559 OFFCURVE",
"478.618 529.971 OFFCURVE",
"478.618 342.676 CURVE SMOOTH"
);
}
);
width = 600;
}
);
unicode = 004F;
},
{
color = 4;
glyphname = Oslash;
lastChange = "2019-03-25 19:36:12 +0000";
layers = (
{
anchors = (
{
name = bottom;
position = "{300, 0}";
},
{
name = top;
position = "{300, 692.882}";
}
);
layerId = "4B7A3BAF-EAD8-4024-9BEA-BB1DE86CFCFA";
paths = (
{
closed = 1;
nodes = (
"118.382 710.706 OFFCURVE",
"22.647 566.588 OFFCURVE",
"22.647 346.882 CURVE SMOOTH",
"22.647 122.206 OFFCURVE",
"128.147 -16.853 OFFCURVE",
"300 -16.853 CURVE SMOOTH",
"481.618 -16.853 OFFCURVE",
"577.353 127.206 OFFCURVE",
"577.353 346.912 CURVE SMOOTH",
"577.353 571.588 OFFCURVE",
"471.853 710.706 OFFCURVE",
"300 710.706 CURVE SMOOTH"
);
},
{
closed = 1;
nodes = (
"347.441 692.882 LINE",
"340.324 617.441 LINE",
"206.647 161.882 LINE",
"151.471 62.265 LINE",
"108.559 -76.382 LINE",
"219.588 -109.029 LINE",
"252.647 4.029 LINE",
"269.382 101.647 LINE",
"398.265 543.824 LINE",
"453.441 650.176 LINE",
"491.471 770.353 LINE",
"380.441 803 LINE"
);
},
{
closed = 1;
nodes = (
"383.853 593.882 OFFCURVE",
"415.265 520.765 OFFCURVE",
"415.265 346.912 CURVE SMOOTH",
"415.265 175.588 OFFCURVE",
"383.853 99.971 OFFCURVE",
"300 99.971 CURVE SMOOTH",
"217.206 99.971 OFFCURVE",
"184.735 173.029 OFFCURVE",
"184.735 346.882 CURVE SMOOTH",
"184.735 520.147 OFFCURVE",
"218.088 593.882 OFFCURVE",
"300 593.882 CURVE SMOOTH"
);
}
);
width = 600;
},
{
anchors = (
{
name = bottom;
position = "{300, 0}";
},
{
name = top;
position = "{300, 687.235}";
}
);
layerId = "B67F0F2D-EC95-4CB8-966E-23AE86958A69";
paths = (
{
closed = 1;
nodes = (
"136.735 696.588 OFFCURVE",
"53.706 546.824 OFFCURVE",
"53.706 341.235 CURVE SMOOTH",
"53.706 132.088 OFFCURVE",
"135.206 -9.794 OFFCURVE",
"300 -9.794 CURVE SMOOTH",
"463.265 -9.794 OFFCURVE",
"546.294 137.088 OFFCURVE",
"546.294 342.676 CURVE SMOOTH",
"546.294 551.824 OFFCURVE",
"464.794 696.588 OFFCURVE",
"300 696.588 CURVE SMOOTH"
);
},
{
closed = 1;
nodes = (
"368.618 687.235 LINE",
"355.853 638.618 LINE",
"189.706 60.235 LINE",
"174.059 26.971 LINE",
"135.382 -94.735 LINE",
"199.824 -110.441 LINE",
"235.706 5.441 LINE",
"239.735 36.706 LINE",
"410.971 631.353 LINE",
"426.618 658.647 LINE",
"466.059 787.294 LINE",
"401.618 803 LINE"
);
},
{
closed = 1;
nodes = (
"424.794 636.235 OFFCURVE",
"475.971 557.471 OFFCURVE",
"475.971 342.676 CURVE SMOOTH",
"475.971 155.824 OFFCURVE",
"424.794 50.559 OFFCURVE",
"300 50.559 CURVE SMOOTH",
"179.088 50.559 OFFCURVE",
"124.029 126.441 OFFCURVE",
"124.029 341.235 CURVE SMOOTH",
"124.029 527.206 OFFCURVE",
"174.324 636.235 OFFCURVE",
"300 636.235 CURVE SMOOTH"
);
}
);
width = 600;
}
);
unicode = 00D8;
},
{
color = 4;
glyphname = OE;
lastChange = "2019-03-25 19:36:12 +0000";
layers = (
{
anchors = (
{
name = bottom;
position = "{300, 0}";
},
{
name = top;
position = "{300, 692.882}";
}
);
layerId = "4B7A3BAF-EAD8-4024-9BEA-BB1DE86CFCFA";
paths = (
{
closed = 1;
nodes = (
"71.941 710.706 OFFCURVE",
"9.706 573.971 OFFCURVE",
"9.706 346.882 CURVE SMOOTH",
"9.706 114.824 OFFCURVE",
"71.912 -16.853 OFFCURVE",
"224.647 -16.853 CURVE SMOOTH",
"261.324 -16.853 OFFCURVE",
"287.206 -8.941 OFFCURVE",
"316.029 0 CURVE",
"596.559 0 LINE",
"596.559 110.912 LINE",
"392.853 110.912 LINE",
"417.294 155.971 OFFCURVE",
"433.529 217.412 OFFCURVE",
"437.5 295.5 CURVE",
"558.382 295.5 LINE",
"558.382 406.412 LINE",
"436.529 406.412 LINE",
"432.5 481.471 OFFCURVE",
"419.235 539.912 OFFCURVE",
"397.824 581.971 CURVE",
"579.5 581.971 LINE",
"596.324 692.882 LINE",
"320 692.882 LINE",
"287.235 703.794 OFFCURVE",
"261.324 710.706 OFFCURVE",
"224.647 710.706 CURVE SMOOTH"
);
},
{
closed = 1;
nodes = (
"286.294 598.794 OFFCURVE",
"303.794 534.353 OFFCURVE",
"303.794 346.912 CURVE SMOOTH",
"303.794 164.324 OFFCURVE",
"283.324 94.059 OFFCURVE",
"225.618 94.059 CURVE SMOOTH",
"170 94.059 OFFCURVE",
"149.441 164.294 OFFCURVE",
"149.441 346.882 CURVE SMOOTH",
"149.441 529.471 OFFCURVE",
"166.029 598.794 OFFCURVE",
"225.618 598.794 CURVE SMOOTH"
);
}
);
width = 600;
},
{
anchors = (
{
name = bottom;
position = "{300, 0}";
},
{
name = top;
position = "{300, 687.235}";
}
);
layerId = "B67F0F2D-EC95-4CB8-966E-23AE86958A69";
paths = (
{
closed = 1;
nodes = (
"69.118 696.588 OFFCURVE",
"-4.412 572.559 OFFCURVE",
"-4.412 341.235 CURVE SMOOTH",
"-4.412 106.353 OFFCURVE",
"67.676 -9.794 OFFCURVE",
"207.706 -9.794 CURVE SMOOTH",
"228.853 -9.794 OFFCURVE",
"249.088 -6.118 OFFCURVE",
"269.441 0 CURVE",
"623.382 0 LINE",
"623.382 58.676 LINE",
"337.794 58.676 LINE",
"383.412 106.559 OFFCURVE",
"410.941 189.176 OFFCURVE",
"413.5 319.5 CURVE",
"576.735 319.5 LINE",
"576.735 378.176 LINE",
"413.941 378.176 LINE",
"408.5 504.059 OFFCURVE",
"382.529 583.676 OFFCURVE",
"341.353 628.559 CURVE",
"603.5 628.559 LINE",
"611.853 687.235 LINE",
"272 687.235 LINE",
"250.529 693.912 OFFCURVE",
"228.853 696.588 OFFCURVE",
"207.706 696.588 CURVE SMOOTH"
);
},
{
closed = 1;
nodes = (
"300.412 636.912 OFFCURVE",
"341.912 551.294 OFFCURVE",
"341.912 342.676 CURVE SMOOTH",
"341.912 131.853 OFFCURVE",
"298.853 48.882 OFFCURVE",
"207.265 48.882 CURVE SMOOTH",
"122 48.882 OFFCURVE",
"74.618 130.412 OFFCURVE",
"74.618 341.235 CURVE SMOOTH",
"74.618 552.059 OFFCURVE",
"119.441 636.912 OFFCURVE",
"207.265 636.912 CURVE SMOOTH"
);
}
);
width = 600;
}
);
unicode = 0152;
},
{
color = 4;
glyphname = P;
lastChange = "2019-03-25 19:36:12 +0000";
layers = (
{
anchors = (
{
name = bottom;
position = "{300, 0}";
},
{
name = top;
position = "{300, 692.882}";
},
{
name = topleft;
position = "{52.441, 692.882}";
}
);
layerId = "4B7A3BAF-EAD8-4024-9BEA-BB1DE86CFCFA";
paths = (
{
closed = 1;
nodes = (
"407.529 385.265 OFFCURVE",
"363.824 349.353 OFFCURVE",
"291.206 349.353 CURVE SMOOTH",
"226.353 349.353 LINE",
"226.353 576.176 LINE",
"282.529 576.176 LINE SMOOTH",
"365.794 576.176 OFFCURVE",
"407.529 541.118 OFFCURVE",
"407.529 467.235 CURVE SMOOTH"
);
},
{
closed = 1;
nodes = (
"576.471 619.059 OFFCURVE",
"468.647 692.882 OFFCURVE",
"280.294 692.882 CURVE SMOOTH",
"62.441 692.882 LINE",
"62.441 0 LINE",
"226.353 0 LINE",
"226.353 230.676 LINE",
"301.706 230.676 LINE SMOOTH",
"465.471 230.676 OFFCURVE",
"576.471 306.265 OFFCURVE",
"576.471 467.265 CURVE SMOOTH"
);
}
);
width = 600;
},
{
anchors = (
{
name = bottom;
position = "{300, 0}";
},
{
name = top;
position = "{300, 687.235}";
},
{
name = topleft;
position = "{121.618, 687.235}";
}
);
layerId = "B67F0F2D-EC95-4CB8-966E-23AE86958A69";
paths = (
{
closed = 1;
nodes = (
"480.941 349.971 OFFCURVE",
"403.353 318.294 OFFCURVE",
"301.088 318.294 CURVE SMOOTH",
"195.294 318.294 LINE",
"195.294 632.647 LINE",
"307.941 632.647 LINE SMOOTH",
"403.912 632.647 OFFCURVE",
"480.941 594.765 OFFCURVE",
"480.941 478.529 CURVE SMOOTH"
);
},
{
closed = 1;
nodes = (
"551.059 621.882 OFFCURVE",
"451.706 687.235 OFFCURVE",
"294.412 687.235 CURVE SMOOTH",
"131.618 687.235 LINE",
"131.618 0 LINE",
"195.294 0 LINE",
"195.294 263.147 LINE",
"287.588 263.147 LINE SMOOTH",
"440.059 263.147 OFFCURVE",
"551.059 318.971 OFFCURVE",
"551.059 479.971 CURVE SMOOTH"
);
}
);
width = 600;
}
);
unicode = 0050;
},
{
color = 4;
glyphname = Thorn;
lastChange = "2019-03-25 19:36:12 +0000";
layers = (
{
anchors = (
{
name = bottom;
position = "{300, 0}";
},
{
name = top;
position = "{300, 692.882}";
}
);
layerId = "4B7A3BAF-EAD8-4024-9BEA-BB1DE86CFCFA";
paths = (
{
closed = 1;
nodes = (
"59.294 692.882 LINE",
"59.294 0 LINE",
"224.176 0 LINE",
"224.176 116.324 LINE",
"300.765 116.324 LINE SMOOTH",
"472.294 116.324 OFFCURVE",
"576.441 191.088 OFFCURVE",
"576.441 354.029 CURVE SMOOTH",
"576.441 506.912 OFFCURVE",
"466.765 580.765 OFFCURVE",
"279.353 580.765 CURVE SMOOTH",
"224.176 580.765 LINE",
"224.176 692.882 LINE"
);
},
{
closed = 1;
nodes = (
"362.971 464.059 OFFCURVE",
"405.588 430.794 OFFCURVE",
"405.588 353 CURVE SMOOTH",
"405.588 266.088 OFFCURVE",
"361.971 235 OFFCURVE",
"290.353 235 CURVE SMOOTH",
"224.176 235 LINE",
"224.176 464.059 LINE",
"283.529 464.059 LINE SMOOTH"
);
}
);
width = 600;
},
{
anchors = (
{
name = bottom;
position = "{300, 0}";
},
{
name = top;
position = "{300, 687.235}";
}
);
layerId = "B67F0F2D-EC95-4CB8-966E-23AE86958A69";
paths = (
{
closed = 1;
nodes = (
"121.412 687.235 LINE",
"121.412 0 LINE",
"184.647 0 LINE",
"184.647 131.853 LINE",
"289.471 131.853 LINE SMOOTH",
"438.412 131.853 OFFCURVE",
"549.618 195.324 OFFCURVE",
"549.618 355.441 CURVE SMOOTH",
"549.618 502.676 OFFCURVE",
"455.471 569.471 OFFCURVE",
"296.294 569.471 CURVE SMOOTH",
"184.647 569.471 LINE",
"184.647 687.235 LINE"
);
},
{
closed = 1;
nodes = (
"409.559 514.882 OFFCURVE",
"481.824 468.912 OFFCURVE",
"481.824 353 CURVE SMOOTH",
"481.824 222.324 OFFCURVE",
"408.559 187 OFFCURVE",
"307.294 187 CURVE SMOOTH",
"184.647 187 LINE",
"184.647 514.882 LINE",
"308.941 514.882 LINE SMOOTH"
);
}
);
width = 600;
}
);
unicode = 00DE;
},
{
color = 4;
glyphname = Q;
lastChange = "2019-03-25 19:36:12 +0000";
layers = (
{
anchors = (
{
name = bottom;
position = "{300, 0}";
},
{
name = top;
position = "{300, 692.882}";
}
);
layerId = "4B7A3BAF-EAD8-4024-9BEA-BB1DE86CFCFA";
paths = (
{
closed = 1;
nodes = (
"574.441 571.588 OFFCURVE",
"484.529 710.706 OFFCURVE",
"302.912 710.706 CURVE SMOOTH",
"121.294 710.706 OFFCURVE",
"32.353 566.588 OFFCURVE",
"32.353 346.882 CURVE SMOOTH",
"32.353 122.206 OFFCURVE",
"116.412 -13.882 OFFCURVE",
"290 -13.882 CURVE SMOOTH",
"410.941 -13.882 OFFCURVE",
"456.088 -68.941 OFFCURVE",
"500.029 -173 CURVE",
"633.882 -127.265 LINE",
"596 -15.559 OFFCURVE",
"537.206 21.618 OFFCURVE",
"428.529 39.647 CURVE",
"538.412 95.706 OFFCURVE",
"574.441 210.647 OFFCURVE",
"574.441 346.912 CURVE SMOOTH"
);
},
{
closed = 1;
nodes = (
"403.618 178.5 OFFCURVE",
"382.882 102.882 OFFCURVE",
"302.912 102.882 CURVE SMOOTH",
"225.941 102.882 OFFCURVE",
"202.206 177.5 OFFCURVE",
"202.206 346.882 CURVE SMOOTH",
"202.206 515.294 OFFCURVE",
"224.882 590 OFFCURVE",
"302.912 590 CURVE SMOOTH",
"381.912 590 OFFCURVE",
"403.618 516.294 OFFCURVE",
"403.618 346.912 CURVE SMOOTH"
);
}
);
width = 600;
},
{
anchors = (
{
name = bottom;
position = "{300, 0}";
},
{
name = top;
position = "{300, 687.235}";
}
);
layerId = "B67F0F2D-EC95-4CB8-966E-23AE86958A69";
paths = (
{
closed = 1;
nodes = (
"547.618 551.824 OFFCURVE",
"461.941 696.588 OFFCURVE",
"298.676 696.588 CURVE SMOOTH",
"135.412 696.588 OFFCURVE",
"49.294 546.824 OFFCURVE",
"49.294 341.235 CURVE SMOOTH",
"49.294 132.088 OFFCURVE",
"136.176 -8.235 OFFCURVE",
"290 -8.235 CURVE SMOOTH",
"408.118 -8.235 OFFCURVE",
"460.324 -66.118 OFFCURVE",
"501.441 -173 CURVE",
"580.235 -139.971 LINE",
"548 -42.382 OFFCURVE",
"499.088 3.265 OFFCURVE",
"405.941 22.706 CURVE",
"510.176 81.588 OFFCURVE",
"547.618 193.706 OFFCURVE",
"547.618 342.676 CURVE SMOOTH"
);
},
{
closed = 1;
nodes = (
"481.265 154.5 OFFCURVE",
"425.235 49.235 OFFCURVE",
"298.676 49.235 CURVE SMOOTH",
"175.118 49.235 OFFCURVE",
"116.088 153.5 OFFCURVE",
"116.088 341.235 CURVE SMOOTH",
"116.088 529.412 OFFCURVE",
"171.235 638 OFFCURVE",
"298.676 638 CURVE SMOOTH",
"425.676 638 OFFCURVE",
"481.265 530.412 OFFCURVE",
"481.265 342.676 CURVE SMOOTH"
);
}
);
width = 600;
}
);
unicode = 0051;
},
{
color = 4;
glyphname = R;
lastChange = "2019-03-25 19:36:12 +0000";
layers = (
{
anchors = (
{
name = bottom;
position = "{309.706, 0}";
},
{
name = top;
position = "{300, 692.882}";
}
);
layerId = "4B7A3BAF-EAD8-4024-9BEA-BB1DE86CFCFA";
paths = (
{
closed = 1;
nodes = (
"561.353 625.912 OFFCURVE",
"464.559 692.882 OFFCURVE",
"276.059 692.882 CURVE SMOOTH",
"58.176 692.882 LINE",
"58.176 0 LINE",
"222.088 0 LINE",
"222.088 264.824 LINE",
"268.353 264.824 LINE",
"418.382 0 LINE",
"604.176 0 LINE",
"422.559 292.353 LINE",
"500.029 323.147 OFFCURVE",
"561.353 383.235 OFFCURVE",
"561.353 482.353 CURVE SMOOTH"
);
},
{
closed = 1;
nodes = (
"392.412 408.765 OFFCURVE",
"353.912 377.618 OFFCURVE",
"283.147 377.618 CURVE SMOOTH",
"222.088 377.618 LINE",
"222.088 578.118 LINE",
"276.324 578.118 LINE SMOOTH",
"353.118 578.118 OFFCURVE",
"392.412 548.941 OFFCURVE",
"392.412 482.353 CURVE SMOOTH"
);
}
);
width = 600;
},
{
anchors = (
{
name = bottom;
position = "{295.588, 0}";
},
{
name = top;
position = "{300, 687.235}";
}
);
layerId = "B67F0F2D-EC95-4CB8-966E-23AE86958A69";
paths = (
{
closed = 1;
nodes = (
"530.294 621.676 OFFCURVE",
"443.382 687.235 OFFCURVE",
"278.882 687.235 CURVE SMOOTH",
"114.647 687.235 LINE",
"114.647 0 LINE",
"178.324 0 LINE",
"178.324 304.353 LINE",
"285.294 304.353 LINE",
"484.735 0 LINE",
"564.647 0 LINE",
"353.382 309.294 LINE",
"453.441 330.206 OFFCURVE",
"530.294 394.529 OFFCURVE",
"530.294 499.294 CURVE SMOOTH"
);
},
{
closed = 1;
nodes = (
"460.176 397.471 OFFCURVE",
"397.676 359.265 OFFCURVE",
"290.206 359.265 CURVE SMOOTH",
"178.324 359.265 LINE",
"178.324 631.765 LINE",
"291.853 631.765 LINE SMOOTH",
"406.765 631.765 OFFCURVE",
"460.176 594.118 OFFCURVE",
"460.176 499.294 CURVE SMOOTH"
);
}
);
width = 600;
}
);
unicode = 0052;
},
{
color = 4;
glyphname = S;
lastChange = "2019-03-25 19:36:12 +0000";
layers = (
{
anchors = (
{
name = bottom;
position = "{299.912, 0}";
},
{
name = top;
position = "{309.882, 692.882}";
}
);
layerId = "4B7A3BAF-EAD8-4024-9BEA-BB1DE86CFCFA";
paths = (
{
closed = 1;
nodes = (
"568.147 329.794 OFFCURVE",
"490.706 385.5 OFFCURVE",
"359.353 426.235 CURVE SMOOTH",
"248.794 460.353 OFFCURVE",
"217.5 477.676 OFFCURVE",
"217.5 522.088 CURVE SMOOTH",
"217.5 566.735 OFFCURVE",
"259.059 590 OFFCURVE",
"321.412 590 CURVE SMOOTH",
"377.471 590 OFFCURVE",
"432.559 571 OFFCURVE",
"479.618 531.882 CURVE",
"556.912 621 LINE",
"496.971 677.824 OFFCURVE",
"415.353 710.706 OFFCURVE",
"308.676 710.706 CURVE SMOOTH",
"165 710.706 OFFCURVE",
"47.706 636.706 OFFCURVE",
"47.706 509.353 CURVE SMOOTH",
"47.706 404.235 OFFCURVE",
"109.353 342.559 OFFCURVE",
"271.647 292.824 CURVE SMOOTH",
"368.235 263.676 OFFCURVE",
"397.324 240.412 OFFCURVE",
"397.324 189.971 CURVE SMOOTH",
"397.324 136.088 OFFCURVE",
"350.529 104.824 OFFCURVE",
"282.118 104.824 CURVE SMOOTH",
"207.853 104.824 OFFCURVE",
"145.912 129.912 OFFCURVE",
"95 174.912 CURVE",
"11.853 82.824 LINE",
"69.853 25.853 OFFCURVE",
"154.794 -16.853 OFFCURVE",
"285.971 -16.853 CURVE SMOOTH",
"462.529 -16.853 OFFCURVE",
"568.147 72.971 OFFCURVE",
"568.147 202.676 CURVE SMOOTH"
);
}
);
width = 600;
},
{
anchors = (
{
name = bottom;
position = "{295.676, 0}";
},
{
name = top;
position = "{304.235, 687.235}";
}
);
layerId = "B67F0F2D-EC95-4CB8-966E-23AE86958A69";
paths = (
{
closed = 1;
nodes = (
"527.206 319.912 OFFCURVE",
"428.588 361.5 OFFCURVE",
"328.294 389.529 CURVE SMOOTH",
"190.912 429.294 OFFCURVE",
"145.5 462.147 OFFCURVE",
"145.5 526.324 CURVE SMOOTH",
"145.5 602.029 OFFCURVE",
"213.882 638 OFFCURVE",
"293.176 638 CURVE SMOOTH",
"352.059 638 OFFCURVE",
"411.382 619 OFFCURVE",
"461.265 574.235 CURVE",
"504.676 621 LINE",
"447.559 669.353 OFFCURVE",
"384.294 696.588 OFFCURVE",
"293.147 696.588 CURVE SMOOTH",
"165 696.588 OFFCURVE",
"81.588 622.588 OFFCURVE",
"81.588 526.294 CURVE SMOOTH",
"81.588 415.529 OFFCURVE",
"174.294 369.382 OFFCURVE",
"302.706 332.353 CURVE SMOOTH",
"427.529 296.147 OFFCURVE",
"460.853 260.176 OFFCURVE",
"460.853 188.559 CURVE SMOOTH",
"460.853 92.324 OFFCURVE",
"375.941 48.353 OFFCURVE",
"287.765 48.353 CURVE SMOOTH",
"200.794 48.353 OFFCURVE",
"141.676 77.676 OFFCURVE",
"95 122.676 CURVE",
"52.794 74.353 LINE",
"110.794 18.794 OFFCURVE",
"192.912 -9.794 OFFCURVE",
"284.559 -9.794 CURVE SMOOTH",
"439.941 -9.794 OFFCURVE",
"527.206 71.559 OFFCURVE",
"527.206 187.147 CURVE SMOOTH"
);
}
);
width = 600;
}
);
unicode = 0053;
},
{
color = 4;
glyphname = T;
lastChange = "2019-03-25 19:36:12 +0000";
layers = (
{
anchors = (
{
name = bottom;
position = "{299, 0}";
},
{
name = bottomright;
position = "{390.941, 0}";
},
{
name = center;
position = "{300, 346.941}";
},
{
name = top;
position = "{299, 692.882}";
}
);
layerId = "4B7A3BAF-EAD8-4024-9BEA-BB1DE86CFCFA";
paths = (
{
closed = 1;
nodes = (
"566.559 567.265 LINE",
"583.353 692.882 LINE",
"22.471 692.882 LINE",
"22.471 567.265 LINE",
"217.029 567.265 LINE",
"217.029 0 LINE",
"380.941 0 LINE",
"380.941 567.265 LINE"
);
}
);
width = 600;
},
{
anchors = (
{
name = bottom;
position = "{299, 0}";
},
{
name = bottomright;
position = "{340.118, 0}";
},
{
name = center;
position = "{300, 344.118}";
},
{
name = top;
position = "{299, 687.235}";
}
);
layerId = "B67F0F2D-EC95-4CB8-966E-23AE86958A69";
paths = (
{
closed = 1;
nodes = (
"545.382 627.971 LINE",
"552.294 687.235 LINE",
"45.059 687.235 LINE",
"45.059 627.971 LINE",
"266.441 627.971 LINE",
"266.441 0 LINE",
"330.118 0 LINE",
"330.118 627.971 LINE"
);
}
);
width = 600;
}
);
unicode = 0054;
},
{
color = 4;
glyphname = Tbar;
lastChange = "2019-03-25 19:36:12 +0000";
layers = (
{
components = (
{
alignment = -1;
name = T;
}
);
layerId = "4B7A3BAF-EAD8-4024-9BEA-BB1DE86CFCFA";
paths = (
{
closed = 1;
nodes = (
"498.324 313.971 LINE",
"498.324 406.294 LINE",
"217.029 406.294 LINE",
"100.647 406.294 LINE",
"100.647 313.971 LINE",
"380.941 313.971 LINE"
);
}
);
width = 600;
},
{
components = (
{
alignment = -1;
name = T;
}
);
layerId = "B67F0F2D-EC95-4CB8-966E-23AE86958A69";
paths = (
{
closed = 1;
nodes = (
"465.853 360.559 LINE",
"465.853 420.412 LINE",
"266.441 420.412 LINE",
"131.706 420.412 LINE",
"131.706 360.559 LINE",
"330.118 360.559 LINE"
);
}
);
width = 600;
}
);
unicode = 0166;
},
{
color = 4;
glyphname = U;
lastChange = "2019-03-25 19:36:12 +0000";
layers = (
{
anchors = (
{
name = bottom;
position = "{300, 0}";
},
{
name = ogonek;
position = "{415.206, 0}";
},
{
name = top;
position = "{300, 692.882}";
}
);
layerId = "4B7A3BAF-EAD8-4024-9BEA-BB1DE86CFCFA";
paths = (
{
closed = 1;
nodes = (
"393.265 692.882 LINE",
"393.265 293.029 LINE SMOOTH",
"393.265 168.559 OFFCURVE",
"379.265 104.882 OFFCURVE",
"299.971 104.882 CURVE SMOOTH",
"220.706 104.882 OFFCURVE",
"206.706 168.559 OFFCURVE",
"206.706 293.029 CURVE SMOOTH",
"206.706 692.882 LINE",
"41.824 692.882 LINE",
"41.824 231.765 LINE SMOOTH",
"41.824 84 OFFCURVE",
"126.824 -16.853 OFFCURVE",
"299.971 -16.853 CURVE SMOOTH",
"472.088 -16.853 OFFCURVE",
"558.176 89.824 OFFCURVE",
"558.176 231.765 CURVE SMOOTH",
"558.176 692.882 LINE"
);
}
);
width = 600;
},
{
anchors = (
{
name = bottom;
position = "{300, 0}";
},
{
name = ogonek;
position = "{377.088, 0}";
},
{
name = top;
position = "{300, 687.235}";
}
);
layerId = "B67F0F2D-EC95-4CB8-966E-23AE86958A69";
paths = (
{
closed = 1;
nodes = (
"453.971 687.235 LINE",
"453.971 198.441 LINE SMOOTH",
"453.971 99.382 OFFCURVE",
"391.971 51.235 OFFCURVE",
"298.559 51.235 CURVE SMOOTH",
"206.588 51.235 OFFCURVE",
"144.588 99.382 OFFCURVE",
"144.588 198.441 CURVE SMOOTH",
"144.588 687.235 LINE",
"81.353 687.235 LINE",
"81.353 220.471 LINE SMOOTH",
"81.353 84 OFFCURVE",
"166.353 -9.794 OFFCURVE",
"298.559 -9.794 CURVE SMOOTH",
"428.324 -9.794 OFFCURVE",
"518.647 81.353 OFFCURVE",
"518.647 220.471 CURVE SMOOTH",
"518.647 687.235 LINE"
);
}
);
width = 600;
}
);
unicode = 0055;
},
{
color = 4;
glyphname = V;
lastChange = "2019-03-25 19:36:12 +0000";
layers = (
{
anchors = (
{
name = bottom;
position = "{300, 0}";
},
{
name = top;
position = "{300, 692.882}";
}
);
layerId = "4B7A3BAF-EAD8-4024-9BEA-BB1DE86CFCFA";
paths = (
{
closed = 1;
nodes = (
"173.5 692.882 LINE",
"-0.324 692.882 LINE",
"198.529 0 LINE",
"401.471 0 LINE",
"601.294 692.882 LINE",
"433.471 692.882 LINE",
"302.971 128.206 LINE"
);
}
);
width = 600;
},
{
anchors = (
{
name = bottom;
position = "{300, 0}";
},
{
name = top;
position = "{300, 687.235}";
}
);
layerId = "B67F0F2D-EC95-4CB8-966E-23AE86958A69";
paths = (
{
closed = 1;
nodes = (
"101.5 687.235 LINE",
"32.147 687.235 LINE",
"271.941 0 LINE",
"328.059 0 LINE",
"567.412 687.235 LINE",
"504.059 687.235 LINE",
"301.559 90.088 LINE"
);
}
);
width = 600;
}
);
unicode = 0056;
},
{
color = 4;
glyphname = W;
lastChange = "2019-03-25 19:36:12 +0000";
layers = (
{
anchors = (
{
name = bottom;
position = "{300, 0}";
},
{
name = top;
position = "{300, 692.882}";
}
);
layerId = "4B7A3BAF-EAD8-4024-9BEA-BB1DE86CFCFA";
paths = (
{
closed = 1;
nodes = (
"460.471 692.882 LINE",
"426.176 139.794 LINE",
"372.5 612.882 LINE",
"231.441 612.882 LINE",
"173.765 139.794 LINE",
"150.412 692.882 LINE",
"-2.794 692.882 LINE",
"71.794 0 LINE",
"245.265 0 LINE",
"300.912 495.647 LINE",
"351.676 0 LINE",
"522.147 0 LINE",
"602.794 692.882 LINE"
);
}
);
width = 600;
},
{
anchors = (
{
name = bottom;
position = "{300, 0}";
},
{
name = top;
position = "{300, 687.235}";
}
);
layerId = "B67F0F2D-EC95-4CB8-966E-23AE86958A69";
paths = (
{
closed = 1;
nodes = (
"531.059 687.235 LINE",
"434.647 81.912 LINE",
"348.5 607.235 LINE",
"252.618 607.235 LINE",
"162.471 81.912 LINE",
"74.176 687.235 LINE",
"7.088 687.235 LINE",
"109.912 0 LINE",
"209.971 0 LINE",
"296.676 526.706 LINE",
"384.147 0 LINE",
"481.206 0 LINE",
"592.912 687.235 LINE"
);
}
);
width = 600;
}
);
unicode = 0057;
},
{
color = 4;
glyphname = X;
lastChange = "2019-03-25 19:36:12 +0000";
layers = (
{
anchors = (
{
name = bottom;
position = "{300, 0}";
},
{
name = bottomright;
position = "{559.029, 0}";
},
{
name = top;
position = "{300, 692.882}";
}
);
layerId = "4B7A3BAF-EAD8-4024-9BEA-BB1DE86CFCFA";
paths = (
{
closed = 1;
nodes = (
"200.265 367.971 LINE",
"3.735 0 LINE",
"177.559 0 LINE",
"298 264.265 LINE",
"420.324 0 LINE",
"597.235 0 LINE",
"395.765 374.912 LINE",
"580.059 692.882 LINE",
"407.206 692.882 LINE",
"300 470.735 LINE",
"195.735 692.882 LINE",
"18.824 692.882 LINE"
);
}
);
width = 600;
},
{
anchors = (
{
name = bottom;
position = "{300, 0}";
},
{
name = bottomright;
position = "{512.441, 0}";
},
{
name = top;
position = "{300, 687.235}";
}
);
layerId = "B67F0F2D-EC95-4CB8-966E-23AE86958A69";
paths = (
{
closed = 1;
nodes = (
"260.971 366.559 LINE",
"39.029 0 LINE",
"108.382 0 LINE",
"298 324.971 LINE",
"483.853 0 LINE",
"560.529 0 LINE",
"336.471 370.676 LINE",
"534.882 687.235 LINE",
"465.088 687.235 LINE",
"300 410.029 LINE",
"135.029 687.235 LINE",
"58.353 687.235 LINE"
);
}
);
width = 600;
}
);
unicode = 0058;
},
{
color = 4;
glyphname = Y;
lastChange = "2019-03-25 19:36:12 +0000";
layers = (
{
anchors = (
{
name = bottom;
position = "{300, 0}";
},
{
name = top;
position = "{300.088, 692.882}";
},
{
name = topleft;
position = "{-8.147, 692.882}";
}
);
layerId = "4B7A3BAF-EAD8-4024-9BEA-BB1DE86CFCFA";
paths = (
{
closed = 1;
nodes = (
"608.147 692.882 LINE",
"435.382 692.882 LINE",
"302.971 394.618 LINE",
"171.588 692.882 LINE",
"-8.147 692.882 LINE",
"218.029 259.147 LINE",
"218.029 0 LINE",
"381.971 0 LINE",
"381.971 260.147 LINE"
);
}
);
width = 600;
},
{
anchors = (
{
name = bottom;
position = "{300, 0}";
},
{
name = top;
position = "{304.324, 687.235}";
},
{
name = topleft;
position = "{32.794, 687.235}";
}
);
layerId = "B67F0F2D-EC95-4CB8-966E-23AE86958A69";
paths = (
{
closed = 1;
nodes = (
"567.206 687.235 LINE",
"501.735 687.235 LINE",
"301.559 328.265 LINE",
"103.824 687.235 LINE",
"32.794 687.235 LINE",
"267.441 266.206 LINE",
"267.441 0 LINE",
"332.559 0 LINE",
"332.559 267.206 LINE"
);
}
);
width = 600;
}
);
unicode = 0059;
},
{
color = 4;
glyphname = Z;
lastChange = "2019-03-25 19:36:12 +0000";
layers = (
{
anchors = (
{
name = bottom;
position = "{300, 0}";
},
{
name = top;
position = "{313.147, 692.882}";
}
);
layerId = "4B7A3BAF-EAD8-4024-9BEA-BB1DE86CFCFA";
paths = (
{
closed = 1;
nodes = (
"554.294 569.294 LINE",
"554.294 692.882 LINE",
"74.882 692.882 LINE",
"74.882 566.294 LINE",
"367.824 566.294 LINE",
"38.882 122.588 LINE",
"38.882 0 LINE",
"545.235 0 LINE",
"562.059 130.5 LINE",
"232.235 130.5 LINE"
);
}
);
width = 600;
},
{
anchors = (
{
name = bottom;
position = "{300, 0}";
},
{
name = top;
position = "{320.206, 687.235}";
}
);
layerId = "B67F0F2D-EC95-4CB8-966E-23AE86958A69";
paths = (
{
closed = 1;
nodes = (
"520.412 631.412 LINE",
"520.412 687.235 LINE",
"117.235 687.235 LINE",
"117.235 628.412 LINE",
"455.353 628.412 LINE",
"81.235 54.824 LINE",
"81.235 0 LINE",
"508.529 0 LINE",
"516.882 58.5 LINE",
"147.529 58.5 LINE"
);
}
);
width = 600;
}
);
unicode = 005A;
},
{
color = 4;
glyphname = a;
lastChange = "2019-03-25 19:36:12 +0000";
layers = (
{
anchors = (
{
name = bottom;
position = "{300, 0}";
},
{
name = ogonek;
position = "{529.471, -14.912}";
},
{
name = top;
position = "{292.971, 530.882}";
}
);
layerId = "4B7A3BAF-EAD8-4024-9BEA-BB1DE86CFCFA";
paths = (
{
closed = 1;
nodes = (
"516.941 361.176 LINE SMOOTH",
"516.941 482.706 OFFCURVE",
"443.147 548.706 OFFCURVE",
"284.882 548.706 CURVE SMOOTH",
"226.088 548.706 OFFCURVE",
"146.706 534.824 OFFCURVE",
"77.824 508.882 CURVE",
"114.441 404 LINE",
"167.471 422.029 OFFCURVE",
"226.176 431.971 OFFCURVE",
"260.206 431.971 CURVE SMOOTH",
"328.471 431.971 OFFCURVE",
"364.765 405.912 OFFCURVE",
"364.765 350.353 CURVE SMOOTH",
"364.765 330.706 LINE",
"293.588 330.706 LINE SMOOTH",
"129.706 330.706 OFFCURVE",
"34.912 264.853 OFFCURVE",
"34.912 150.029 CURVE SMOOTH",
"34.912 52.029 OFFCURVE",
"104.765 -16.853 OFFCURVE",
"214.647 -16.853 CURVE SMOOTH",
"280.706 -16.853 OFFCURVE",
"348.471 6.206 OFFCURVE",
"389.382 55.206 CURVE",
"414.118 11.118 OFFCURVE",
"456.941 -8.912 OFFCURVE",
"519.471 -14.912 CURVE",
"552.147 88.882 LINE",
"527.029 97.882 OFFCURVE",
"516.941 112.912 OFFCURVE",
"516.941 152.971 CURVE SMOOTH"
);
},
{
closed = 1;
nodes = (
"224.118 95.824 OFFCURVE",
"197.941 120.088 OFFCURVE",
"197.941 160.765 CURVE SMOOTH",
"197.941 213.176 OFFCURVE",
"238 240.588 OFFCURVE",
"325.765 240.588 CURVE SMOOTH",
"364.765 240.588 LINE",
"364.765 154.265 LINE",
"345.441 117 OFFCURVE",
"303.235 95.824 OFFCURVE",
"268.765 95.824 CURVE SMOOTH"
);
}
);
width = 600;
},
{
anchors = (
{
name = bottom;
position = "{300, 0}";
},
{
name = ogonek;
position = "{504.059, -10.676}";
},
{
name = top;
position = "{291.559, 525.235}";
}
);
layerId = "B67F0F2D-EC95-4CB8-966E-23AE86958A69";
paths = (
{
closed = 1;
nodes = (
"466.118 369.647 LINE SMOOTH",
"466.118 468.588 OFFCURVE",
"402.206 534.588 OFFCURVE",
"279.235 534.588 CURVE SMOOTH",
"230.324 534.588 OFFCURVE",
"180.588 526.353 OFFCURVE",
"117.353 503.235 CURVE",
"135.618 452 LINE",
"190.059 471.441 OFFCURVE",
"234.647 478.559 OFFCURVE",
"270.088 478.559 CURVE SMOOTH",
"351.059 478.559 OFFCURVE",
"401.471 449.676 OFFCURVE",
"401.471 367.294 CURVE SMOOTH",
"401.471 316.588 LINE",
"321.824 316.588 LINE SMOOTH",
"163.588 316.588 OFFCURVE",
"78.676 257.794 OFFCURVE",
"78.676 151.441 CURVE SMOOTH",
"78.676 53.441 OFFCURVE",
"141.471 -9.794 OFFCURVE",
"245.706 -9.794 CURVE SMOOTH",
"314.588 -9.794 OFFCURVE",
"371.059 16.088 OFFCURVE",
"407.735 65.088 CURVE",
"419.765 16.765 OFFCURVE",
"454.118 -4.676 OFFCURVE",
"494.059 -10.676 CURVE",
"511.206 35.235 LINE",
"480.441 44.235 OFFCURVE",
"466.118 60.676 OFFCURVE",
"466.118 103.559 CURVE SMOOTH"
);
},
{
closed = 1;
nodes = (
"181.765 39.353 OFFCURVE",
"147.118 76.324 OFFCURVE",
"147.118 149.471 CURVE SMOOTH",
"147.118 221.647 OFFCURVE",
"190 268.824 OFFCURVE",
"314.471 268.824 CURVE SMOOTH",
"401.471 268.824 LINE",
"401.471 118.971 LINE",
"366.618 69 OFFCURVE",
"314.529 39.353 OFFCURVE",
"257.471 39.353 CURVE SMOOTH"
);
}
);
width = 600;
}
);
unicode = 0061;
},
{
color = 4;
glyphname = ae;
lastChange = "2019-03-25 19:36:12 +0000";
layers = (
{
anchors = (
{
name = top;
position = "{302.176, 530.882}";
}
);
layerId = "4B7A3BAF-EAD8-4024-9BEA-BB1DE86CFCFA";
paths = (
{
closed = 1;
nodes = (
"368.088 548.706 OFFCURVE",
"326.029 520.559 OFFCURVE",
"302.176 478.235 CURVE",
"277.294 520.529 OFFCURVE",
"237.353 548.706 OFFCURVE",
"164.176 548.706 CURVE SMOOTH",
"111.441 548.706 OFFCURVE",
"71.235 535.706 OFFCURVE",
"19.441 512.765 CURVE",
"55.088 426.382 LINE",
"95.176 445.382 OFFCURVE",
"116.294 451.441 OFFCURVE",
"148.382 451.441 CURVE SMOOTH",
"205.412 451.441 OFFCURVE",
"237.441 418.5 OFFCURVE",
"237.441 350.353 CURVE SMOOTH",
"237.441 326.824 LINE",
"196.324 326.824 LINE SMOOTH",
"59.235 326.824 OFFCURVE",
"-6 264.882 OFFCURVE",
"-6 151.971 CURVE SMOOTH",
"-6 53 OFFCURVE",
"50.088 -16.853 OFFCURVE",
"143.088 -16.853 CURVE SMOOTH",
"211.059 -16.853 OFFCURVE",
"246.176 10.147 OFFCURVE",
"284.382 67.294 CURVE",
"318.353 14.176 OFFCURVE",
"370.176 -16.853 OFFCURVE",
"444.088 -16.853 CURVE SMOOTH",
"510.824 -16.853 OFFCURVE",
"560.618 7.059 OFFCURVE",
"599.647 40.029 CURVE",
"540.206 119.441 LINE",
"511.088 98.324 OFFCURVE",
"485.059 87.235 OFFCURVE",
"452.882 87.235 CURVE SMOOTH",
"396.5 87.235 OFFCURVE",
"365.441 131.5 OFFCURVE",
"356.441 226.176 CURVE",
"597.206 226.176 LINE",
"599.176 242.088 OFFCURVE",
"600.176 258.088 OFFCURVE",
"600.176 276.088 CURVE SMOOTH",
"600.176 451.676 OFFCURVE",
"553.029 548.706 OFFCURVE",
"428.176 548.706 CURVE SMOOTH"
);
},
{
closed = 1;
nodes = (
"237.441 211.265 OFFCURVE",
"238.529 178.118 OFFCURVE",
"241.706 148.059 CURVE",
"221.294 107.441 OFFCURVE",
"200.088 86.118 OFFCURVE",
"171.647 86.118 CURVE SMOOTH",
"142.235 86.118 OFFCURVE",
"125.882 113.324 OFFCURVE",
"125.882 158.912 CURVE SMOOTH",
"125.882 211.235 OFFCURVE",
"150.059 241.559 OFFCURVE",
"215.882 241.559 CURVE SMOOTH",
"237.441 241.559 LINE"
);
},
{
closed = 1;
nodes = (
"468.853 449.5 OFFCURVE",
"480.147 406.088 OFFCURVE",
"481.176 311.647 CURVE",
"356.441 311.647 LINE",
"360.559 416.206 OFFCURVE",
"380.765 449.5 OFFCURVE",
"422.265 449.5 CURVE SMOOTH"
);
}
);
width = 600;
},
{
anchors = (
{
name = top;
position = "{310.647, 525.235}";
}
);
layerId = "B67F0F2D-EC95-4CB8-966E-23AE86958A69";
paths = (
{
closed = 1;
nodes = (
"372.324 534.588 OFFCURVE",
"327.441 499.382 OFFCURVE",
"310.647 441.529 CURVE",
"291.412 497.941 OFFCURVE",
"254.294 534.588 OFFCURVE",
"172.647 534.588 CURVE SMOOTH",
"132.618 534.588 OFFCURVE",
"82.529 521.588 OFFCURVE",
"40.618 501.471 CURVE",
"59.324 444.735 LINE",
"103.647 463.735 OFFCURVE",
"130.412 472.618 OFFCURVE",
"166.735 472.618 CURVE SMOOTH",
"225.176 472.618 OFFCURVE",
"258.618 442.5 OFFCURVE",
"258.618 367.294 CURVE SMOOTH",
"258.618 318.353 LINE",
"211.853 318.353 LINE SMOOTH",
"70.529 318.353 OFFCURVE",
"-6 259.235 OFFCURVE",
"-6 150.559 CURVE SMOOTH",
"-6 53 OFFCURVE",
"54.324 -9.794 OFFCURVE",
"147.324 -9.794 CURVE SMOOTH",
"213.882 -9.794 OFFCURVE",
"254.647 17.206 OFFCURVE",
"302.735 81.412 CURVE",
"335.294 22.647 OFFCURVE",
"378.647 -9.794 OFFCURVE",
"448.324 -9.794 CURVE SMOOTH",
"502.353 -9.794 OFFCURVE",
"542.265 9.882 OFFCURVE",
"582.706 41.441 CURVE",
"550.088 92.618 LINE",
"515.324 65.853 OFFCURVE",
"487.882 50.529 OFFCURVE",
"447.235 50.529 CURVE SMOOTH",
"372.5 50.529 OFFCURVE",
"338.618 107.5 OFFCURVE",
"329.618 234.647 CURVE",
"607.088 234.647 LINE",
"607.647 246.324 OFFCURVE",
"608.647 262.324 OFFCURVE",
"608.647 280.324 CURVE SMOOTH",
"608.647 436.147 OFFCURVE",
"554.441 534.588 OFFCURVE",
"436.647 534.588 CURVE SMOOTH"
);
},
{
closed = 1;
nodes = (
"258.618 223.971 OFFCURVE",
"263.941 183.765 OFFCURVE",
"275.588 150.882 CURVE",
"235.412 80.618 OFFCURVE",
"204.324 43.765 OFFCURVE",
"154.706 43.765 CURVE SMOOTH",
"105.529 43.765 OFFCURVE",
"72.235 80.853 OFFCURVE",
"72.235 154.676 CURVE SMOOTH",
"72.235 222.529 OFFCURVE",
"104.882 268.382 OFFCURVE",
"210.235 268.382 CURVE SMOOTH",
"258.618 268.382 LINE"
);
},
{
closed = 1;
nodes = (
"509.794 473.5 OFFCURVE",
"535.206 410.324 OFFCURVE",
"537.647 294.706 CURVE",
"329.618 294.706 LINE",
"339.382 426.088 OFFCURVE",
"369.471 473.5 OFFCURVE",
"434.971 473.5 CURVE SMOOTH"
);
}
);
width = 600;
}
);
unicode = 00E6;
},
{
color = 4;
glyphname = b;
lastChange = "2019-03-25 19:36:12 +0000";
layers = (
{
anchors = (
{
name = bottom;
position = "{300, 0}";
},
{
name = top;
position = "{300, 741.912}";
}
);
layerId = "4B7A3BAF-EAD8-4024-9BEA-BB1DE86CFCFA";
paths = (
{
closed = 1;
nodes = (
"227.824 758.735 LINE",
"69.824 741.912 LINE",
"69.824 0 LINE",
"210.029 0 LINE",
"216.029 48.176 LINE",
"247.147 6.088 OFFCURVE",
"294.147 -16.853 OFFCURVE",
"347.353 -16.853 CURVE SMOOTH",
"485.294 -16.853 OFFCURVE",
"560.235 103.029 OFFCURVE",
"560.235 266.912 CURVE SMOOTH",
"560.235 439.706 OFFCURVE",
"500.324 548.706 OFFCURVE",
"364.206 548.706 CURVE SMOOTH",
"310.029 548.706 OFFCURVE",
"260.971 520.676 OFFCURVE",
"227.824 476.5 CURVE"
);
},
{
closed = 1;
nodes = (
"271.559 97.882 OFFCURVE",
"248.029 115.118 OFFCURVE",
"227.824 146.412 CURVE",
"227.824 370.412 LINE",
"250.971 408.529 OFFCURVE",
"278.441 432.029 OFFCURVE",
"314.059 432.029 CURVE SMOOTH",
"363.912 432.029 OFFCURVE",
"397.176 397.118 OFFCURVE",
"397.176 264.971 CURVE SMOOTH",
"397.176 145.412 OFFCURVE",
"361.794 97.882 OFFCURVE",
"305.941 97.882 CURVE SMOOTH"
);
}
);
width = 600;
},
{
anchors = (
{
name = bottom;
position = "{300, 0}";
},
{
name = top;
position = "{300, 737.676}";
}
);
layerId = "B67F0F2D-EC95-4CB8-966E-23AE86958A69";
paths = (
{
closed = 1;
nodes = (
"171.353 746.029 LINE",
"109.353 737.676 LINE",
"109.353 0 LINE",
"163.441 0 LINE",
"169.441 56.647 LINE",
"206.206 10.324 OFFCURVE",
"253.206 -9.794 OFFCURVE",
"316.294 -9.794 CURVE SMOOTH",
"451.412 -9.794 OFFCURVE",
"523.529 104.441 OFFCURVE",
"523.529 262.676 CURVE SMOOTH",
"523.529 425.588 OFFCURVE",
"467.853 534.588 OFFCURVE",
"326.088 534.588 CURVE SMOOTH",
"263.441 534.588 OFFCURVE",
"211.559 505.147 OFFCURVE",
"171.353 452.5 CURVE"
);
},
{
closed = 1;
nodes = (
"250.382 44.235 OFFCURVE",
"201.441 72.765 OFFCURVE",
"171.353 118.176 CURVE",
"171.353 390.176 LINE",
"201.559 433.941 OFFCURVE",
"251.618 481.441 OFFCURVE",
"316.882 481.441 CURVE SMOOTH",
"407.676 481.441 OFFCURVE",
"453.647 402.765 OFFCURVE",
"453.647 263.559 CURVE SMOOTH",
"453.647 117.176 OFFCURVE",
"399.912 44.235 OFFCURVE",
"303.118 44.235 CURVE SMOOTH"
);
}
);
width = 600;
}
);
unicode = 0062;
},
{
color = 4;
glyphname = c;
lastChange = "2019-03-25 19:36:12 +0000";
layers = (
{
anchors = (
{
name = bottom;
position = "{339, 0}";
},
{
name = bottomAttach;
position = "{339, 0}";
},
{
name = top;
position = "{344, 518}";
}
);
layerId = "4B7A3BAF-EAD8-4024-9BEA-BB1DE86CFCFA";
paths = (
{
closed = 1;
nodes = (
"284.029 107.735 OFFCURVE",
"233.618 144.353 OFFCURVE",
"233.618 261.971 CURVE SMOOTH",
"233.618 381.5 OFFCURVE",
"281.088 427.088 OFFCURVE",
"352.618 427.088 CURVE SMOOTH",
"395.706 427.088 OFFCURVE",
"435.824 412.059 OFFCURVE",
"472.059 386.912 CURVE",
"540.324 481.853 LINE",
"487.412 525.765 OFFCURVE",
"426.471 548.706 OFFCURVE",
"345.824 548.706 CURVE SMOOTH",
"175.176 548.706 OFFCURVE",
"68.618 427.765 OFFCURVE",
"68.618 261.971 CURVE SMOOTH",
"68.618 96 OFFCURVE",
"171.265 -16.853 OFFCURVE",
"342.882 -16.853 CURVE SMOOTH",
"425.324 -16.853 OFFCURVE",
"493.382 13 OFFCURVE",
"540.353 52.971 CURVE",
"470.147 152.765 LINE",
"432.118 126.735 OFFCURVE",
"394.912 107.735 OFFCURVE",
"351.647 107.735 CURVE SMOOTH"
);
}
);
width = 600;
},
{
anchors = (
{
name = bottom;
position = "{339, 0}";
},
{
name = bottomAttach;
position = "{339, 0}";
},
{
name = top;
position = "{344, 518}";
}
);
layerId = "B67F0F2D-EC95-4CB8-966E-23AE86958A69";
paths = (
{
closed = 1;
nodes = (
"237.441 47.029 OFFCURVE",
"167.265 113.294 OFFCURVE",
"167.265 260.559 CURVE SMOOTH",
"167.265 405.5 OFFCURVE",
"237.324 479.324 OFFCURVE",
"334.265 479.324 CURVE SMOOTH",
"381.588 479.324 OFFCURVE",
"427.353 462.882 OFFCURVE",
"474.882 430.676 CURVE",
"507.853 474.794 LINE",
"459.176 514.471 OFFCURVE",
"401.059 534.588 OFFCURVE",
"337.353 534.588 CURVE SMOOTH",
"183.647 534.588 OFFCURVE",
"98.265 416.471 OFFCURVE",
"98.265 260.559 CURVE SMOOTH",
"98.265 96 OFFCURVE",
"183.971 -9.794 OFFCURVE",
"337.235 -9.794 CURVE SMOOTH",
"392.853 -9.794 OFFCURVE",
"463.735 13 OFFCURVE",
"509.294 51.559 CURVE",
"477.206 93.471 LINE",
"437.765 66.029 OFFCURVE",
"390.676 47.029 OFFCURVE",
"334.706 47.029 CURVE SMOOTH"
);
}
);
width = 600;
}
);
unicode = 0063;
},
{
color = 4;
glyphname = d;
lastChange = "2019-03-25 19:36:12 +0000";
layers = (
{
anchors = (
{
name = bottom;
position = "{300, 0}";
},
{
name = center;
position = "{300, 265.941}";
},
{
name = top;
position = "{300, 741.912}";
},
{
name = topright;
position = "{550.471, 741.912}";
}
);
layerId = "4B7A3BAF-EAD8-4024-9BEA-BB1DE86CFCFA";
paths = (
{
closed = 1;
nodes = (
"372.176 499.353 LINE",
"340.088 531.588 OFFCURVE",
"298.971 548.706 OFFCURVE",
"251.618 548.706 CURVE SMOOTH",
"120.647 548.706 OFFCURVE",
"39.765 430.735 OFFCURVE",
"39.765 266.882 CURVE SMOOTH",
"39.765 96.088 OFFCURVE",
"102.765 -16.853 OFFCURVE",
"234.912 -16.853 CURVE SMOOTH",
"304.588 -16.853 OFFCURVE",
"352.706 16.912 OFFCURVE",
"381.971 58.294 CURVE",
"389.971 0 LINE",
"530.176 0 LINE",
"530.176 741.912 LINE",
"372.176 758.735 LINE"
);
},
{
closed = 1;
nodes = (
"326.5 433 OFFCURVE",
"350 416.765 OFFCURVE",
"372.176 389.353 CURVE",
"372.176 160.441 LINE",
"349.029 122.294 OFFCURVE",
"320.676 98.853 OFFCURVE",
"285.029 98.853 CURVE SMOOTH",
"237.088 98.853 OFFCURVE",
"202.824 134.765 OFFCURVE",
"202.824 265.912 CURVE SMOOTH",
"202.824 385.441 OFFCURVE",
"239.176 433 OFFCURVE",
"294.059 433 CURVE SMOOTH"
);
}
);
width = 600;
},
{
anchors = (
{
name = bottom;
position = "{300, 0}";
},
{
name = center;
position = "{300, 263.118}";
},
{
name = top;
position = "{300, 737.676}";
},
{
name = topright;
position = "{525.059, 737.676}";
}
);
layerId = "B67F0F2D-EC95-4CB8-966E-23AE86958A69";
paths = (
{
closed = 1;
nodes = (
"428.647 468.294 LINE",
"392.324 511.824 OFFCURVE",
"345.559 534.588 OFFCURVE",
"281.265 534.588 CURVE SMOOTH",
"151.706 534.588 OFFCURVE",
"76.471 418.029 OFFCURVE",
"76.471 261.235 CURVE SMOOTH",
"76.471 100.324 OFFCURVE",
"139.471 -9.794 OFFCURVE",
"278.676 -9.794 CURVE SMOOTH",
"332.824 -9.794 OFFCURVE",
"386.588 12.676 OFFCURVE",
"428.559 72.412 CURVE",
"436.559 0 LINE",
"490.647 0 LINE",
"490.647 737.676 LINE",
"428.647 746.029 LINE"
);
},
{
closed = 1;
nodes = (
"350.5 481 OFFCURVE",
"398 453.471 OFFCURVE",
"428.647 406.294 CURVE",
"428.647 133.618 LINE",
"398.441 88.412 OFFCURVE",
"353.147 43.794 OFFCURVE",
"286.441 43.794 CURVE SMOOTH",
"193.324 43.794 OFFCURVE",
"146.353 123.471 OFFCURVE",
"146.353 261.676 CURVE SMOOTH",
"146.353 406.618 OFFCURVE",
"199.647 481 OFFCURVE",
"296.882 481 CURVE SMOOTH"
);
}
);
width = 600;
}
);
unicode = 0064;
},
{
color = 4;
glyphname = eth;
lastChange = "2019-03-25 19:36:12 +0000";
layers = (
{
layerId = "4B7A3BAF-EAD8-4024-9BEA-BB1DE86CFCFA";
paths = (
{
closed = 1;
nodes = (
"226.088 525.176 LINE",
"281.706 581.824 LINE",
"329.147 547.5 OFFCURVE",
"365.441 499.912 OFFCURVE",
"388.324 431.471 CURVE",
"352.265 464.765 OFFCURVE",
"313.912 481.971 OFFCURVE",
"254.676 481.971 CURVE SMOOTH",
"139.706 481.971 OFFCURVE",
"39.735 382.029 OFFCURVE",
"39.735 234.029 CURVE SMOOTH",
"39.735 75.059 OFFCURVE",
"150.5 -16.853 OFFCURVE",
"294.029 -16.853 CURVE SMOOTH",
"463.324 -16.853 OFFCURVE",
"556.353 112.529 OFFCURVE",
"556.353 276.647 CURVE SMOOTH",
"556.353 455.971 OFFCURVE",
"500.412 589.824 OFFCURVE",
"370.706 672.794 CURVE",
"423.941 727.059 LINE",
"342.765 797.353 LINE",
"269.853 721.412 LINE",
"227.882 737.559 OFFCURVE",
"178.853 749.647 OFFCURVE",
"123.765 757.765 CURVE",
"93.088 654.765 LINE",
"126.441 648.676 OFFCURVE",
"156.647 640.588 OFFCURVE",
"183.794 631.412 CURVE",
"126.176 570.765 LINE"
);
},
{
closed = 1;
nodes = (
"396.382 149.441 OFFCURVE",
"365.588 97.882 OFFCURVE",
"296.912 97.882 CURVE SMOOTH",
"238.265 97.882 OFFCURVE",
"200.706 138.5 OFFCURVE",
"200.706 236.088 CURVE SMOOTH",
"200.706 327.882 OFFCURVE",
"238.441 371.147 OFFCURVE",
"295.853 371.147 CURVE SMOOTH",
"335.529 371.147 OFFCURVE",
"370.088 355.794 OFFCURVE",
"395.324 328.118 CURVE",
"396.353 305.176 OFFCURVE",
"396.382 281.265 OFFCURVE",
"396.382 256.294 CURVE SMOOTH"
);
}
);
width = 600;
},
{
layerId = "B67F0F2D-EC95-4CB8-966E-23AE86958A69";
paths = (
{
closed = 1;
nodes = (
"230.324 533.647 LINE",
"315.588 621.353 LINE",
"384.206 571.5 OFFCURVE",
"434.618 495.676 OFFCURVE",
"451.853 406.059 CURVE",
"412.971 453.471 OFFCURVE",
"357.676 480.559 OFFCURVE",
"287.147 480.559 CURVE SMOOTH",
"173.588 480.559 OFFCURVE",
"75.029 383.441 OFFCURVE",
"75.029 235.441 CURVE SMOOTH",
"75.029 77.882 OFFCURVE",
"174.5 -9.794 OFFCURVE",
"295.441 -9.794 CURVE SMOOTH",
"430.853 -9.794 OFFCURVE",
"525.294 89.941 OFFCURVE",
"525.294 259.706 CURVE SMOOTH",
"525.294 454.559 OFFCURVE",
"472.176 581.353 OFFCURVE",
"356.588 662.912 CURVE",
"421.118 729.882 LINE",
"379.471 766.294 LINE",
"310.794 693.176 LINE",
"270.235 716.382 OFFCURVE",
"219.794 732.706 OFFCURVE",
"160.471 746.471 CURVE",
"145.324 691.471 LINE",
"195.618 681.147 OFFCURVE",
"235.706 668.824 OFFCURVE",
"269.912 651.176 CURVE",
"182.647 559.471 LINE"
);
},
{
closed = 1;
nodes = (
"462.735 122.618 OFFCURVE",
"393.824 44.235 OFFCURVE",
"292.676 44.235 CURVE SMOOTH",
"202.971 44.235 OFFCURVE",
"138.588 114.5 OFFCURVE",
"138.588 240.324 CURVE SMOOTH",
"138.588 370.235 OFFCURVE",
"211.618 426.206 OFFCURVE",
"288.794 426.206 CURVE SMOOTH",
"360.941 426.206 OFFCURVE",
"422.324 393.912 OFFCURVE",
"458.853 333.765 CURVE",
"461.294 313.647 OFFCURVE",
"462.735 293.971 OFFCURVE",
"462.735 270.412 CURVE SMOOTH"
);
}
);
width = 600;
}
);
unicode = 00F0;
},
{
color = 4;
glyphname = dcroat;
lastChange = "2019-03-25 19:36:12 +0000";
layers = (
{
components = (
{
alignment = -1;
name = d;
transform = "{1, 0, 0, 1, -18.441, 0}";
}
);
layerId = "4B7A3BAF-EAD8-4024-9BEA-BB1DE86CFCFA";
paths = (
{
closed = 1;
nodes = (
"231.412 685.441 LINE",
"231.412 593.118 LINE",
"353.735 593.118 LINE",
"591.706 593.118 LINE",
"591.706 685.441 LINE",
"511.735 685.441 LINE"
);
}
);
width = 600;
},
{
components = (
{
alignment = -1;
name = d;
transform = "{1, 0, 0, 1, 8.382, 0}";
}
);
layerId = "B67F0F2D-EC95-4CB8-966E-23AE86958A69";
paths = (
{
closed = 1;
nodes = (
"251.176 658.618 LINE",
"251.176 598.765 LINE",
"437.029 598.765 LINE",
"577.588 598.765 LINE",
"577.588 658.618 LINE",
"499.029 658.618 LINE"
);
}
);
width = 600;
}
);
unicode = 0111;
},
{
color = 4;
glyphname = e;
lastChange = "2019-03-25 19:36:12 +0000";
layers = (
{
anchors = (
{
name = bottom;
position = "{300, 0}";
},
{
name = ogonek;
position = "{445.029, 0}";
},
{
name = top;
position = "{307.088, 530.882}";
}
);
layerId = "4B7A3BAF-EAD8-4024-9BEA-BB1DE86CFCFA";
paths = (
{
closed = 1;
nodes = (
"551.176 219.382 LINE",
"553.147 235.265 OFFCURVE",
"554.147 258.088 OFFCURVE",
"554.147 276.088 CURVE SMOOTH",
"554.147 446.794 OFFCURVE",
"456.588 548.706 OFFCURVE",
"305.088 548.706 CURVE SMOOTH",
"137.824 548.706 OFFCURVE",
"45.882 422 OFFCURVE",
"45.882 264.941 CURVE SMOOTH",
"45.882 99.971 OFFCURVE",
"139.706 -16.853 OFFCURVE",
"321.941 -16.853 CURVE SMOOTH",
"412.265 -16.853 OFFCURVE",
"484.118 12.971 OFFCURVE",
"534.088 55.853 CURVE",
"470.735 142.029 LINE",
"428.618 114.912 OFFCURVE",
"382.765 97.941 OFFCURVE",
"334.618 97.941 CURVE SMOOTH",
"267.235 97.941 OFFCURVE",
"217.735 132.441 OFFCURVE",
"206.912 219.382 CURVE"
);
},
{
closed = 1;
nodes = (
"372.441 442.706 OFFCURVE",
"399.088 391.529 OFFCURVE",
"400.118 314.559 CURVE",
"204.971 314.559 LINE",
"211.971 403.294 OFFCURVE",
"248.529 442.706 OFFCURVE",
"305.118 442.706 CURVE SMOOTH"
);
}
);
width = 600;
},
{
anchors = (
{
name = bottom;
position = "{300, 0}";
},
{
name = ogonek;
position = "{398.441, 0}";
},
{
name = top;
position = "{311.324, 525.235}";
}
);
layerId = "B67F0F2D-EC95-4CB8-966E-23AE86958A69";
paths = (
{
closed = 1;
nodes = (
"511.647 237.735 LINE",
"512.206 247.971 OFFCURVE",
"513.206 262.324 OFFCURVE",
"513.206 280.324 CURVE SMOOTH",
"513.206 436.912 OFFCURVE",
"436.824 534.588 OFFCURVE",
"309.324 534.588 CURVE SMOOTH",
"177.353 534.588 OFFCURVE",
"88.235 422 OFFCURVE",
"88.235 262.118 CURVE SMOOTH",
"88.235 98.559 OFFCURVE",
"173.588 -9.794 OFFCURVE",
"319.118 -9.794 CURVE SMOOTH",
"376.971 -9.794 OFFCURVE",
"441.765 11.559 OFFCURVE",
"490.324 48.794 CURVE",
"458.029 95.441 LINE",
"410.265 62.676 OFFCURVE",
"371.471 47.118 OFFCURVE",
"316.265 47.118 CURVE SMOOTH",
"230.529 47.118 OFFCURVE",
"157.029 105.618 OFFCURVE",
"154.676 237.735 CURVE"
);
},
{
closed = 1;
nodes = (
"393.618 476.588 OFFCURVE",
"451.324 416.941 OFFCURVE",
"453.765 293.382 CURVE",
"155.559 293.382 LINE",
"162.559 417.412 OFFCURVE",
"225.941 476.588 OFFCURVE",
"310.765 476.588 CURVE SMOOTH"
);
}
);
width = 600;
}
);
unicode = 0065;
},
{
color = 4;
glyphname = f;
lastChange = "2019-03-25 19:36:12 +0000";
layers = (
{
anchors = (
{
name = bottom;
position = "{266.853, 0}";
},
{
name = top;
position = "{370, 741.912}";
}
);
layerId = "4B7A3BAF-EAD8-4024-9BEA-BB1DE86CFCFA";
paths = (
{
closed = 1;
nodes = (
"264.029 758.735 OFFCURVE",
"187.853 679.235 OFFCURVE",
"187.853 574.441 CURVE SMOOTH",
"187.853 497.676 LINE",
"76.471 497.676 LINE",
"76.471 387.853 LINE",
"187.853 387.853 LINE",
"187.853 0 LINE",
"344.882 0 LINE",
"344.882 387.853 LINE",
"500.265 387.853 LINE",
"518.029 497.676 LINE",
"344.882 497.676 LINE",
"344.882 568.647 LINE SMOOTH",
"344.882 620.824 OFFCURVE",
"370.206 642.029 OFFCURVE",
"432.5 642.029 CURVE SMOOTH",
"470.559 642.029 OFFCURVE",
"509.559 636 OFFCURVE",
"546.471 621.971 CURVE",
"590.029 724.882 LINE",
"543.176 744.824 OFFCURVE",
"485.529 758.735 OFFCURVE",
"408.088 758.735 CURVE SMOOTH"
);
}
);
width = 600;
},
{
anchors = (
{
name = bottom;
position = "{259.794, 0}";
},
{
name = top;
position = "{370, 737.676}";
}
);
layerId = "B67F0F2D-EC95-4CB8-966E-23AE86958A69";
paths = (
{
closed = 1;
nodes = (
"313.441 746.029 OFFCURVE",
"228.794 690.529 OFFCURVE",
"228.794 595.618 CURVE SMOOTH",
"228.794 482.147 LINE",
"99.059 482.147 LINE",
"99.059 428.794 LINE",
"228.794 428.794 LINE",
"228.794 0 LINE",
"291.235 0 LINE",
"291.235 428.794 LINE",
"464.971 428.794 LINE",
"471.441 482.147 LINE",
"291.235 482.147 LINE",
"291.235 599.706 LINE SMOOTH",
"291.235 660.353 OFFCURVE",
"332.088 691.441 OFFCURVE",
"408.5 691.441 CURVE SMOOTH",
"449.382 691.441 OFFCURVE",
"488.382 684 OFFCURVE",
"521.059 668.559 CURVE",
"543.441 719.235 LINE",
"503.647 736.353 OFFCURVE",
"462.941 746.029 OFFCURVE",
"412.324 746.029 CURVE SMOOTH"
);
}
);
width = 600;
}
);
unicode = 0066;
},
{
color = 4;
glyphname = g;
lastChange = "2019-03-25 19:36:12 +0000";
layers = (
{
anchors = (
{
name = "bottom ";
position = "{300, -221.412}";
},
{
name = top;
position = "{300.794, 530.882}";
}
);
layerId = "4B7A3BAF-EAD8-4024-9BEA-BB1DE86CFCFA";
paths = (
{
closed = 1;
nodes = (
"477.706 578.382 OFFCURVE",
"410.294 544.824 OFFCURVE",
"291.912 547.735 CURVE SMOOTH",
"153.294 547.735 OFFCURVE",
"54.647 473.676 OFFCURVE",
"54.647 354.029 CURVE SMOOTH",
"54.647 285.059 OFFCURVE",
"81.676 238.088 OFFCURVE",
"149.471 202.206 CURVE",
"111.471 178.176 OFFCURVE",
"89.529 140.294 OFFCURVE",
"89.529 101.441 CURVE SMOOTH",
"89.529 44.559 OFFCURVE",
"138.324 -4.382 OFFCURVE",
"253.676 -4.382 CURVE SMOOTH",
"337.941 -4.382 LINE SMOOTH",
"391.324 -4.382 OFFCURVE",
"415.059 -25.5 OFFCURVE",
"415.059 -57 CURVE SMOOTH",
"415.059 -91.618 OFFCURVE",
"392.294 -117.706 OFFCURVE",
"291.882 -117.706 CURVE SMOOTH",
"191.412 -117.706 OFFCURVE",
"171.206 -97.471 OFFCURVE",
"171.206 -51.059 CURVE",
"30.941 -51.059 LINE",
"30.941 -156.118 OFFCURVE",
"83.971 -221.735 OFFCURVE",
"288 -221.735 CURVE SMOOTH",
"476.235 -221.735 OFFCURVE",
"572.118 -155 OFFCURVE",
"572.118 -46.147 CURVE SMOOTH",
"572.118 42.647 OFFCURVE",
"493.088 107.559 OFFCURVE",
"369.559 107.559 CURVE SMOOTH",
"282.353 107.559 LINE SMOOTH",
"231.265 107.559 OFFCURVE",
"224.029 123.647 OFFCURVE",
"224.029 139.882 CURVE SMOOTH",
"224.029 152.088 OFFCURVE",
"230.176 164.294 OFFCURVE",
"241.294 170.441 CURVE",
"260.382 166.353 OFFCURVE",
"280.412 164.324 OFFCURVE",
"302.765 164.324 CURVE SMOOTH",
"440.412 164.324 OFFCURVE",
"528.029 239.324 OFFCURVE",
"528.029 342.353 CURVE SMOOTH",
"528.029 411.118 OFFCURVE",
"492.176 450.265 OFFCURVE",
"425.324 479.235 CURVE",
"492.118 479.235 OFFCURVE",
"541.147 485.118 OFFCURVE",
"578.353 500.088 CURVE",
"541.647 616.088 LINE"
);
},
{
closed = 1;
nodes = (
"349.441 444.853 OFFCURVE",
"376.765 417.471 OFFCURVE",
"376.765 357.941 CURVE SMOOTH",
"376.765 296.5 OFFCURVE",
"348.441 265.118 OFFCURVE",
"295.853 265.118 CURVE SMOOTH",
"246.853 265.118 OFFCURVE",
"214.647 297.618 OFFCURVE",
"214.647 355.971 CURVE SMOOTH",
"214.647 411.382 OFFCURVE",
"245.853 444.853 OFFCURVE",
"295.794 444.853 CURVE SMOOTH"
);
}
);
width = 600;
},
{
anchors = (
{
name = "bottom ";
position = "{300, -193.176}";
},
{
name = top;
position = "{290.912, 525.235}";
}
);
layerId = "B67F0F2D-EC95-4CB8-966E-23AE86958A69";
paths = (
{
closed = 1;
nodes = (
"463.588 548.735 OFFCURVE",
"424.412 536.353 OFFCURVE",
"287.676 535.029 CURVE SMOOTH",
"167.412 535.029 OFFCURVE",
"85.706 458.147 OFFCURVE",
"85.706 355.441 CURVE SMOOTH",
"85.706 287.882 OFFCURVE",
"114.147 242.324 OFFCURVE",
"172.059 212.088 CURVE",
"134.059 186.647 OFFCURVE",
"114.941 154.412 OFFCURVE",
"114.941 122.618 CURVE SMOOTH",
"114.941 71.382 OFFCURVE",
"153.853 25.265 OFFCURVE",
"238.147 25.265 CURVE SMOOTH",
"335.118 25.265 LINE SMOOTH",
"406.853 25.265 OFFCURVE",
"465.882 -1.5 OFFCURVE",
"465.882 -57 CURVE SMOOTH",
"465.882 -121.265 OFFCURVE",
"406.412 -151.588 OFFCURVE",
"286.235 -151.588 CURVE SMOOTH",
"163.176 -151.588 OFFCURVE",
"133.088 -120.059 OFFCURVE",
"133.088 -53.882 CURVE",
"76.118 -53.882 LINE",
"76.118 -161.765 OFFCURVE",
"130.559 -209.029 OFFCURVE",
"288 -209.029 CURVE SMOOTH",
"439.529 -209.029 OFFCURVE",
"529.765 -155 OFFCURVE",
"529.765 -53.206 CURVE SMOOTH",
"529.765 25.706 OFFCURVE",
"449.324 86.382 OFFCURVE",
"348.382 86.382 CURVE SMOOTH",
"251.294 86.382 LINE SMOOTH",
"195.971 86.382 OFFCURVE",
"177.441 106.706 OFFCURVE",
"177.441 134.235 CURVE SMOOTH",
"177.441 156.324 OFFCURVE",
"190.647 178.412 OFFCURVE",
"207.412 191.618 CURVE",
"230.735 183.294 OFFCURVE",
"252.176 179.853 OFFCURVE",
"291.471 179.853 CURVE SMOOTH",
"412.176 179.853 OFFCURVE",
"481.441 254.853 OFFCURVE",
"481.441 359.294 CURVE SMOOTH",
"481.441 416.765 OFFCURVE",
"452.647 462.971 OFFCURVE",
"392.853 490.529 CURVE",
"449.765 490.529 OFFCURVE",
"500.206 490.765 OFFCURVE",
"547.294 504.324 CURVE",
"524.706 572.324 LINE"
);
},
{
closed = 1;
nodes = (
"370.618 485.794 OFFCURVE",
"413.471 440.059 OFFCURVE",
"413.471 355.118 CURVE SMOOTH",
"413.471 272.5 OFFCURVE",
"369.618 222.765 OFFCURVE",
"288.794 222.765 CURVE SMOOTH",
"191.794 222.765 OFFCURVE",
"149.706 279.265 OFFCURVE",
"149.706 354.559 CURVE SMOOTH",
"149.706 429.735 OFFCURVE",
"190.794 485.794 OFFCURVE",
"285.912 485.794 CURVE SMOOTH"
);
}
);
width = 600;
}
);
unicode = 0067;
},
{
color = 4;
glyphname = h;
lastChange = "2019-03-25 19:36:12 +0000";
layers = (
{
anchors = (
{
name = bottom;
position = "{300, 0}";
},
{
name = center;
position = "{300, 265.941}";
},
{
name = top;
position = "{300, 741.912}";
}
);
layerId = "4B7A3BAF-EAD8-4024-9BEA-BB1DE86CFCFA";
paths = (
{
closed = 1;
nodes = (
"69.824 741.882 LINE",
"69.824 0 LINE",
"227.824 0 LINE",
"227.824 367.441 LINE",
"257.765 407.471 OFFCURVE",
"287.412 432.059 OFFCURVE",
"321.118 432.059 CURVE SMOOTH",
"359.765 432.059 OFFCURVE",
"372.206 409.912 OFFCURVE",
"372.206 345.941 CURVE SMOOTH",
"372.206 0 LINE",
"530.206 0 LINE",
"530.206 389.794 LINE SMOOTH",
"530.206 490.706 OFFCURVE",
"478.382 548.706 OFFCURVE",
"384.147 548.706 CURVE SMOOTH",
"325.059 548.706 OFFCURVE",
"272.735 525.559 OFFCURVE",
"227.824 478.353 CURVE",
"227.824 757.706 LINE"
);
}
);
width = 600;
},
{
anchors = (
{
name = bottom;
position = "{300, 0}";
},
{
name = center;
position = "{300, 263.118}";
},
{
name = top;
position = "{300, 737.676}";
}
);
layerId = "B67F0F2D-EC95-4CB8-966E-23AE86958A69";
paths = (
{
closed = 1;
nodes = (
"109.353 736.235 LINE",
"109.353 0 LINE",
"171.353 0 LINE",
"171.353 388.618 LINE",
"198.471 430.059 OFFCURVE",
"259.176 482.882 OFFCURVE",
"326.765 482.882 CURVE SMOOTH",
"396.471 482.882 OFFCURVE",
"430.088 453.676 OFFCURVE",
"430.088 391.118 CURVE SMOOTH",
"430.088 0 LINE",
"492.088 0 LINE",
"492.088 379.912 LINE SMOOTH",
"492.088 476.588 OFFCURVE",
"448.735 534.588 OFFCURVE",
"343.206 534.588 CURVE SMOOTH",
"279.882 534.588 OFFCURVE",
"212.029 504.382 OFFCURVE",
"171.353 447.294 CURVE",
"171.353 743.588 LINE"
);
}
);
width = 600;
}
);
unicode = 0068;
},
{
color = 4;
glyphname = hbar;
lastChange = "2019-03-25 19:36:12 +0000";
layers = (
{
components = (
{
alignment = -1;
name = h;
}
);
layerId = "4B7A3BAF-EAD8-4024-9BEA-BB1DE86CFCFA";
paths = (
{
closed = 1;
nodes = (
"69.824 685.441 LINE",
"8.294 685.441 LINE",
"8.294 593.118 LINE",
"227.824 593.118 LINE",
"368.588 593.118 LINE",
"368.588 685.441 LINE"
);
}
);
width = 600;
},
{
components = (
{
alignment = -1;
name = h;
}
);
layerId = "B67F0F2D-EC95-4CB8-966E-23AE86958A69";
paths = (
{
closed = 1;
nodes = (
"109.353 658.618 LINE",
"22.412 658.618 LINE",
"22.412 598.765 LINE",
"171.353 598.765 LINE",
"348.824 598.765 LINE",
"348.824 658.618 LINE"
);
}
);
width = 600;
}
);
unicode = 0127;
},
{
color = 7;
glyphname = i;
lastChange = "2019-03-25 19:36:12 +0000";
layers = (
{
anchors = (
{
name = bottom;
position = "{300, 0}";
}
);
layerId = "4B7A3BAF-EAD8-4024-9BEA-BB1DE86CFCFA";
paths = (
{
closed = 1;
nodes = (
"90.941 530.882 LINE",
"90.941 423 LINE",
"236.265 423 LINE",
"236.265 107.882 LINE",
"85.941 107.882 LINE",
"85.941 0 LINE",
"529.618 0 LINE",
"529.618 107.882 LINE",
"394.265 107.882 LINE",
"394.265 530.882 LINE"
);
},
{
closed = 1;
nodes = (
"243.559 809.029 OFFCURVE",
"204.941 770.382 OFFCURVE",
"204.941 719.853 CURVE SMOOTH",
"204.941 669.294 OFFCURVE",
"243.559 630.647 OFFCURVE",
"299.029 630.647 CURVE SMOOTH",
"353.559 630.647 OFFCURVE",
"392.176 669.294 OFFCURVE",
"392.176 719.853 CURVE SMOOTH",
"392.176 770.382 OFFCURVE",
"353.559 809.029 OFFCURVE",
"299.029 809.029 CURVE SMOOTH"
);
}
);
width = 600;
},
{
anchors = (
{
name = bottom;
position = "{300, 0}";
}
);
layerId = "B67F0F2D-EC95-4CB8-966E-23AE86958A69";
paths = (
{
closed = 1;
nodes = (
"136.118 525.235 LINE",
"136.118 471 LINE",
"296.971 471 LINE",
"296.971 54.235 LINE",
"131.118 54.235 LINE",
"131.118 0 LINE",
"511.265 0 LINE",
"511.265 54.235 LINE",
"358.971 54.235 LINE",
"358.971 525.235 LINE"
);
},
{
closed = 1;
nodes = (
"270.382 762.441 OFFCURVE",
"250.118 740.735 OFFCURVE",
"250.118 712.794 CURVE SMOOTH",
"250.118 683.412 OFFCURVE",
"270.382 661.706 OFFCURVE",
"300.441 661.706 CURVE SMOOTH",
"332.382 661.706 OFFCURVE",
"352.647 683.412 OFFCURVE",
"352.647 712.794 CURVE SMOOTH",
"352.647 740.735 OFFCURVE",
"332.382 762.441 OFFCURVE",
"300.441 762.441 CURVE SMOOTH"
);
}
);
width = 600;
}
);
unicode = 0069;
},
{
color = 4;
glyphname = dotlessi;
lastChange = "2019-03-25 19:36:12 +0000";
layers = (
{
anchors = (
{
name = ogonek;
position = "{404.265, 0}";
},
{
name = top;
position = "{299.059, 530.882}";
}
);
layerId = "4B7A3BAF-EAD8-4024-9BEA-BB1DE86CFCFA";
paths = (
{
closed = 1;
nodes = (
"90.941 530.882 LINE",
"90.941 423 LINE",
"236.265 423 LINE",
"236.265 107.882 LINE",
"85.941 107.882 LINE",
"85.941 0 LINE",
"529.618 0 LINE",
"529.618 107.882 LINE",
"394.265 107.882 LINE",
"394.265 530.882 LINE"
);
}
);
width = 600;
},
{
anchors = (
{
name = ogonek;
position = "{368.971, 0}";
},
{
name = top;
position = "{301.882, 525.235}";
}
);
layerId = "B67F0F2D-EC95-4CB8-966E-23AE86958A69";
paths = (
{
closed = 1;
nodes = (
"136.118 525.235 LINE",
"136.118 471 LINE",
"296.971 471 LINE",
"296.971 54.235 LINE",
"131.118 54.235 LINE",
"131.118 0 LINE",
"511.265 0 LINE",
"511.265 54.235 LINE",
"358.971 54.235 LINE",
"358.971 525.235 LINE"
);
}
);
width = 600;
}
);
unicode = 0131;
},
{
color = 4;
glyphname = ij;
lastChange = "2019-03-25 19:36:12 +0000";
layers = (
{
layerId = "4B7A3BAF-EAD8-4024-9BEA-BB1DE86CFCFA";
paths = (
{
closed = 1;
nodes = (
"40.353 530.882 LINE",
"40.353 424.029 LINE",
"104.029 424.029 LINE",
"104.029 107.882 LINE",
"35.353 107.882 LINE",
"35.353 0 LINE",
"312.176 0 LINE",
"312.176 107.882 LINE",
"260 107.882 LINE",
"260 424.029 LINE",
"387.824 424.029 LINE",
"387.824 108.412 LINE SMOOTH",
"387.824 -24 OFFCURVE",
"322.794 -65.206 OFFCURVE",
"192.735 -105.118 CURVE",
"245 -221.735 LINE",
"435.647 -164.059 OFFCURVE",
"544.794 -86.118 OFFCURVE",
"544.794 122.176 CURVE SMOOTH",
"544.794 530.882 LINE"
);
},
{
closed = 1;
nodes = (
"127.559 809.029 OFFCURVE",
"88.941 770.382 OFFCURVE",
"88.941 719.853 CURVE SMOOTH",
"88.941 669.294 OFFCURVE",
"127.559 630.647 OFFCURVE",
"182.059 630.647 CURVE SMOOTH",
"237.529 630.647 OFFCURVE",
"277.147 669.294 OFFCURVE",
"277.147 719.853 CURVE SMOOTH",
"277.147 770.382 OFFCURVE",
"237.529 809.029 OFFCURVE",
"182.059 809.029 CURVE SMOOTH"
);
},
{
closed = 1;
nodes = (
"401.294 809.029 OFFCURVE",
"361.706 770.382 OFFCURVE",
"361.706 719.853 CURVE SMOOTH",
"361.706 669.294 OFFCURVE",
"401.294 630.647 OFFCURVE",
"455.794 630.647 CURVE SMOOTH",
"510.294 630.647 OFFCURVE",
"549.912 669.294 OFFCURVE",
"549.912 719.853 CURVE SMOOTH",
"549.912 770.382 OFFCURVE",
"510.294 809.029 OFFCURVE",
"455.794 809.029 CURVE SMOOTH"
);
}
);
width = 600;
},
{
layerId = "B67F0F2D-EC95-4CB8-966E-23AE86958A69";
paths = (
{
closed = 1;
nodes = (
"57.294 525.235 LINE",
"57.294 473.441 LINE",
"153.441 473.441 LINE",
"153.441 54.235 LINE",
"52.294 54.235 LINE",
"52.294 0 LINE",
"320.647 0 LINE",
"320.647 54.235 LINE",
"212 54.235 LINE",
"212 473.441 LINE",
"427.353 473.441 LINE",
"427.353 32.176 LINE SMOOTH",
"427.353 -72 OFFCURVE",
"312.912 -123.088 OFFCURVE",
"228.029 -158.765 CURVE",
"245 -209.029 LINE",
"370.706 -166.882 OFFCURVE",
"486.912 -91.765 OFFCURVE",
"486.912 34.647 CURVE SMOOTH",
"486.912 525.235 LINE"
);
},
{
closed = 1;
nodes = (
"154.382 762.441 OFFCURVE",
"134.118 740.735 OFFCURVE",
"134.118 712.794 CURVE SMOOTH",
"134.118 683.412 OFFCURVE",
"154.382 661.706 OFFCURVE",
"184.882 661.706 CURVE SMOOTH",
"214.941 661.706 OFFCURVE",
"236.206 683.412 OFFCURVE",
"236.206 712.794 CURVE SMOOTH",
"236.206 740.735 OFFCURVE",
"214.941 762.441 OFFCURVE",
"184.882 762.441 CURVE SMOOTH"
);
},
{
closed = 1;
nodes = (
"415.412 762.441 OFFCURVE",
"395.588 740.735 OFFCURVE",
"395.588 712.794 CURVE SMOOTH",
"395.588 683.412 OFFCURVE",
"415.412 661.706 OFFCURVE",
"445.912 661.706 CURVE SMOOTH",
"476.412 661.706 OFFCURVE",
"497.676 683.412 OFFCURVE",
"497.676 712.794 CURVE SMOOTH",
"497.676 740.735 OFFCURVE",
"476.412 762.441 OFFCURVE",
"445.912 762.441 CURVE SMOOTH"
);
}
);
width = 600;
}
);
unicode = 0133;
},
{
color = 7;
glyphname = j;
lastChange = "2019-03-25 19:36:12 +0000";
layers = (
{
anchors = (
{
name = "bottom ";
position = "{300, -221.412}";
},
{
name = top;
position = "{369.941, 530.882}";
}
);
layerId = "4B7A3BAF-EAD8-4024-9BEA-BB1DE86CFCFA";
paths = (
{
closed = 1;
nodes = (
"123.5 530.882 LINE",
"123.5 423 LINE",
"314.265 423 LINE",
"314.265 144.235 LINE SMOOTH",
"314.265 -10.412 OFFCURVE",
"230.559 -64.529 OFFCURVE",
"69.706 -101.235 CURVE",
"94.412 -221.735 LINE",
"342.441 -173.088 OFFCURVE",
"472.265 -76.412 OFFCURVE",
"472.265 154.118 CURVE SMOOTH",
"472.265 530.882 LINE"
);
},
{
closed = 1;
nodes = (
"314.441 809.029 OFFCURVE",
"275.824 770.382 OFFCURVE",
"275.824 719.853 CURVE SMOOTH",
"275.824 669.294 OFFCURVE",
"314.441 630.647 OFFCURVE",
"369.912 630.647 CURVE SMOOTH",
"424.441 630.647 OFFCURVE",
"463.059 669.294 OFFCURVE",
"463.059 719.853 CURVE SMOOTH",
"463.059 770.382 OFFCURVE",
"424.441 809.029 OFFCURVE",
"369.912 809.029 CURVE SMOOTH"
);
}
);
width = 600;
},
{
anchors = (
{
name = "bottom ";
position = "{300, -193.176}";
},
{
name = top;
position = "{367.118, 525.235}";
}
);
layerId = "B67F0F2D-EC95-4CB8-966E-23AE86958A69";
paths = (
{
closed = 1;
nodes = (
"147.5 525.235 LINE",
"147.5 471 LINE",
"374.971 471 LINE",
"374.971 59.529 LINE SMOOTH",
"374.971 -78.176 OFFCURVE",
"257.382 -137.941 OFFCURVE",
"103.588 -160.529 CURVE",
"114.176 -209.029 LINE",
"315.618 -177.324 OFFCURVE",
"436.971 -96.176 OFFCURVE",
"436.971 63.765 CURVE SMOOTH",
"436.971 525.235 LINE"
);
},
{
closed = 1;
nodes = (
"335.618 762.441 OFFCURVE",
"315.353 740.735 OFFCURVE",
"315.353 712.794 CURVE SMOOTH",
"315.353 683.412 OFFCURVE",
"335.618 661.706 OFFCURVE",
"365.676 661.706 CURVE SMOOTH",
"397.618 661.706 OFFCURVE",
"417.882 683.412 OFFCURVE",
"417.882 712.794 CURVE SMOOTH",
"417.882 740.735 OFFCURVE",
"397.618 762.441 OFFCURVE",
"365.676 762.441 CURVE SMOOTH"
);
}
);
width = 600;
}
);
unicode = 006A;
},
{
color = 4;
glyphname = dotlessj;
lastChange = "2019-03-25 19:36:12 +0000";
layers = (
{
anchors = (
{
name = top;
position = "{369.941, 530.882}";
}
);
layerId = "4B7A3BAF-EAD8-4024-9BEA-BB1DE86CFCFA";
paths = (
{
closed = 1;
nodes = (
"123.5 530.882 LINE",
"123.5 423 LINE",
"314.265 423 LINE",
"314.265 144.235 LINE SMOOTH",
"314.265 -10.412 OFFCURVE",
"230.559 -64.529 OFFCURVE",
"69.706 -101.235 CURVE",
"94.412 -221.735 LINE",
"342.441 -173.088 OFFCURVE",
"472.265 -76.412 OFFCURVE",
"472.265 154.118 CURVE SMOOTH",
"472.265 530.882 LINE"
);
}
);
width = 600;
},
{
anchors = (
{
name = top;
position = "{367.118, 525.235}";
}
);
layerId = "B67F0F2D-EC95-4CB8-966E-23AE86958A69";
paths = (
{
closed = 1;
nodes = (
"147.5 525.235 LINE",
"147.5 471 LINE",
"374.971 471 LINE",
"374.971 59.529 LINE SMOOTH",
"374.971 -78.176 OFFCURVE",
"257.382 -137.941 OFFCURVE",
"103.588 -160.529 CURVE",
"114.176 -209.029 LINE",
"315.618 -177.324 OFFCURVE",
"436.971 -96.176 OFFCURVE",
"436.971 63.765 CURVE SMOOTH",
"436.971 525.235 LINE"
);
}
);
width = 600;
}
);
unicode = 0237;
},
{
color = 4;
glyphname = k;
lastChange = "2019-03-25 19:36:12 +0000";
layers = (
{
anchors = (
{
name = bottom;
position = "{300.147, 0}";
},
{
name = top;
position = "{300, 741.912}";
}
);
layerId = "4B7A3BAF-EAD8-4024-9BEA-BB1DE86CFCFA";
paths = (
{
closed = 1;
nodes = (
"408.647 530.882 LINE",
"234.059 290.912 LINE",
"408.353 0 LINE",
"588.471 0 LINE",
"399.441 295.824 LINE",
"574.118 530.882 LINE"
);
},
{
closed = 1;
nodes = (
"69.971 741.912 LINE",
"69.971 0 LINE",
"227.971 0 LINE",
"227.971 758.735 LINE"
);
}
);
width = 600;
},
{
anchors = (
{
name = bottom;
position = "{307.206, 0}";
},
{
name = top;
position = "{300, 737.676}";
}
);
layerId = "B67F0F2D-EC95-4CB8-966E-23AE86958A69";
paths = (
{
closed = 1;
nodes = (
"439.706 525.235 LINE",
"188.882 286.676 LINE",
"473.294 0 LINE",
"563.059 0 LINE",
"276.618 287.353 LINE",
"531.765 525.235 LINE"
);
},
{
closed = 1;
nodes = (
"116.559 737.676 LINE",
"116.559 0 LINE",
"178.559 0 LINE",
"178.559 746.029 LINE"
);
}
);
width = 600;
}
);
unicode = 006B;
},
{
color = 4;
glyphname = kgreenlandic;
lastChange = "2019-03-25 19:36:12 +0000";
layers = (
{
anchors = (
{
name = bottom;
position = "{300, 0}";
},
{
name = top;
position = "{300, 530.882}";
}
);
layerId = "4B7A3BAF-EAD8-4024-9BEA-BB1DE86CFCFA";
paths = (
{
closed = 1;
nodes = (
"408.5 530.882 LINE",
"233.912 276.176 LINE",
"408.206 0 LINE",
"588.324 0 LINE",
"398.265 287.029 LINE",
"573.971 530.882 LINE"
);
},
{
closed = 1;
nodes = (
"69.824 530.882 LINE",
"69.824 0 LINE",
"227.824 0 LINE",
"227.824 530.882 LINE"
);
}
);
width = 600;
},
{
anchors = (
{
name = bottom;
position = "{300, 0}";
},
{
name = top;
position = "{300, 525.235}";
}
);
layerId = "B67F0F2D-EC95-4CB8-966E-23AE86958A69";
paths = (
{
closed = 1;
nodes = (
"432.5 525.235 LINE",
"181.676 284.647 LINE",
"466.088 0 LINE",
"555.853 0 LINE",
"266.971 288.441 LINE",
"524.559 525.235 LINE"
);
},
{
closed = 1;
nodes = (
"109.353 525.235 LINE",
"109.353 0 LINE",
"171.353 0 LINE",
"171.353 525.235 LINE"
);
}
);
width = 600;
}
);
unicode = 0138;
},
{
color = 4;
glyphname = l;
lastChange = "2019-03-25 19:36:12 +0000";
layers = (
{
anchors = (
{
name = bottom;
position = "{355.147, 0}";
},
{
name = center;
position = "{567.794, 383}";
},
{
name = top;
position = "{256.235, 741.912}";
},
{
name = topright;
position = "{377.176, 741.912}";
}
);
layerId = "4B7A3BAF-EAD8-4024-9BEA-BB1DE86CFCFA";
paths = (
{
closed = 1;
nodes = (
"32.735 741.912 LINE",
"32.735 634.029 LINE",
"188.882 634.029 LINE",
"188.882 186.588 LINE SMOOTH",
"188.882 62.471 OFFCURVE",
"247.029 -16.853 OFFCURVE",
"375.088 -16.853 CURVE SMOOTH",
"442.706 -16.853 OFFCURVE",
"492.529 -0.941 OFFCURVE",
"528.324 17.941 CURVE",
"490.735 123.735 LINE",
"468.559 114.676 OFFCURVE",
"442.5 107.676 OFFCURVE",
"415.382 107.676 CURVE SMOOTH",
"373.147 107.676 OFFCURVE",
"346.882 123.765 OFFCURVE",
"346.882 167 CURVE SMOOTH",
"346.882 741.912 LINE"
);
}
);
width = 600;
},
{
anchors = (
{
name = bottom;
position = "{362.206, 0}";
},
{
name = center;
position = "{557.912, 383}";
},
{
name = top;
position = "{267.529, 737.676}";
},
{
name = topright;
position = "{337.647, 737.676}";
}
);
layerId = "B67F0F2D-EC95-4CB8-966E-23AE86958A69";
paths = (
{
closed = 1;
nodes = (
"68.029 737.676 LINE",
"68.029 683.441 LINE",
"231.235 683.441 LINE",
"231.235 118.824 LINE SMOOTH",
"231.235 37.059 OFFCURVE",
"296.441 -9.794 OFFCURVE",
"379.324 -9.794 CURVE SMOOTH",
"428.588 -9.794 OFFCURVE",
"469.941 1.882 OFFCURVE",
"495.853 15.118 CURVE",
"478.029 63.029 LINE",
"447.382 51.147 OFFCURVE",
"418.5 44.147 OFFCURVE",
"385.735 44.147 CURVE SMOOTH",
"332.206 44.147 OFFCURVE",
"293.235 64.471 OFFCURVE",
"293.235 119 CURVE SMOOTH",
"293.235 737.676 LINE"
);
}
);
width = 600;
}
);
unicode = 006C;
},
{
color = 4;
glyphname = lslash;
lastChange = "2019-03-25 19:36:12 +0000";
layers = (
{
components = (
{
alignment = -1;
name = l;
}
);
layerId = "4B7A3BAF-EAD8-4024-9BEA-BB1DE86CFCFA";
paths = (
{
closed = 1;
nodes = (
"88.794 319 LINE",
"144.265 230.912 LINE",
"346.882 354.088 LINE",
"468 428.176 LINE",
"411.559 517.235 LINE",
"188.882 380.029 LINE"
);
}
);
width = 600;
},
{
components = (
{
alignment = -1;
name = l;
}
);
layerId = "B67F0F2D-EC95-4CB8-966E-23AE86958A69";
paths = (
{
closed = 1;
nodes = (
"126.912 319 LINE",
"156.971 274.676 LINE",
"293.235 358.324 LINE",
"420 436.647 LINE",
"390.382 480.529 LINE",
"231.235 381.441 LINE"
);
}
);
width = 600;
}
);
unicode = 0142;
},
{
color = 4;
glyphname = m;
lastChange = "2019-03-25 19:36:12 +0000";
layers = (
{
anchors = (
{
name = bottom;
position = "{300, 0}";
},
{
name = top;
position = "{300, 530.882}";
}
);
layerId = "4B7A3BAF-EAD8-4024-9BEA-BB1DE86CFCFA";
paths = (
{
closed = 1;
nodes = (
"415.412 548.706 OFFCURVE",
"377.529 522.647 OFFCURVE",
"345.618 485.529 CURVE",
"333.5 528.824 OFFCURVE",
"304.235 548.706 OFFCURVE",
"264.235 548.706 CURVE SMOOTH",
"217.088 548.706 OFFCURVE",
"186.029 524.5 OFFCURVE",
"153.147 479.618 CURVE",
"142.294 530.882 LINE",
"26.647 530.882 LINE",
"26.647 0 LINE",
"164.029 0 LINE",
"164.029 391.471 LINE",
"185.235 417.971 OFFCURVE",
"202.588 426.235 OFFCURVE",
"219.029 426.235 CURVE SMOOTH",
"240.471 426.235 OFFCURVE",
"245.412 411.882 OFFCURVE",
"245.412 375.088 CURVE SMOOTH",
"245.412 0 LINE",
"356.529 0 LINE",
"356.529 391.471 LINE",
"377.735 417.971 OFFCURVE",
"395.118 426.235 OFFCURVE",
"411.529 426.235 CURVE SMOOTH",
"432.971 426.235 OFFCURVE",
"437.912 411.882 OFFCURVE",
"437.912 375.088 CURVE SMOOTH",
"437.912 0 LINE",
"573.353 0 LINE",
"573.353 392.971 LINE SMOOTH",
"573.353 502.294 OFFCURVE",
"537.912 548.706 OFFCURVE",
"462.588 548.706 CURVE SMOOTH"
);
}
);
width = 600;
},
{
anchors = (
{
name = bottom;
position = "{300, 0}";
},
{
name = top;
position = "{300, 525.235}";
}
);
layerId = "B67F0F2D-EC95-4CB8-966E-23AE86958A69";
paths = (
{
closed = 1;
nodes = (
"387.176 534.588 OFFCURVE",
"354.941 505.706 OFFCURVE",
"327.265 462.941 CURVE",
"309.5 520.353 OFFCURVE",
"267.529 534.588 OFFCURVE",
"227.529 534.588 CURVE SMOOTH",
"173.324 534.588 OFFCURVE",
"139.441 500.5 OFFCURVE",
"112.206 461.265 CURVE",
"108.412 525.235 LINE",
"57.706 525.235 LINE",
"57.706 0 LINE",
"117.441 0 LINE",
"117.441 414.059 LINE",
"148.529 464.559 OFFCURVE",
"182.824 485.529 OFFCURVE",
"220.441 485.529 CURVE SMOOTH",
"263.059 485.529 OFFCURVE",
"265.176 454.235 OFFCURVE",
"265.176 379.324 CURVE SMOOTH",
"265.176 0 LINE",
"333.941 0 LINE",
"333.941 414.059 LINE",
"365.029 464.559 OFFCURVE",
"400.765 485.529 OFFCURVE",
"436.941 485.529 CURVE SMOOTH",
"479.559 485.529 OFFCURVE",
"481.676 454.235 OFFCURVE",
"481.676 379.324 CURVE SMOOTH",
"481.676 0 LINE",
"542.294 0 LINE",
"542.294 391.559 LINE SMOOTH",
"542.294 516.412 OFFCURVE",
"485.676 534.588 OFFCURVE",
"442.824 534.588 CURVE SMOOTH"
);
}
);
width = 600;
}
);
unicode = 006D;
},
{
color = 4;
glyphname = n;
lastChange = "2019-03-25 19:36:12 +0000";
layers = (
{
anchors = (
{
name = bottom;
position = "{301, 0}";
},
{
name = top;
position = "{300.971, 530.882}";
}
);
layerId = "4B7A3BAF-EAD8-4024-9BEA-BB1DE86CFCFA";
paths = (
{
closed = 1;
nodes = (
"227.824 0 LINE",
"227.824 371.324 LINE",
"257.765 409.412 OFFCURVE",
"287.382 432.059 OFFCURVE",
"321.147 432.059 CURVE SMOOTH",
"360.235 432.059 OFFCURVE",
"372.206 409.5 OFFCURVE",
"372.206 344.353 CURVE SMOOTH",
"372.206 0 LINE",
"530.206 0 LINE",
"530.206 389.794 LINE SMOOTH",
"530.206 490.706 OFFCURVE",
"474.5 548.706 OFFCURVE",
"384.147 548.706 CURVE SMOOTH",
"316.324 548.706 OFFCURVE",
"265.794 522.588 OFFCURVE",
"218.912 469.559 CURVE",
"208.029 530.882 LINE",
"69.824 530.882 LINE",
"69.824 0 LINE"
);
}
);
width = 600;
},
{
anchors = (
{
name = bottom;
position = "{301, 0}";
},
{
name = top;
position = "{299.559, 525.235}";
}
);
layerId = "B67F0F2D-EC95-4CB8-966E-23AE86958A69";
paths = (
{
closed = 1;
nodes = (
"171.353 0 LINE",
"171.353 386.853 LINE",
"198.471 429.176 OFFCURVE",
"257.735 482.882 OFFCURVE",
"328.206 482.882 CURVE SMOOTH",
"419.529 482.882 OFFCURVE",
"430.088 433.5 OFFCURVE",
"430.088 313.294 CURVE SMOOTH",
"430.088 0 LINE",
"492.088 0 LINE",
"492.088 379.912 LINE SMOOTH",
"492.088 476.588 OFFCURVE",
"450.5 534.588 OFFCURVE",
"343.206 534.588 CURVE SMOOTH",
"283.853 534.588 OFFCURVE",
"207.912 502.824 OFFCURVE",
"166.676 448.382 CURVE",
"161.441 525.235 LINE",
"109.353 525.235 LINE",
"109.353 0 LINE"
);
}
);
width = 600;
}
);
unicode = 006E;
},
{
color = 4;
glyphname = napostrophe;
lastChange = "2019-03-25 19:36:12 +0000";
layers = (
{
components = (
{
alignment = -1;
name = n;
transform = "{1, 0, 0, 1, 19.706, 0}";
}
);
layerId = "4B7A3BAF-EAD8-4024-9BEA-BB1DE86CFCFA";
paths = (
{
closed = 1;
nodes = (
"15.471 763.676 OFFCURVE",
"-17.324 729 OFFCURVE",
"-17.324 689.235 CURVE SMOOTH",
"-17.324 660.529 OFFCURVE",
"-3.441 640.647 OFFCURVE",
"14.441 626.706 CURVE",
"-6.794 534.971 LINE",
"71.441 534.971 LINE",
"112.441 615.147 LINE SMOOTH",
"127.618 644.588 OFFCURVE",
"135.529 663.5 OFFCURVE",
"135.529 689.235 CURVE SMOOTH",
"135.529 731.912 OFFCURVE",
"102.765 763.676 OFFCURVE",
"59.118 763.676 CURVE SMOOTH"
);
}
);
width = 600;
},
{
components = (
{
alignment = -1;
name = n;
transform = "{1, 0, 0, 1, 5.588, 0}";
}
);
layerId = "B67F0F2D-EC95-4CB8-966E-23AE86958A69";
paths = (
{
closed = 1;
nodes = (
"38.059 748.147 OFFCURVE",
"15.147 729 OFFCURVE",
"15.147 700.529 CURVE SMOOTH",
"15.147 685.941 OFFCURVE",
"23.382 671.706 OFFCURVE",
"35.618 660.588 CURVE",
"3.088 533.559 LINE",
"44.618 533.559 LINE",
"85.618 622.206 LINE SMOOTH",
"109.265 672.824 OFFCURVE",
"112.941 687.5 OFFCURVE",
"112.941 700.529 CURVE SMOOTH",
"112.941 727.676 OFFCURVE",
"91.471 748.147 OFFCURVE",
"64.765 748.147 CURVE SMOOTH"
);
}
);
width = 600;
}
);
unicode = 0149;
},
{
color = 4;
glyphname = eng;
lastChange = "2019-03-25 19:36:12 +0000";
layers = (
{
layerId = "4B7A3BAF-EAD8-4024-9BEA-BB1DE86CFCFA";
paths = (
{
closed = 1;
nodes = (
"530.206 389.794 LINE SMOOTH",
"530.206 490.706 OFFCURVE",
"478.382 548.706 OFFCURVE",
"384.147 548.706 CURVE SMOOTH",
"321.176 548.706 OFFCURVE",
"265.794 522.588 OFFCURVE",
"218.912 469.559 CURVE",
"208.029 530.882 LINE",
"69.824 530.882 LINE",
"69.824 0 LINE",
"227.824 0 LINE",
"227.824 367.441 LINE",
"257.765 407.471 OFFCURVE",
"287.412 432.059 OFFCURVE",
"321.118 432.059 CURVE SMOOTH",
"361.235 432.059 OFFCURVE",
"372.206 409.5 OFFCURVE",
"372.206 344.353 CURVE SMOOTH",
"372.206 50.265 LINE SMOOTH",
"372.206 -46.235 OFFCURVE",
"332.382 -76.118 OFFCURVE",
"263.382 -106.176 CURVE",
"318.735 -221.706 LINE",
"446.088 -169.853 OFFCURVE",
"530.206 -114.176 OFFCURVE",
"530.206 60.147 CURVE SMOOTH"
);
}
);
width = 600;
},
{
layerId = "B67F0F2D-EC95-4CB8-966E-23AE86958A69";
paths = (
{
closed = 1;
nodes = (
"492.088 379.912 LINE SMOOTH",
"492.088 476.588 OFFCURVE",
"448.735 534.588 OFFCURVE",
"343.206 534.588 CURVE SMOOTH",
"281.647 534.588 OFFCURVE",
"207.912 502.824 OFFCURVE",
"166.676 448.382 CURVE",
"161.441 525.235 LINE",
"109.353 525.235 LINE",
"109.353 0 LINE",
"171.353 0 LINE",
"171.353 388.618 LINE",
"198.471 430.059 OFFCURVE",
"259.176 482.882 OFFCURVE",
"326.765 482.882 CURVE SMOOTH",
"420.529 482.882 OFFCURVE",
"430.088 433.5 OFFCURVE",
"430.088 313.294 CURVE SMOOTH",
"430.088 14.971 LINE SMOOTH",
"430.088 -105.529 OFFCURVE",
"398.735 -129.765 OFFCURVE",
"329.735 -162.647 CURVE",
"354.029 -207.588 LINE",
"450.324 -162.794 OFFCURVE",
"492.088 -122.647 OFFCURVE",
"492.088 19.206 CURVE SMOOTH"
);
}
);
width = 600;
}
);
unicode = 014B;
},
{
color = 4;
glyphname = o;
lastChange = "2019-03-25 19:36:12 +0000";
layers = (
{
anchors = (
{
name = bottom;
position = "{300, 0}";
},
{
name = top;
position = "{300, 530.882}";
}
);
layerId = "4B7A3BAF-EAD8-4024-9BEA-BB1DE86CFCFA";
paths = (
{
closed = 1;
nodes = (
"137.412 548.706 OFFCURVE",
"41.853 434.735 OFFCURVE",
"41.853 265.912 CURVE SMOOTH",
"41.853 87.265 OFFCURVE",
"137.382 -16.853 OFFCURVE",
"300 -16.853 CURVE SMOOTH",
"462.588 -16.853 OFFCURVE",
"558.147 89.353 OFFCURVE",
"558.147 266.912 CURVE SMOOTH",
"558.147 436.824 OFFCURVE",
"463.618 548.706 OFFCURVE",
"300.029 548.706 CURVE SMOOTH"
);
},
{
closed = 1;
nodes = (
"364.706 432 OFFCURVE",
"395.118 381.588 OFFCURVE",
"395.118 266.912 CURVE SMOOTH",
"395.118 148.324 OFFCURVE",
"364.706 98.882 OFFCURVE",
"300 98.882 CURVE SMOOTH",
"235.294 98.882 OFFCURVE",
"204.882 148.324 OFFCURVE",
"204.882 265.912 CURVE SMOOTH",
"204.882 381.588 OFFCURVE",
"235.324 432 OFFCURVE",
"300.029 432 CURVE SMOOTH"
);
}
);
width = 600;
},
{
anchors = (
{
name = bottom;
position = "{300, 0}";
},
{
name = top;
position = "{300, 525.235}";
}
);
layerId = "B67F0F2D-EC95-4CB8-966E-23AE86958A69";
paths = (
{
closed = 1;
nodes = (
"157.176 534.588 OFFCURVE",
"82.794 422.029 OFFCURVE",
"82.794 261.676 CURVE SMOOTH",
"82.794 99.971 OFFCURVE",
"155.735 -9.794 OFFCURVE",
"300 -9.794 CURVE SMOOTH",
"442.824 -9.794 OFFCURVE",
"517.206 106.294 OFFCURVE",
"517.206 262.676 CURVE SMOOTH",
"517.206 428.353 OFFCURVE",
"445.265 534.588 OFFCURVE",
"301.441 534.588 CURVE SMOOTH"
);
},
{
closed = 1;
nodes = (
"398.588 480 OFFCURVE",
"448.765 409.824 OFFCURVE",
"448.765 262.676 CURVE SMOOTH",
"448.765 115.853 OFFCURVE",
"398.588 45.235 OFFCURVE",
"300 45.235 CURVE SMOOTH",
"201.412 45.235 OFFCURVE",
"151.235 115.853 OFFCURVE",
"151.235 261.676 CURVE SMOOTH",
"151.235 409.824 OFFCURVE",
"202.853 480 OFFCURVE",
"301.441 480 CURVE SMOOTH"
);
}
);
width = 600;
}
);
unicode = 006F;
},
{
color = 4;
glyphname = oslash;
lastChange = "2019-03-25 19:36:12 +0000";
layers = (
{
anchors = (
{
name = top;
position = "{300, 530.882}";
}
);
layerId = "4B7A3BAF-EAD8-4024-9BEA-BB1DE86CFCFA";
paths = (
{
closed = 1;
nodes = (
"137.412 548.706 OFFCURVE",
"41.853 434.735 OFFCURVE",
"41.853 265.912 CURVE SMOOTH",
"41.853 87.265 OFFCURVE",
"137.529 -16.853 OFFCURVE",
"300 -16.853 CURVE SMOOTH",
"462.588 -16.853 OFFCURVE",
"558.147 89.353 OFFCURVE",
"558.147 266.912 CURVE SMOOTH",
"558.147 436.824 OFFCURVE",
"463.471 548.706 OFFCURVE",
"300.029 548.706 CURVE SMOOTH"
);
},
{
closed = 1;
nodes = (
"328.529 538.706 LINE",
"321.5 451.912 LINE",
"215.941 121.794 LINE",
"160.765 32.941 LINE",
"115.735 -103.176 LINE",
"231.5 -136.824 LINE",
"271.471 -6.794 LINE",
"280.588 78.382 LINE",
"384.206 402.647 LINE",
"441.265 499.029 LINE",
"484.294 629.118 LINE",
"369.5 662.765 LINE"
);
},
{
closed = 1;
nodes = (
"377.324 434.912 OFFCURVE",
"398.029 394.5 OFFCURVE",
"398.029 266.912 CURVE SMOOTH",
"398.029 145.412 OFFCURVE",
"367.618 95.971 OFFCURVE",
"300 95.971 CURVE SMOOTH",
"222.676 95.971 OFFCURVE",
"201.971 135.412 OFFCURVE",
"201.971 265.912 CURVE SMOOTH",
"201.971 384.5 OFFCURVE",
"232.412 434.912 OFFCURVE",
"300.029 434.912 CURVE SMOOTH"
);
}
);
width = 600;
},
{
anchors = (
{
name = top;
position = "{300, 525.235}";
}
);
layerId = "B67F0F2D-EC95-4CB8-966E-23AE86958A69";
paths = (
{
closed = 1;
nodes = (
"157.176 534.588 OFFCURVE",
"82.794 422.029 OFFCURVE",
"82.794 261.676 CURVE SMOOTH",
"82.794 99.971 OFFCURVE",
"162.941 -9.794 OFFCURVE",
"300 -9.794 CURVE SMOOTH",
"442.824 -9.794 OFFCURVE",
"517.206 106.294 OFFCURVE",
"517.206 262.676 CURVE SMOOTH",
"517.206 428.353 OFFCURVE",
"438.059 534.588 OFFCURVE",
"301.441 534.588 CURVE SMOOTH"
);
},
{
closed = 1;
nodes = (
"353.941 524.588 LINE",
"345.5 495.676 LINE",
"213.118 63.912 LINE",
"197.471 30.118 LINE",
"151.029 -111.647 LINE",
"207.5 -128.353 LINE",
"246.059 3.088 LINE",
"260.824 48.735 LINE",
"394.088 481.706 LINE",
"405.971 500.441 LINE",
"450.412 634.765 LINE",
"393.5 651.471 LINE"
);
},
{
closed = 1;
nodes = (
"392.853 478.676 OFFCURVE",
"447.441 418.5 OFFCURVE",
"447.441 262.676 CURVE SMOOTH",
"447.441 117.176 OFFCURVE",
"397.265 46.559 OFFCURVE",
"300 46.559 CURVE SMOOTH",
"207.147 46.559 OFFCURVE",
"152.559 107.176 OFFCURVE",
"152.559 261.676 CURVE SMOOTH",
"152.559 408.5 OFFCURVE",
"204.176 478.676 OFFCURVE",
"301.441 478.676 CURVE SMOOTH"
);
}
);
width = 600;
}
);
unicode = 00F8;
},
{
color = 4;
glyphname = oe;
lastChange = "2019-03-25 19:36:12 +0000";
layers = (
{
layerId = "4B7A3BAF-EAD8-4024-9BEA-BB1DE86CFCFA";
paths = (
{
closed = 1;
nodes = (
"372.059 548.706 OFFCURVE",
"331.059 514.441 OFFCURVE",
"305.118 465.176 CURVE",
"281.147 517.441 OFFCURVE",
"244.147 548.706 OFFCURVE",
"175.765 548.706 CURVE SMOOTH",
"48 548.706 OFFCURVE",
"-7.853 434.735 OFFCURVE",
"-7.853 265.912 CURVE SMOOTH",
"-7.853 87.265 OFFCURVE",
"49.029 -16.853 OFFCURVE",
"175.765 -16.853 CURVE SMOOTH",
"241.118 -16.853 OFFCURVE",
"278.147 13.441 OFFCURVE",
"302.176 62.735 CURVE",
"334.029 12.353 OFFCURVE",
"384.029 -16.853 OFFCURVE",
"454.118 -16.853 CURVE SMOOTH",
"518.882 -16.853 OFFCURVE",
"566.676 7.059 OFFCURVE",
"605.706 40.029 CURVE",
"546.265 119.441 LINE",
"517.147 98.324 OFFCURVE",
"493.118 87.235 OFFCURVE",
"461.941 87.235 CURVE SMOOTH",
"406.559 87.235 OFFCURVE",
"376.529 129.559 OFFCURVE",
"368.5 226.176 CURVE",
"603.265 226.176 LINE",
"605.235 242.088 OFFCURVE",
"606.235 258.088 OFFCURVE",
"606.235 276.088 CURVE SMOOTH",
"606.235 451.676 OFFCURVE",
"561.118 548.706 OFFCURVE",
"438.294 548.706 CURVE SMOOTH"
);
},
{
closed = 1;
nodes = (
"224.471 432.029 OFFCURVE",
"240.676 387.441 OFFCURVE",
"240.676 266.912 CURVE SMOOTH",
"240.676 138.324 OFFCURVE",
"224.5 98.882 OFFCURVE",
"181.882 98.882 CURVE SMOOTH",
"138.294 98.882 OFFCURVE",
"123.029 140.412 OFFCURVE",
"123.029 265.912 CURVE SMOOTH",
"123.029 387.412 OFFCURVE",
"138.294 432.029 OFFCURVE",
"181.882 432.029 CURVE SMOOTH"
);
},
{
closed = 1;
nodes = (
"475.971 449.5 OFFCURVE",
"486.206 406.088 OFFCURVE",
"487.235 311.647 CURVE",
"367.529 311.647 LINE",
"372.618 416.206 OFFCURVE",
"392.824 449.5 OFFCURVE",
"432.382 449.5 CURVE SMOOTH"
);
}
);
width = 600;
},
{
layerId = "B67F0F2D-EC95-4CB8-966E-23AE86958A69";
paths = (
{
closed = 1;
nodes = (
"374.882 534.588 OFFCURVE",
"333.882 487.618 OFFCURVE",
"310.765 425.647 CURVE",
"288.206 490.618 OFFCURVE",
"251.206 534.588 OFFCURVE",
"164.471 534.588 CURVE SMOOTH",
"48 534.588 OFFCURVE",
"-0.794 422.029 OFFCURVE",
"-0.794 261.676 CURVE SMOOTH",
"-0.794 99.971 OFFCURVE",
"50.441 -9.794 OFFCURVE",
"164.471 -9.794 CURVE SMOOTH",
"246.765 -9.794 OFFCURVE",
"285.206 34.618 OFFCURVE",
"310.647 98.029 CURVE",
"335.441 29.294 OFFCURVE",
"385.441 -9.794 OFFCURVE",
"459.765 -9.794 CURVE SMOOTH",
"513.235 -9.794 OFFCURVE",
"551.147 9.882 OFFCURVE",
"591.588 41.441 CURVE",
"558.971 92.618 LINE",
"524.206 65.853 OFFCURVE",
"498.765 50.529 OFFCURVE",
"459.118 50.529 CURVE SMOOTH",
"385.382 50.529 OFFCURVE",
"353.941 108.382 OFFCURVE",
"344.5 234.647 CURVE",
"615.971 234.647 LINE",
"616.529 246.324 OFFCURVE",
"617.529 262.324 OFFCURVE",
"617.529 280.324 CURVE SMOOTH",
"617.529 436.147 OFFCURVE",
"566.765 534.588 OFFCURVE",
"452.412 534.588 CURVE SMOOTH"
);
},
{
closed = 1;
nodes = (
"247.059 481.441 OFFCURVE",
"273.147 408.618 OFFCURVE",
"273.147 262.676 CURVE SMOOTH",
"273.147 105.853 OFFCURVE",
"248.5 45.235 OFFCURVE",
"176.235 45.235 CURVE SMOOTH",
"104.412 45.235 OFFCURVE",
"76.441 112.176 OFFCURVE",
"76.441 261.676 CURVE SMOOTH",
"76.441 407.176 OFFCURVE",
"104.412 481.441 OFFCURVE",
"176.235 481.441 CURVE SMOOTH"
);
},
{
closed = 1;
nodes = (
"522.559 473.5 OFFCURVE",
"544.088 410.324 OFFCURVE",
"546.529 294.706 CURVE",
"344.941 294.706 LINE",
"354.265 426.088 OFFCURVE",
"384.353 473.5 OFFCURVE",
"450.735 473.5 CURVE SMOOTH"
);
}
);
width = 600;
}
);
unicode = 0153;
},
{
color = 4;
glyphname = p;
lastChange = "2019-03-25 20:26:02 +0000";
layers = (
{
anchors = (
{
name = bottom;
position = "{300, 0}";
},
{
name = "bottom ";
position = "{300, -221.412}";
},
{
name = top;
position = "{300, 530.882}";
}
);
layerId = "4B7A3BAF-EAD8-4024-9BEA-BB1DE86CFCFA";
paths = (
{
closed = 1;
nodes = (
"313.882 548.706 OFFCURVE",
"259.853 526.471 OFFCURVE",
"216.971 471.5 CURVE",
"209.971 530.882 LINE",
"69.824 530.882 LINE",
"69.824 -221.735 LINE",
"227.824 -204.912 LINE",
"227.824 38.294 LINE",
"259.912 2.176 OFFCURVE",
"302.029 -16.853 OFFCURVE",
"354.176 -16.853 CURVE SMOOTH",
"483.382 -16.853 OFFCURVE",
"558.147 103.029 OFFCURVE",
"558.147 266.912 CURVE SMOOTH",
"558.147 439.706 OFFCURVE",
"502.294 548.706 OFFCURVE",
"364.235 548.706 CURVE SMOOTH"
);
},
{
closed = 1;
nodes = (
"364.912 432.029 OFFCURVE",
"395.118 397.118 OFFCURVE",
"395.118 264.971 CURVE SMOOTH",
"395.118 145.412 OFFCURVE",
"361.824 98.912 OFFCURVE",
"305.971 98.912 CURVE SMOOTH",
"272.529 98.912 OFFCURVE",
"249.971 114.176 OFFCURVE",
"227.824 146.412 CURVE",
"227.824 370.412 LINE",
"250.971 408.529 OFFCURVE",
"278.441 432.029 OFFCURVE",
"315.029 432.029 CURVE SMOOTH"
);
}
);
width = 600.02941;
},
{
anchors = (
{
name = bottom;
position = "{300, 0}";
},
{
name = "bottom ";
position = "{300, -193.176}";
},
{
name = top;
position = "{300, 525.235}";
}
);
layerId = "B67F0F2D-EC95-4CB8-966E-23AE86958A69";
paths = (
{
closed = 1;
nodes = (
"260.235 534.588 OFFCURVE",
"204.794 501.059 OFFCURVE",
"167.559 447.5 CURVE",
"160.559 525.235 LINE",
"109.353 525.235 LINE",
"109.353 -209.029 LINE",
"171.353 -200.676 LINE",
"171.353 52.412 LINE",
"207.676 10.647 OFFCURVE",
"255.441 -9.794 OFFCURVE",
"314.647 -9.794 CURVE SMOOTH",
"453.735 -9.794 OFFCURVE",
"517.206 104.441 OFFCURVE",
"517.206 262.676 CURVE SMOOTH",
"517.206 425.588 OFFCURVE",
"468.412 534.588 OFFCURVE",
"327.529 534.588 CURVE SMOOTH"
);
},
{
closed = 1;
nodes = (
"408.676 481.441 OFFCURVE",
"448.765 402.765 OFFCURVE",
"448.765 263.559 CURVE SMOOTH",
"448.765 117.176 OFFCURVE",
"401.353 46.676 OFFCURVE",
"304.559 46.676 CURVE SMOOTH",
"249.941 46.676 OFFCURVE",
"200.559 74.647 OFFCURVE",
"171.353 118.176 CURVE",
"171.353 390.176 LINE",
"201.559 433.941 OFFCURVE",
"251.618 481.441 OFFCURVE",
"316.441 481.441 CURVE SMOOTH"
);
}
);
width = 600;
}
);
leftMetricsKey = b;
unicode = 0070;
},
{
color = 4;
glyphname = thorn;
lastChange = "2019-03-25 19:36:12 +0000";
layers = (
{
anchors = (
{
name = bottom;
position = "{300, -221.412}";
},
{
name = top;
position = "{300, 741.912}";
}
);
layerId = "4B7A3BAF-EAD8-4024-9BEA-BB1DE86CFCFA";
paths = (
{
closed = 1;
nodes = (
"69.824 741.912 LINE",
"69.824 -221.735 LINE",
"227.824 -204.912 LINE",
"227.824 38.294 LINE",
"259.912 2.176 OFFCURVE",
"302.029 -16.853 OFFCURVE",
"354.176 -16.853 CURVE SMOOTH",
"483.382 -16.853 OFFCURVE",
"558.147 103.029 OFFCURVE",
"558.147 266.912 CURVE SMOOTH",
"558.147 439.706 OFFCURVE",
"502.294 548.706 OFFCURVE",
"364.235 548.706 CURVE SMOOTH",
"308.147 548.706 OFFCURVE",
"260 522.676 OFFCURVE",
"227.824 477.559 CURVE",
"227.824 758.735 LINE"
);
},
{
closed = 1;
nodes = (
"364.912 432.029 OFFCURVE",
"395.118 397.118 OFFCURVE",
"395.118 264.971 CURVE SMOOTH",
"395.118 145.412 OFFCURVE",
"361.824 98.912 OFFCURVE",
"305.971 98.912 CURVE SMOOTH",
"272.529 98.912 OFFCURVE",
"249.971 114.176 OFFCURVE",
"227.824 146.412 CURVE",
"227.824 370.412 LINE",
"250.971 408.529 OFFCURVE",
"278.441 432.029 OFFCURVE",
"315.029 432.029 CURVE SMOOTH"
);
}
);
width = 600;
},
{
anchors = (
{
name = bottom;
position = "{300, -193.176}";
},
{
name = top;
position = "{300, 737.676}";
}
);
layerId = "B67F0F2D-EC95-4CB8-966E-23AE86958A69";
paths = (
{
closed = 1;
nodes = (
"109.353 737.676 LINE",
"109.353 -209.029 LINE",
"171.353 -200.676 LINE",
"171.353 52.412 LINE",
"207.676 10.647 OFFCURVE",
"255.441 -9.794 OFFCURVE",
"314.647 -9.794 CURVE SMOOTH",
"453.735 -9.794 OFFCURVE",
"517.206 104.441 OFFCURVE",
"517.206 262.676 CURVE SMOOTH",
"517.206 425.588 OFFCURVE",
"468.412 534.588 OFFCURVE",
"327.529 534.588 CURVE SMOOTH",
"267.206 534.588 OFFCURVE",
"212 507.147 OFFCURVE",
"171.353 456.382 CURVE",
"171.353 746.029 LINE"
);
},
{
closed = 1;
nodes = (
"408.676 481.441 OFFCURVE",
"448.765 402.765 OFFCURVE",
"448.765 263.559 CURVE SMOOTH",
"448.765 117.176 OFFCURVE",
"401.353 46.676 OFFCURVE",
"304.559 46.676 CURVE SMOOTH",
"249.941 46.676 OFFCURVE",
"200.559 74.647 OFFCURVE",
"171.353 118.176 CURVE",
"171.353 390.176 LINE",
"201.559 433.941 OFFCURVE",
"251.618 481.441 OFFCURVE",
"316.441 481.441 CURVE SMOOTH"
);
}
);
width = 600;
}
);
unicode = 00FE;
},
{
color = 4;
glyphname = q;
lastChange = "2019-03-25 19:36:12 +0000";
layers = (
{
anchors = (
{
name = bottom;
position = "{300, 0}";
},
{
name = "bottom ";
position = "{300, -221.412}";
},
{
name = top;
position = "{300, 530.882}";
}
);
layerId = "4B7A3BAF-EAD8-4024-9BEA-BB1DE86CFCFA";
paths = (
{
closed = 1;
nodes = (
"118.676 548.706 OFFCURVE",
"41.853 430.735 OFFCURVE",
"41.853 266.882 CURVE SMOOTH",
"41.853 95.059 OFFCURVE",
"99.706 -16.853 OFFCURVE",
"235.853 -16.853 CURVE SMOOTH",
"298.706 -16.853 OFFCURVE",
"340.971 8.118 OFFCURVE",
"372.176 44.588 CURVE",
"372.176 -204.912 LINE",
"530.176 -221.735 LINE",
"530.176 530.882 LINE",
"391.971 530.882 LINE",
"384.971 488.471 LINE",
"352.882 527.618 OFFCURVE",
"306.824 548.706 OFFCURVE",
"254.529 548.706 CURVE SMOOTH"
);
},
{
closed = 1;
nodes = (
"328.441 433 OFFCURVE",
"351 416.765 OFFCURVE",
"372.176 389.353 CURVE",
"372.176 160.441 LINE",
"350 122.294 OFFCURVE",
"322.559 99.882 OFFCURVE",
"285.971 99.882 CURVE SMOOTH",
"237.088 99.882 OFFCURVE",
"204.882 134.765 OFFCURVE",
"204.882 265.912 CURVE SMOOTH",
"204.882 385.441 OFFCURVE",
"238.176 433 OFFCURVE",
"295.971 433 CURVE SMOOTH"
);
}
);
width = 600;
},
{
anchors = (
{
name = bottom;
position = "{300, 0}";
},
{
name = "bottom ";
position = "{300, -193.176}";
},
{
name = top;
position = "{300, 525.235}";
}
);
layerId = "B67F0F2D-EC95-4CB8-966E-23AE86958A69";
paths = (
{
closed = 1;
nodes = (
"151.147 534.588 OFFCURVE",
"82.794 418.029 OFFCURVE",
"82.794 261.235 CURVE SMOOTH",
"82.794 97.882 OFFCURVE",
"133.588 -9.794 OFFCURVE",
"276.794 -9.794 CURVE SMOOTH",
"332.588 -9.794 OFFCURVE",
"387.559 13.765 OFFCURVE",
"428.647 72.824 CURVE",
"428.647 -200.676 LINE",
"490.647 -209.029 LINE",
"490.647 525.235 LINE",
"438.559 525.235 LINE",
"431.559 463.059 LINE",
"395.235 509.265 OFFCURVE",
"346.353 534.588 OFFCURVE",
"279.941 534.588 CURVE SMOOTH"
);
},
{
closed = 1;
nodes = (
"349.618 481 OFFCURVE",
"399 453.471 OFFCURVE",
"428.647 406.294 CURVE",
"428.647 133.618 LINE",
"398 88.412 OFFCURVE",
"349.382 46.235 OFFCURVE",
"284.559 46.235 CURVE SMOOTH",
"193.324 46.235 OFFCURVE",
"151.235 123.471 OFFCURVE",
"151.235 261.676 CURVE SMOOTH",
"151.235 406.618 OFFCURVE",
"198.647 481 OFFCURVE",
"294.559 481 CURVE SMOOTH"
);
}
);
width = 600;
}
);
unicode = 0071;
},
{
color = 4;
glyphname = r;
lastChange = "2019-03-25 19:36:12 +0000";
layers = (
{
anchors = (
{
name = bottom;
position = "{224.147, 0}";
},
{
name = top;
position = "{325.147, 530.882}";
}
);
layerId = "4B7A3BAF-EAD8-4024-9BEA-BB1DE86CFCFA";
paths = (
{
closed = 1;
nodes = (
"408.206 0 LINE",
"408.206 105.882 LINE",
"303.147 105.882 LINE",
"303.147 257.794 LINE",
"330.353 345.559 OFFCURVE",
"384.441 408.412 OFFCURVE",
"453.765 408.412 CURVE SMOOTH",
"477.735 408.412 OFFCURVE",
"495.676 405.412 OFFCURVE",
"514.765 400.382 CURVE",
"563.118 530.882 LINE",
"538.147 540.794 OFFCURVE",
"511.294 546.765 OFFCURVE",
"475.471 546.765 CURVE SMOOTH",
"390.206 546.765 OFFCURVE",
"332.324 502.618 OFFCURVE",
"294.265 411.735 CURVE",
"265.618 530.882 LINE",
"74.824 530.882 LINE",
"74.824 425.971 LINE",
"145.147 425.971 LINE",
"145.147 105.882 LINE",
"74.824 105.882 LINE",
"74.824 0 LINE"
);
},
{
closed = 1;
nodes = (
"533.588 309.059 LINE",
"563.118 530.882 LINE",
"458 530.882 LINE",
"434.412 463.971 LINE",
"434.412 309.059 LINE"
);
}
);
width = 600;
},
{
anchors = (
{
name = bottom;
position = "{231.206, 0}";
},
{
name = top;
position = "{332.206, 525.235}";
}
);
layerId = "B67F0F2D-EC95-4CB8-966E-23AE86958A69";
paths = (
{
closed = 1;
nodes = (
"370.088 0 LINE",
"370.088 52.235 LINE",
"262.206 52.235 LINE",
"262.206 295.912 LINE",
"299.294 420.382 OFFCURVE",
"357.618 476.176 OFFCURVE",
"442.471 476.176 CURVE SMOOTH",
"465.029 476.176 OFFCURVE",
"480.147 473.176 OFFCURVE",
"503.471 466.735 CURVE",
"520.765 525.235 LINE",
"497.206 530.912 OFFCURVE",
"477.412 535.471 OFFCURVE",
"450.059 535.471 CURVE SMOOTH",
"352.088 535.471 OFFCURVE",
"299.853 484.265 OFFCURVE",
"258.971 399.029 CURVE",
"247.265 525.235 LINE",
"114.353 525.235 LINE",
"114.353 472.559 LINE",
"200.206 472.559 LINE",
"200.206 52.235 LINE",
"114.353 52.235 LINE",
"114.353 0 LINE"
);
},
{
closed = 1;
nodes = (
"513.824 359.882 LINE",
"520.765 525.235 LINE",
"458 525.235 LINE",
"454.176 462.559 LINE",
"454.176 359.882 LINE"
);
}
);
width = 600;
}
);
unicode = 0072;
},
{
color = 4;
glyphname = s;
lastChange = "2019-03-25 19:36:12 +0000";
layers = (
{
anchors = (
{
name = bottom;
position = "{300.882, 0}";
},
{
name = top;
position = "{312.853, 530.882}";
}
);
layerId = "4B7A3BAF-EAD8-4024-9BEA-BB1DE86CFCFA";
paths = (
{
closed = 1;
nodes = (
"220.912 95.971 OFFCURVE",
"167.853 119.941 OFFCURVE",
"126.853 152 CURVE",
"47.706 62.912 LINE",
"102.441 15.147 OFFCURVE",
"181.088 -16.853 OFFCURVE",
"283.882 -16.853 CURVE SMOOTH",
"419.265 -16.853 OFFCURVE",
"535.088 41.765 OFFCURVE",
"535.088 158.647 CURVE SMOOTH",
"535.088 262.5 OFFCURVE",
"468.059 297.529 OFFCURVE",
"365.059 326.5 CURVE SMOOTH",
"261 356.471 OFFCURVE",
"239.676 367.618 OFFCURVE",
"239.676 395.147 CURVE SMOOTH",
"239.676 422.5 OFFCURVE",
"263.853 435.912 OFFCURVE",
"315.706 435.912 CURVE SMOOTH",
"367.147 435.912 OFFCURVE",
"418.971 417.853 OFFCURVE",
"462.853 390.853 CURVE",
"526.147 483.882 LINE",
"474.353 521.735 OFFCURVE",
"405.529 548.706 OFFCURVE",
"310.794 548.706 CURVE SMOOTH",
"161.618 548.706 OFFCURVE",
"80.618 479.088 OFFCURVE",
"80.618 384.265 CURVE SMOOTH",
"80.618 290.324 OFFCURVE",
"147.706 247.588 OFFCURVE",
"245.029 221.559 CURVE SMOOTH",
"351.176 192.588 OFFCURVE",
"371.059 180.235 OFFCURVE",
"371.059 145.882 CURVE SMOOTH",
"371.059 112.412 OFFCURVE",
"335.676 95.971 OFFCURVE",
"282.912 95.971 CURVE SMOOTH"
);
}
);
width = 600;
},
{
anchors = (
{
name = bottom;
position = "{295.235, 0}";
},
{
name = top;
position = "{305.794, 525.235}";
}
);
layerId = "B67F0F2D-EC95-4CB8-966E-23AE86958A69";
paths = (
{
closed = 1;
nodes = (
"216.676 46.559 OFFCURVE",
"160.794 69.118 OFFCURVE",
"119.794 104 CURVE",
"81.588 58.676 LINE",
"123.618 22.206 OFFCURVE",
"185.324 -9.794 OFFCURVE",
"278.235 -9.794 CURVE SMOOTH",
"383.971 -9.794 OFFCURVE",
"491.324 30.471 OFFCURVE",
"491.324 141.706 CURVE SMOOTH",
"491.324 238.5 OFFCURVE",
"422.882 274.941 OFFCURVE",
"319.882 302.5 CURVE SMOOTH",
"213 331.059 OFFCURVE",
"176.147 349.265 OFFCURVE",
"176.147 402.206 CURVE SMOOTH",
"176.147 446.5 OFFCURVE",
"208.794 479.676 OFFCURVE",
"301.588 479.676 CURVE SMOOTH",
"374.206 479.676 OFFCURVE",
"417.559 458.794 OFFCURVE",
"455.794 431.794 CURVE",
"485.206 478.235 LINE",
"443.294 509.029 OFFCURVE",
"382.941 534.588 OFFCURVE",
"300.912 534.588 CURVE SMOOTH",
"191.265 534.588 OFFCURVE",
"110.265 483.324 OFFCURVE",
"110.265 396.971 CURVE SMOOTH",
"110.265 305.853 OFFCURVE",
"181.588 275.824 OFFCURVE",
"294.441 248.382 CURVE SMOOTH",
"407.647 220.824 OFFCURVE",
"421.882 191.529 OFFCURVE",
"421.882 140.235 CURVE SMOOTH",
"421.882 84.176 OFFCURVE",
"368.147 46.559 OFFCURVE",
"278.676 46.559 CURVE SMOOTH"
);
}
);
width = 600;
}
);
unicode = 0073;
},
{
color = 4;
glyphname = germandbls;
lastChange = "2019-03-25 19:36:12 +0000";
layers = (
{
layerId = "4B7A3BAF-EAD8-4024-9BEA-BB1DE86CFCFA";
paths = (
{
closed = 1;
nodes = (
"138.882 758.735 OFFCURVE",
"59.971 674.029 OFFCURVE",
"59.971 531.059 CURVE SMOOTH",
"59.971 0 LINE",
"217.971 0 LINE",
"217.971 538.029 LINE SMOOTH",
"217.971 611.824 OFFCURVE",
"237.559 647.912 OFFCURVE",
"287.235 647.912 CURVE SMOOTH",
"320.294 647.912 OFFCURVE",
"340.353 629.118 OFFCURVE",
"340.353 596.029 CURVE SMOOTH",
"340.353 523.971 OFFCURVE",
"265.235 494.529 OFFCURVE",
"265.235 404.382 CURVE SMOOTH",
"265.235 273.382 OFFCURVE",
"414.559 276.382 OFFCURVE",
"414.559 166.882 CURVE SMOOTH",
"414.559 127.029 OFFCURVE",
"394.971 104.706 OFFCURVE",
"356.206 104.706 CURVE SMOOTH",
"337.912 104.706 OFFCURVE",
"319.5 109.824 OFFCURVE",
"299.382 119.941 CURVE",
"248.824 14.235 LINE",
"283.824 -4.853 OFFCURVE",
"324.824 -16.853 OFFCURVE",
"375.882 -16.853 CURVE SMOOTH",
"491.471 -16.853 OFFCURVE",
"577.471 50.029 OFFCURVE",
"577.471 167.971 CURVE SMOOTH",
"577.471 341.824 OFFCURVE",
"402.765 355.618 OFFCURVE",
"402.765 431.912 CURVE SMOOTH",
"402.765 492.941 OFFCURVE",
"493.382 511.882 OFFCURVE",
"493.382 603.059 CURVE SMOOTH",
"493.382 690 OFFCURVE",
"420.441 758.735 OFFCURVE",
"291.147 758.735 CURVE SMOOTH"
);
}
);
width = 600;
},
{
layerId = "B67F0F2D-EC95-4CB8-966E-23AE86958A69";
paths = (
{
closed = 1;
nodes = (
"181.235 746.029 OFFCURVE",
"106.559 675.441 OFFCURVE",
"106.559 533.882 CURVE SMOOTH",
"106.559 0 LINE",
"168.559 0 LINE",
"168.559 539.441 LINE SMOOTH",
"168.559 651.353 OFFCURVE",
"216.382 691.676 OFFCURVE",
"298.529 691.676 CURVE SMOOTH",
"382.412 691.676 OFFCURVE",
"405.294 634.765 OFFCURVE",
"405.294 597.441 CURVE SMOOTH",
"405.294 522.559 OFFCURVE",
"276.529 519.941 OFFCURVE",
"276.529 422.735 CURVE SMOOTH",
"276.529 291.735 OFFCURVE",
"489.382 294.735 OFFCURVE",
"489.382 161.235 CURVE SMOOTH",
"489.382 80.441 OFFCURVE",
"441.559 42.588 OFFCURVE",
"366.088 42.588 CURVE SMOOTH",
"333.676 42.588 OFFCURVE",
"295.5 53.353 OFFCURVE",
"269.735 69.118 CURVE",
"240.353 25.529 LINE",
"275.353 2.206 OFFCURVE",
"316.353 -9.794 OFFCURVE",
"370.235 -9.794 CURVE SMOOTH",
"466.059 -9.794 OFFCURVE",
"552.059 51.441 OFFCURVE",
"552.059 166.559 CURVE SMOOTH",
"552.059 333.353 OFFCURVE",
"343.471 337.265 OFFCURVE",
"343.471 427.676 CURVE SMOOTH",
"343.471 490.118 OFFCURVE",
"463.735 506.235 OFFCURVE",
"463.735 605.882 CURVE SMOOTH",
"463.735 690 OFFCURVE",
"393.618 746.029 OFFCURVE",
"298.206 746.029 CURVE SMOOTH"
);
}
);
width = 600;
}
);
unicode = 00DF;
},
{
color = 4;
glyphname = t;
lastChange = "2019-03-25 19:36:12 +0000";
layers = (
{
anchors = (
{
name = bottom;
position = "{360.294, 0}";
},
{
name = center;
position = "{300, 265.941}";
},
{
name = top;
position = "{247.853, 652}";
},
{
name = topright;
position = "{354.294, 810.441}";
}
);
layerId = "4B7A3BAF-EAD8-4024-9BEA-BB1DE86CFCFA";
paths = (
{
closed = 1;
nodes = (
"495.735 131.706 LINE",
"470.647 117.676 OFFCURVE",
"439.588 107.676 OFFCURVE",
"402.529 107.676 CURVE SMOOTH",
"350 107.676 OFFCURVE",
"326.853 127.971 OFFCURVE",
"326.853 181.118 CURVE SMOOTH",
"326.853 422.059 LINE",
"482.294 422.059 LINE",
"498.147 530.882 LINE",
"326.853 530.882 LINE",
"326.853 664.765 LINE",
"168.853 646 LINE",
"168.853 530.882 LINE",
"57.588 530.882 LINE",
"57.588 422.059 LINE",
"168.853 422.059 LINE",
"168.853 181.088 LINE SMOOTH",
"168.853 58.882 OFFCURVE",
"234.794 -16.853 OFFCURVE",
"374.088 -16.853 CURVE SMOOTH",
"447.441 -16.853 OFFCURVE",
"506.353 3.971 OFFCURVE",
"548.206 30.882 CURVE"
);
}
);
width = 600;
},
{
anchors = (
{
name = bottom;
position = "{374.412, 0}";
},
{
name = center;
position = "{300, 263.118}";
},
{
name = top;
position = "{240.794, 652}";
},
{
name = topright;
position = "{320.412, 735.618}";
}
);
layerId = "B67F0F2D-EC95-4CB8-966E-23AE86958A69";
paths = (
{
closed = 1;
nodes = (
"483.029 69.588 LINE",
"453.706 54.147 OFFCURVE",
"419.824 44.147 OFFCURVE",
"379.941 44.147 CURVE SMOOTH",
"302 44.147 OFFCURVE",
"271.794 78.559 OFFCURVE",
"271.794 138.765 CURVE SMOOTH",
"271.794 472.882 LINE",
"448.412 472.882 LINE",
"457.206 525.235 LINE",
"271.794 525.235 LINE",
"271.794 653.471 LINE",
"209.794 646 LINE",
"209.794 525.235 LINE",
"85.824 525.235 LINE",
"85.824 472.882 LINE",
"209.794 472.882 LINE",
"209.794 137.324 LINE SMOOTH",
"209.794 53.235 OFFCURVE",
"272.912 -9.794 OFFCURVE",
"378.324 -9.794 CURVE SMOOTH",
"420.618 -9.794 OFFCURVE",
"475.294 2.559 OFFCURVE",
"510.088 25.235 CURVE"
);
}
);
width = 600;
}
);
unicode = 0074;
},
{
color = 4;
glyphname = tbar;
lastChange = "2019-03-25 19:36:12 +0000";
layers = (
{
components = (
{
alignment = -1;
name = t;
}
);
layerId = "4B7A3BAF-EAD8-4024-9BEA-BB1DE86CFCFA";
paths = (
{
closed = 1;
nodes = (
"168.853 360.765 LINE",
"69.559 360.765 LINE",
"69.559 261.706 LINE",
"326.853 261.706 LINE",
"481.353 261.706 LINE",
"481.353 360.765 LINE"
);
}
);
width = 600;
},
{
components = (
{
alignment = -1;
name = t;
}
);
layerId = "B67F0F2D-EC95-4CB8-966E-23AE86958A69";
paths = (
{
closed = 1;
nodes = (
"209.794 349.471 LINE",
"96.382 349.471 LINE",
"96.382 295.588 LINE",
"271.794 295.588 LINE",
"450.294 295.588 LINE",
"450.294 349.471 LINE"
);
}
);
width = 600;
}
);
unicode = 0167;
},
{
color = 4;
glyphname = u;
lastChange = "2019-03-25 19:36:12 +0000";
layers = (
{
anchors = (
{
name = ogonek;
position = "{540.176, 0}";
},
{
name = top;
position = "{300, 530.882}";
}
);
layerId = "4B7A3BAF-EAD8-4024-9BEA-BB1DE86CFCFA";
paths = (
{
closed = 1;
nodes = (
"69.824 530.882 LINE",
"69.824 147.882 LINE SMOOTH",
"69.824 46.971 OFFCURVE",
"118.853 -16.853 OFFCURVE",
"221.824 -16.853 CURVE SMOOTH",
"285.765 -16.853 OFFCURVE",
"348.824 10.206 OFFCURVE",
"384.971 62.235 CURVE",
"391.971 0 LINE",
"530.176 0 LINE",
"530.176 530.882 LINE",
"372.176 530.882 LINE",
"372.176 157.5 LINE",
"350 122.235 OFFCURVE",
"314.441 99.794 OFFCURVE",
"281.765 99.794 CURVE SMOOTH",
"248.029 99.794 OFFCURVE",
"227.824 116.147 OFFCURVE",
"227.824 167.618 CURVE SMOOTH",
"227.824 530.882 LINE"
);
}
);
width = 600;
},
{
anchors = (
{
name = ogonek;
position = "{500.647, 0}";
},
{
name = top;
position = "{300, 525.235}";
}
);
layerId = "B67F0F2D-EC95-4CB8-966E-23AE86958A69";
paths = (
{
closed = 1;
nodes = (
"109.353 525.235 LINE",
"109.353 142.235 LINE SMOOTH",
"109.353 45.559 OFFCURVE",
"159.794 -9.794 OFFCURVE",
"261.353 -9.794 CURVE SMOOTH",
"322.471 -9.794 OFFCURVE",
"388.353 20.088 OFFCURVE",
"431.559 73.529 CURVE",
"438.559 0 LINE",
"490.647 0 LINE",
"490.647 525.235 LINE",
"428.647 525.235 LINE",
"428.647 133.5 LINE",
"398 85.529 OFFCURVE",
"335.618 41.912 OFFCURVE",
"270.471 41.912 CURVE SMOOTH",
"201.441 41.912 OFFCURVE",
"171.353 75.206 OFFCURVE",
"171.353 149.265 CURVE SMOOTH",
"171.353 525.235 LINE"
);
}
);
width = 600;
}
);
unicode = 0075;
},
{
color = 4;
glyphname = v;
lastChange = "2019-03-25 19:36:12 +0000";
layers = (
{
anchors = (
{
name = bottom;
position = "{300, 0}";
},
{
name = top;
position = "{300, 530.882}";
}
);
layerId = "4B7A3BAF-EAD8-4024-9BEA-BB1DE86CFCFA";
paths = (
{
closed = 1;
nodes = (
"411.118 530.882 LINE",
"302.971 120.794 LINE",
"199.647 530.882 LINE",
"28.853 530.882 LINE",
"208.147 0 LINE",
"393.765 0 LINE",
"571.147 530.882 LINE"
);
}
);
width = 600;
},
{
anchors = (
{
name = bottom;
position = "{300, 0}";
},
{
name = top;
position = "{300, 525.235}";
}
);
layerId = "B67F0F2D-EC95-4CB8-966E-23AE86958A69";
paths = (
{
closed = 1;
nodes = (
"464.765 525.235 LINE",
"301.559 62.912 LINE",
"134.706 525.235 LINE",
"69.794 525.235 LINE",
"263.206 0 LINE",
"334.471 0 LINE",
"530.206 525.235 LINE"
);
}
);
width = 600;
}
);
unicode = 0076;
},
{
color = 4;
glyphname = w;
lastChange = "2019-03-25 19:36:12 +0000";
layers = (
{
anchors = (
{
name = bottom;
position = "{300, 0}";
},
{
name = top;
position = "{300, 530.882}";
}
);
layerId = "4B7A3BAF-EAD8-4024-9BEA-BB1DE86CFCFA";
paths = (
{
closed = 1;
nodes = (
"596.618 530.882 LINE",
"457.176 530.882 LINE",
"421.324 98.735 LINE",
"371.529 463.882 LINE",
"238.441 463.882 LINE",
"182.676 98.735 LINE",
"147.794 530.882 LINE",
"3.382 530.882 LINE",
"81.853 0 LINE",
"253.353 0 LINE",
"301.059 356.794 LINE",
"346.676 0 LINE",
"521.176 0 LINE"
);
}
);
width = 600;
},
{
anchors = (
{
name = bottom;
position = "{300, 0}";
},
{
name = top;
position = "{300, 525.235}";
}
);
layerId = "B67F0F2D-EC95-4CB8-966E-23AE86958A69";
paths = (
{
closed = 1;
nodes = (
"578.265 525.235 LINE",
"513.647 525.235 LINE",
"436.853 38.029 LINE",
"348.941 458.235 LINE",
"259.618 458.235 LINE",
"167.147 38.029 LINE",
"89.912 525.235 LINE",
"21.735 525.235 LINE",
"122.794 0 LINE",
"222.294 0 LINE",
"303.882 394.912 LINE",
"379.147 0 LINE",
"481.647 0 LINE"
);
}
);
width = 600;
}
);
unicode = 0077;
},
{
color = 4;
glyphname = x;
lastChange = "2019-03-25 19:36:12 +0000";
layers = (
{
anchors = (
{
name = bottom;
position = "{300, 0}";
},
{
name = bottomright;
position = "{518.235, 0}";
},
{
name = top;
position = "{300, 530.882}";
}
);
layerId = "4B7A3BAF-EAD8-4024-9BEA-BB1DE86CFCFA";
paths = (
{
closed = 1;
nodes = (
"294.088 198.735 LINE",
"399.147 0 LINE",
"578.088 0 LINE",
"394.794 284.912 LINE",
"551.176 530.882 LINE",
"383.118 530.882 LINE",
"301 361.176 LINE",
"216 530.882 LINE",
"39.088 530.882 LINE",
"204.235 278.971 LINE",
"21.912 0 LINE",
"192.882 0 LINE"
);
}
);
width = 600;
},
{
anchors = (
{
name = bottom;
position = "{300, 0}";
},
{
name = bottomright;
position = "{481.529, 0}";
},
{
name = top;
position = "{300, 525.235}";
}
);
layerId = "B67F0F2D-EC95-4CB8-966E-23AE86958A69";
paths = (
{
closed = 1;
nodes = (
"298.324 234.029 LINE",
"454.206 0 LINE",
"534.324 0 LINE",
"336.912 280.676 LINE",
"511.647 525.235 LINE",
"436.765 525.235 LINE",
"301 321.647 LINE",
"168 525.235 LINE",
"91.324 525.235 LINE",
"263.529 277.559 LINE",
"65.676 0 LINE",
"139.235 0 LINE"
);
}
);
width = 600;
}
);
unicode = 0078;
},
{
color = 4;
glyphname = y;
lastChange = "2019-03-25 19:36:12 +0000";
layers = (
{
anchors = (
{
name = "bottom ";
position = "{300, -221.412}";
},
{
name = top;
position = "{300, 530.882}";
}
);
layerId = "4B7A3BAF-EAD8-4024-9BEA-BB1DE86CFCFA";
paths = (
{
closed = 1;
nodes = (
"410.118 530.882 LINE",
"298.118 101 LINE",
"194.824 530.882 LINE",
"27.912 530.882 LINE",
"196.324 0 LINE",
"250.618 0 LINE",
"221.647 -68.353 OFFCURVE",
"183.824 -97.765 OFFCURVE",
"79.706 -110.912 CURVE",
"97.559 -222.706 LINE",
"258.971 -213.559 OFFCURVE",
"348.147 -141.176 OFFCURVE",
"394.882 -0.088 CURVE SMOOTH",
"572.088 530.882 LINE"
);
}
);
width = 600;
},
{
anchors = (
{
name = "bottom ";
position = "{300, -193.176}";
},
{
name = top;
position = "{300, 525.235}";
}
);
layerId = "B67F0F2D-EC95-4CB8-966E-23AE86958A69";
paths = (
{
closed = 1;
nodes = (
"463.765 525.235 LINE",
"303.765 53 LINE",
"138.353 525.235 LINE",
"71.676 525.235 LINE",
"259.853 0 LINE",
"280.265 0 LINE",
"252.706 -85.294 OFFCURVE",
"223.353 -134.471 OFFCURVE",
"113.588 -154.676 CURVE",
"124.382 -208.588 LINE",
"257.559 -192.382 OFFCURVE",
"307.206 -101.647 OFFCURVE",
"341.235 -4.324 CURVE SMOOTH",
"528.324 525.235 LINE"
);
}
);
width = 600;
}
);
unicode = 0079;
},
{
color = 4;
glyphname = z;
lastChange = "2019-03-25 19:36:12 +0000";
layers = (
{
anchors = (
{
name = bottom;
position = "{300, 0}";
},
{
name = top;
position = "{307.088, 530.882}";
}
);
layerId = "4B7A3BAF-EAD8-4024-9BEA-BB1DE86CFCFA";
paths = (
{
closed = 1;
nodes = (
"519.353 420.118 LINE",
"519.353 530.882 LINE",
"93.853 530.882 LINE",
"93.853 412.118 LINE",
"335.588 412.118 LINE",
"71.824 111.706 LINE",
"71.824 0 LINE",
"509.412 0 LINE",
"524.294 119.706 LINE",
"258.559 119.706 LINE"
);
}
);
width = 600;
},
{
anchors = (
{
name = bottom;
position = "{300, 0}";
},
{
name = top;
position = "{311.324, 525.235}";
}
);
layerId = "B67F0F2D-EC95-4CB8-966E-23AE86958A69";
paths = (
{
closed = 1;
nodes = (
"488.294 473.765 LINE",
"488.294 525.235 LINE",
"134.794 525.235 LINE",
"134.794 465.765 LINE",
"411.824 465.765 LINE",
"111.353 49.588 LINE",
"111.353 0 LINE",
"481.176 0 LINE",
"490.412 57.588 LINE",
"189.382 57.588 LINE"
);
}
);
width = 600;
}
);
unicode = 007A;
},
{
color = 8;
glyphname = x.multiply;
lastChange = "2019-03-25 19:36:12 +0000";
layers = (
{
layerId = "4B7A3BAF-EAD8-4024-9BEA-BB1DE86CFCFA";
paths = (
{
closed = 1;
nodes = (
"300 411.118 LINE",
"167.529 544.5 LINE",
"80.441 457.412 LINE",
"214.853 325.971 LINE",
"80.441 192.529 LINE",
"167.529 105.441 LINE",
"300 240.824 LINE",
"432.412 105.441 LINE",
"519.5 192.529 LINE",
"385.147 325.971 LINE",
"519.5 457.412 LINE",
"432.412 544.5 LINE"
);
}
);
width = 600;
},
{
layerId = "B67F0F2D-EC95-4CB8-966E-23AE86958A69";
paths = (
{
closed = 1;
nodes = (
"300 368.765 LINE",
"144.941 520.5 LINE",
"101.618 477.176 LINE",
"255.794 324.559 LINE",
"101.618 169.941 LINE",
"144.941 126.618 LINE",
"300 280.353 LINE",
"452.176 126.618 LINE",
"495.5 169.941 LINE",
"344.206 324.559 LINE",
"495.5 477.176 LINE",
"452.176 520.5 LINE"
);
}
);
width = 600;
}
);
},
{
color = 9;
export = 0;
glyphname = r.001;
lastChange = "2019-03-25 19:36:12 +0000";
layers = (
{
anchors = (
{
name = bottom;
position = "{224.147, 0}";
},
{
name = top;
position = "{324.853, 530.882}";
}
);
layerId = "4B7A3BAF-EAD8-4024-9BEA-BB1DE86CFCFA";
paths = (
{
closed = 1;
nodes = (
"303.147 0 LINE",
"303.147 257.794 LINE",
"330.353 345.559 OFFCURVE",
"384.441 408.412 OFFCURVE",
"453.765 408.412 CURVE SMOOTH",
"477.735 408.412 OFFCURVE",
"495.676 405.412 OFFCURVE",
"514.765 400.382 CURVE",
"563.118 530.882 LINE",
"538.147 540.794 OFFCURVE",
"511.294 546.765 OFFCURVE",
"475.471 546.765 CURVE SMOOTH",
"390.206 546.765 OFFCURVE",
"332.324 502.618 OFFCURVE",
"294.265 411.735 CURVE",
"265.618 530.882 LINE",
"74.824 530.882 LINE",
"74.824 425.971 LINE",
"145.147 425.971 LINE",
"145.147 0 LINE"
);
},
{
closed = 1;
nodes = (
"533.588 309.059 LINE",
"563.118 530.882 LINE",
"458 530.882 LINE",
"434.412 463.971 LINE",
"434.412 309.059 LINE"
);
}
);
width = 600;
},
{
anchors = (
{
name = bottom;
position = "{231.206, 0}";
},
{
name = top;
position = "{317.794, 525.235}";
}
);
layerId = "B67F0F2D-EC95-4CB8-966E-23AE86958A69";
paths = (
{
closed = 1;
nodes = (
"262.206 0 LINE",
"262.206 295.912 LINE",
"299.294 420.382 OFFCURVE",
"357.618 476.176 OFFCURVE",
"442.471 476.176 CURVE SMOOTH",
"465.029 476.176 OFFCURVE",
"480.147 473.176 OFFCURVE",
"503.471 466.735 CURVE",
"520.765 525.235 LINE",
"497.206 530.912 OFFCURVE",
"477.412 535.471 OFFCURVE",
"450.059 535.471 CURVE SMOOTH",
"352.088 535.471 OFFCURVE",
"299.853 484.265 OFFCURVE",
"258.971 399.029 CURVE",
"247.265 525.235 LINE",
"114.353 525.235 LINE",
"114.353 472.559 LINE",
"200.206 472.559 LINE",
"200.206 0 LINE"
);
},
{
closed = 1;
nodes = (
"513.824 359.882 LINE",
"520.765 525.235 LINE",
"458 525.235 LINE",
"454.176 462.559 LINE",
"454.176 359.882 LINE"
);
}
);
width = 600;
}
);
},
{
color = 3;
glyphname = w_w_w.liga;
lastChange = "2019-03-25 19:36:12 +0000";
layers = (
{
anchors = (
{
name = bottom;
position = "{-900, 0}";
},
{
name = top;
position = "{-900, 530.882}";
}
);
layerId = "4B7A3BAF-EAD8-4024-9BEA-BB1DE86CFCFA";
paths = (
{
closed = 1;
nodes = (
"344.235 98.735 LINE",
"288.618 463.882 LINE",
"155.529 463.882 LINE",
"95.588 98.735 LINE",
"26.559 463.882 LINE",
"-106.588 463.882 LINE",
"-163.147 98.735 LINE",
"-234.294 463.882 LINE",
"-361.559 463.882 LINE",
"-432.853 98.735 LINE",
"-489.412 463.882 LINE",
"-622.559 463.882 LINE",
"-691.882 98.735 LINE",
"-751.382 463.882 LINE",
"-884.471 463.882 LINE",
"-940.235 98.735 LINE",
"-975.118 530.882 LINE",
"-1119.529 530.882 LINE",
"-1041.059 0 LINE",
"-869.559 0 LINE",
"-817.971 356.794 LINE",
"-755.853 0 LINE",
"-622.118 0 LINE",
"-557.971 356.794 LINE",
"-495.824 0 LINE",
"-362.176 0 LINE",
"-297.971 356.794 LINE",
"-233.912 0 LINE",
"-100.176 0 LINE",
"-38.118 356.794 LINE",
"25.824 0 LINE",
"159.471 0 LINE",
"222.029 356.794 LINE",
"273.471 0 LINE",
"445.059 0 LINE",
"523.412 530.882 LINE",
"379.118 530.882 LINE"
);
}
);
width = 600;
},
{
anchors = (
{
name = bottom;
position = "{-900, 0}";
},
{
name = top;
position = "{-900, 525.235}";
}
);
layerId = "B67F0F2D-EC95-4CB8-966E-23AE86958A69";
paths = (
{
closed = 1;
nodes = (
"355.529 38.029 LINE",
"270.265 458.235 LINE",
"180.941 458.235 LINE",
"75.824 38.029 LINE",
"5.382 458.235 LINE",
"-86.824 458.235 LINE",
"-170.206 38.029 LINE",
"-248.412 458.235 LINE",
"-340.382 458.235 LINE",
"-425.794 38.029 LINE",
"-509.176 458.235 LINE",
"-601.382 458.235 LINE",
"-686.235 38.029 LINE",
"-769.735 458.235 LINE",
"-859.059 458.235 LINE",
"-951.529 38.029 LINE",
"-1028.765 525.235 LINE",
"-1096.941 525.235 LINE",
"-995.882 0 LINE",
"-896.382 0 LINE",
"-816.559 394.912 LINE",
"-748.794 0 LINE",
"-627.765 0 LINE",
"-556.559 394.912 LINE",
"-487.353 0 LINE",
"-370.647 0 LINE",
"-296.559 394.912 LINE",
"-229.676 0 LINE",
"-108.647 0 LINE",
"-43.765 394.912 LINE",
"17.353 0 LINE",
"134.059 0 LINE",
"223.441 394.912 LINE",
"296.059 0 LINE",
"399.882 0 LINE",
"495.176 525.235 LINE",
"432.765 525.235 LINE"
);
}
);
width = 600;
}
);
},
{
color = 4;
export = 0;
glyphname = fi;
lastChange = "2019-03-25 19:36:12 +0000";
layers = (
{
layerId = "4B7A3BAF-EAD8-4024-9BEA-BB1DE86CFCFA";
paths = (
{
closed = 1;
nodes = (
"591.853 107.882 LINE",
"528.029 107.882 LINE",
"528.029 530.882 LINE",
"238.824 530.882 LINE",
"238.824 568.647 LINE SMOOTH",
"238.824 620.824 OFFCURVE",
"264.147 642.029 OFFCURVE",
"327.471 642.029 CURVE SMOOTH",
"365.529 642.029 OFFCURVE",
"404.529 636 OFFCURVE",
"441.441 621.971 CURVE",
"484.029 724.882 LINE",
"438.147 744.824 OFFCURVE",
"380.5 758.735 OFFCURVE",
"302.088 758.735 CURVE SMOOTH",
"159 758.735 OFFCURVE",
"87.618 679.235 OFFCURVE",
"87.618 574.441 CURVE SMOOTH",
"87.618 530.882 LINE",
"10.265 530.882 LINE",
"10.265 421.059 LINE",
"87.618 421.059 LINE",
"87.618 0 LINE",
"238.824 0 LINE",
"238.824 421.059 LINE",
"375.853 421.059 LINE",
"375.853 107.882 LINE",
"314.971 107.882 LINE",
"314.971 0 LINE",
"591.853 0 LINE"
);
}
);
width = 600;
},
{
layerId = "B67F0F2D-EC95-4CB8-966E-23AE86958A69";
paths = (
{
closed = 1;
nodes = (
"584.794 54.235 LINE",
"481.441 54.235 LINE",
"481.441 525.235 LINE",
"182.353 525.235 LINE",
"182.353 599.706 LINE SMOOTH",
"182.353 660.353 OFFCURVE",
"223.206 691.441 OFFCURVE",
"302.059 691.441 CURVE SMOOTH",
"342.941 691.441 OFFCURVE",
"381.941 684 OFFCURVE",
"414.618 668.559 CURVE",
"437.441 719.235 LINE",
"397.206 736.353 OFFCURVE",
"356.5 746.029 OFFCURVE",
"306.324 746.029 CURVE SMOOTH",
"207 746.029 OFFCURVE",
"117.265 690.529 OFFCURVE",
"117.265 595.618 CURVE SMOOTH",
"117.265 525.235 LINE",
"22.971 525.235 LINE",
"22.971 471.882 LINE",
"117.265 471.882 LINE",
"117.265 0 LINE",
"182.353 0 LINE",
"182.353 471.882 LINE",
"416.794 471.882 LINE",
"416.794 54.235 LINE",
"313.559 54.235 LINE",
"313.559 0 LINE",
"584.794 0 LINE"
);
}
);
width = 600;
}
);
unicode = FB01;
},
{
color = 4;
export = 0;
glyphname = fl;
lastChange = "2019-03-25 19:36:12 +0000";
layers = (
{
layerId = "4B7A3BAF-EAD8-4024-9BEA-BB1DE86CFCFA";
paths = (
{
closed = 1;
nodes = (
"576.059 115.765 LINE",
"564.853 111.676 OFFCURVE",
"551.794 107.676 OFFCURVE",
"539.588 107.676 CURVE SMOOTH",
"517.324 107.676 OFFCURVE",
"503.176 118.765 OFFCURVE",
"503.176 156.029 CURVE SMOOTH",
"503.176 757.706 LINE",
"395.088 741.706 LINE",
"363.118 751.735 OFFCURVE",
"327.294 758.735 OFFCURVE",
"289.294 758.735 CURVE SMOOTH",
"152.029 758.735 OFFCURVE",
"76.765 679.235 OFFCURVE",
"76.765 574.441 CURVE SMOOTH",
"76.765 530.882 LINE",
"6.206 530.882 LINE",
"6.206 421.059 LINE",
"76.765 421.059 LINE",
"76.765 0 LINE",
"228.941 0 LINE",
"228.941 421.059 LINE",
"295.294 421.059 LINE",
"312.118 530.882 LINE",
"228.941 530.882 LINE",
"228.941 568.647 LINE SMOOTH",
"228.941 620.824 OFFCURVE",
"250.382 644.941 OFFCURVE",
"304.971 644.941 CURVE SMOOTH",
"321.294 644.941 OFFCURVE",
"336.647 642.912 OFFCURVE",
"351 638.824 CURVE",
"351 142.324 LINE SMOOTH",
"351 36.735 OFFCURVE",
"406.941 -16.853 OFFCURVE",
"504.206 -16.853 CURVE SMOOTH",
"546.176 -16.853 OFFCURVE",
"579.912 -7.853 OFFCURVE",
"606.853 3.176 CURVE"
);
}
);
width = 600;
},
{
layerId = "B67F0F2D-EC95-4CB8-966E-23AE86958A69";
paths = (
{
closed = 1;
nodes = (
"578.882 56.471 LINE",
"557.794 48.147 OFFCURVE",
"541.912 44.147 OFFCURVE",
"519.824 44.147 CURVE SMOOTH",
"484.853 44.147 OFFCURVE",
"463.647 59.471 OFFCURVE",
"463.647 109.441 CURVE SMOOTH",
"463.647 743.588 LINE",
"399.324 727.588 LINE",
"368.765 739.029 OFFCURVE",
"341.412 746.029 OFFCURVE",
"303.412 746.029 CURVE SMOOTH",
"201.441 746.029 OFFCURVE",
"113.471 690.529 OFFCURVE",
"113.471 595.618 CURVE SMOOTH",
"113.471 525.235 LINE",
"16.088 525.235 LINE",
"16.088 471.882 LINE",
"113.471 471.882 LINE",
"113.471 0 LINE",
"178.118 0 LINE",
"178.118 471.882 LINE",
"309.412 471.882 LINE",
"317.765 525.235 LINE",
"178.118 525.235 LINE",
"178.118 599.706 LINE SMOOTH",
"178.118 660.353 OFFCURVE",
"220.735 690.118 OFFCURVE",
"303.559 690.118 CURVE SMOOTH",
"335.412 690.118 OFFCURVE",
"367.706 686.676 OFFCURVE",
"399 678.353 CURVE",
"399 109.853 LINE SMOOTH",
"399 24.029 OFFCURVE",
"452.118 -9.794 OFFCURVE",
"514.088 -9.794 CURVE SMOOTH",
"554.647 -9.794 OFFCURVE",
"575.676 -0.794 OFFCURVE",
"599.794 11.647 CURVE"
);
}
);
width = 600;
}
);
unicode = FB02;
},
{
color = 4;
glyphname = ordfeminine;
lastChange = "2019-03-25 19:36:12 +0000";
layers = (
{
layerId = "4B7A3BAF-EAD8-4024-9BEA-BB1DE86CFCFA";
paths = (
{
closed = 1;
nodes = (
"245 758.735 OFFCURVE",
"182.294 748.794 OFFCURVE",
"121.353 727.765 CURVE",
"154.088 637.618 LINE",
"201.118 653.647 OFFCURVE",
"246.118 660.647 OFFCURVE",
"271.206 660.647 CURVE SMOOTH",
"330.294 660.647 OFFCURVE",
"353.647 649.353 OFFCURVE",
"353.647 602.118 CURVE SMOOTH",
"353.647 589.647 LINE",
"300.5 589.647 LINE SMOOTH",
"161.588 589.647 OFFCURVE",
"83.5 533.853 OFFCURVE",
"83.5 442.912 CURVE SMOOTH",
"83.5 360.971 OFFCURVE",
"144.5 304.088 OFFCURVE",
"236.471 304.088 CURVE SMOOTH",
"289.412 304.088 OFFCURVE",
"337.471 325.088 OFFCURVE",
"370.471 364.059 CURVE",
"390.324 328.029 OFFCURVE",
"424.147 312 OFFCURVE",
"481.706 306.029 CURVE",
"512.382 394.118 LINE",
"491.353 401.118 OFFCURVE",
"482.294 413.147 OFFCURVE",
"482.294 442.176 CURVE SMOOTH",
"482.294 606.088 LINE SMOOTH",
"482.294 704.765 OFFCURVE",
"429.265 758.735 OFFCURVE",
"290.971 758.735 CURVE SMOOTH"
);
},
{
closed = 1;
nodes = (
"100.147 108.118 LINE",
"100.147 0 LINE",
"513.588 0 LINE",
"513.588 108.118 LINE"
);
},
{
closed = 1;
nodes = (
"353.647 444.412 LINE",
"334.471 415.265 OFFCURVE",
"305.206 397.176 OFFCURVE",
"275.912 397.176 CURVE SMOOTH",
"243.324 397.176 OFFCURVE",
"225.941 414.412 OFFCURVE",
"225.941 447.882 CURVE SMOOTH",
"225.941 488.118 OFFCURVE",
"252.294 507.353 OFFCURVE",
"321.941 507.353 CURVE SMOOTH",
"353.647 507.353 LINE"
);
}
);
width = 600;
},
{
layerId = "B67F0F2D-EC95-4CB8-966E-23AE86958A69";
paths = (
{
closed = 1;
nodes = (
"245 746.029 OFFCURVE",
"196.412 738.912 OFFCURVE",
"138.294 716.471 CURVE",
"158.324 667.265 LINE",
"206.765 684.706 OFFCURVE",
"251.765 691.706 OFFCURVE",
"281.088 691.706 CURVE SMOOTH",
"344.412 691.706 OFFCURVE",
"384.706 666.294 OFFCURVE",
"384.706 607.765 CURVE SMOOTH",
"384.706 572.706 LINE",
"324.5 572.706 LINE SMOOTH",
"189.824 572.706 OFFCURVE",
"107.5 526.794 OFFCURVE",
"107.5 438.676 CURVE SMOOTH",
"107.5 359.559 OFFCURVE",
"168.5 308.324 OFFCURVE",
"259.059 308.324 CURVE SMOOTH",
"309.176 308.324 OFFCURVE",
"360.059 329.324 OFFCURVE",
"393.059 366.882 CURVE",
"405.853 329.441 OFFCURVE",
"431.206 312 OFFCURVE",
"467.588 307.441 CURVE",
"482.735 351.765 LINE",
"460.294 358.765 OFFCURVE",
"448.412 372.206 OFFCURVE",
"448.412 402.647 CURVE SMOOTH",
"448.412 610.324 LINE SMOOTH",
"448.412 693.471 OFFCURVE",
"393.971 746.029 OFFCURVE",
"289.559 746.029 CURVE SMOOTH"
);
},
{
closed = 1;
nodes = (
"107.206 65.765 LINE",
"107.206 0 LINE",
"493.824 0 LINE",
"493.824 65.765 LINE"
);
},
{
closed = 1;
nodes = (
"384.706 416.176 LINE",
"357.059 379.971 OFFCURVE",
"315.088 357.647 OFFCURVE",
"271.676 357.647 CURVE SMOOTH",
"210.853 357.647 OFFCURVE",
"175.118 386.176 OFFCURVE",
"175.118 442.235 CURVE SMOOTH",
"175.118 493.765 OFFCURVE",
"218.412 524.294 OFFCURVE",
"319.118 524.294 CURVE SMOOTH",
"384.706 524.294 LINE"
);
}
);
width = 600;
}
);
unicode = 00AA;
},
{
color = 4;
glyphname = ordmasculine;
lastChange = "2019-03-25 19:36:12 +0000";
layers = (
{
layerId = "4B7A3BAF-EAD8-4024-9BEA-BB1DE86CFCFA";
paths = (
{
closed = 1;
nodes = (
"162.382 758.735 OFFCURVE",
"78.471 660.941 OFFCURVE",
"78.471 531.912 CURVE SMOOTH",
"78.471 395.971 OFFCURVE",
"161.382 304.088 OFFCURVE",
"300 304.088 CURVE SMOOTH",
"437.618 304.088 OFFCURVE",
"521.5 397.029 OFFCURVE",
"521.5 531.912 CURVE SMOOTH",
"521.5 662.029 OFFCURVE",
"437.647 758.735 OFFCURVE",
"300 758.735 CURVE SMOOTH"
);
},
{
closed = 1;
nodes = (
"93.294 108.118 LINE",
"93.294 0 LINE",
"506.735 0 LINE",
"506.735 108.118 LINE"
);
},
{
closed = 1;
nodes = (
"351.588 660.647 OFFCURVE",
"382.971 624.294 OFFCURVE",
"382.971 531.912 CURVE SMOOTH",
"382.971 438.529 OFFCURVE",
"351.588 403.147 OFFCURVE",
"300 403.147 CURVE SMOOTH",
"248.412 403.147 OFFCURVE",
"217 438.529 OFFCURVE",
"217 531.912 CURVE SMOOTH",
"217 624.294 OFFCURVE",
"248.412 660.647 OFFCURVE",
"300 660.647 CURVE SMOOTH"
);
}
);
width = 600;
},
{
layerId = "B67F0F2D-EC95-4CB8-966E-23AE86958A69";
paths = (
{
closed = 1;
nodes = (
"180.735 746.029 OFFCURVE",
"101.059 658.118 OFFCURVE",
"101.059 527.676 CURVE SMOOTH",
"101.059 394.559 OFFCURVE",
"179.735 308.324 OFFCURVE",
"300 308.324 CURVE SMOOTH",
"419.265 308.324 OFFCURVE",
"497.5 398.441 OFFCURVE",
"497.5 527.676 CURVE SMOOTH",
"497.5 663.441 OFFCURVE",
"420.706 746.029 OFFCURVE",
"300 746.029 CURVE SMOOTH"
);
},
{
closed = 1;
nodes = (
"107.412 65.765 LINE",
"107.412 0 LINE",
"494.029 0 LINE",
"494.029 65.765 LINE"
);
},
{
closed = 1;
nodes = (
"379.824 691.706 OFFCURVE",
"429.559 638.412 OFFCURVE",
"429.559 527.676 CURVE SMOOTH",
"429.559 415.941 OFFCURVE",
"379.824 362.206 OFFCURVE",
"300 362.206 CURVE SMOOTH",
"220.176 362.206 OFFCURVE",
"169 415.941 OFFCURVE",
"169 527.676 CURVE SMOOTH",
"169 638.412 OFFCURVE",
"220.176 691.706 OFFCURVE",
"300 691.706 CURVE SMOOTH"
);
}
);
width = 600;
}
);
unicode = 00BA;
},
{
color = 4;
glyphname = nmod;
lastChange = "2019-03-25 19:36:12 +0000";
layers = (
{
layerId = "4B7A3BAF-EAD8-4024-9BEA-BB1DE86CFCFA";
paths = (
{
closed = 1;
nodes = (
"315.588 723 OFFCURVE",
"285.353 712.882 OFFCURVE",
"258.353 677.941 CURVE",
"253.412 713.088 LINE",
"151.441 713.088 LINE",
"151.441 378 LINE",
"266.265 378 LINE",
"266.265 604.382 LINE",
"282.294 625.441 OFFCURVE",
"296.706 637.765 OFFCURVE",
"313.059 637.765 CURVE SMOOTH",
"328.735 637.765 OFFCURVE",
"333.765 625.441 OFFCURVE",
"333.765 592.706 CURVE",
"333.765 378 LINE",
"448.588 378 LINE",
"448.588 620 LINE",
"448.588 685.971 OFFCURVE",
"412.735 723 OFFCURVE",
"350.5 723 CURVE SMOOTH"
);
}
);
width = 600;
},
{
layerId = "B67F0F2D-EC95-4CB8-966E-23AE86958A69";
paths = (
{
closed = 1;
nodes = (
"295.824 723 OFFCURVE",
"254.294 707.235 OFFCURVE",
"227.294 675.118 CURVE",
"225.176 717.324 LINE",
"172.618 717.324 LINE",
"172.618 378 LINE",
"230.971 378 LINE",
"230.971 622.735 LINE",
"248.412 646.618 OFFCURVE",
"282.588 674.471 OFFCURVE",
"315.882 674.471 CURVE SMOOTH",
"364.029 674.471 OFFCURVE",
"370.471 646.618 OFFCURVE",
"370.471 578.588 CURVE",
"370.471 378 LINE",
"428.824 378 LINE",
"428.824 620 LINE",
"428.824 684.559 OFFCURVE",
"400.029 723 OFFCURVE",
"326.5 723 CURVE SMOOTH"
);
}
);
width = 600;
}
);
unicode = 207F;
},
{
color = 4;
glyphname = "Dche-cy";
lastChange = "2019-03-25 19:36:12 +0000";
layers = (
{
anchors = (
{
name = bottom;
position = "{300, -221.412}";
},
{
name = top;
position = "{300, 692.882}";
}
);
components = (
{
alignment = -1;
name = "descStraight-cy.case";
transform = "{-1, 0, 0, 1, 445, 0}";
},
{
alignment = -1;
name = "descStraight-cy.case";
transform = "{1, 0, 0, 1, 195.324, 0}";
}
);
layerId = "4B7A3BAF-EAD8-4024-9BEA-BB1DE86CFCFA";
paths = (
{
closed = 1;
nodes = (
"538.676 0 LINE",
"538.676 692.882 LINE",
"225.618 692.882 LINE",
"214.235 497.735 LINE SMOOTH",
"200.735 281.735 OFFCURVE",
"151.529 194.971 OFFCURVE",
"96.794 118.765 CURVE",
"103.588 0 LINE"
);
},
{
closed = 1;
nodes = (
"319.559 216.588 OFFCURVE",
"333.588 327.853 OFFCURVE",
"345.118 491.794 CURVE SMOOTH",
"351.353 582.853 LINE",
"403 582.853 LINE",
"403 121.676 LINE",
"231.529 121.676 LINE"
);
},
{
closed = 1;
nodes = (
"18.147 535.618 LINE SMOOTH",
"18.176 378.5 OFFCURVE",
"86.382 291.206 OFFCURVE",
"279.441 291.206 CURVE",
"437.471 290.235 LINE",
"437.471 407 LINE",
"277.618 407 LINE SMOOTH",
"173.324 407 OFFCURVE",
"148.059 447.176 OFFCURVE",
"148.059 537.647 CURVE SMOOTH",
"148.059 692.882 LINE",
"18.147 692.882 LINE"
);
}
);
width = 600;
},
{
anchors = (
{
name = bottom;
position = "{300, -193.176}";
},
{
name = top;
position = "{300, 687.235}";
}
);
components = (
{
alignment = -1;
name = "descStraight-cy.case";
transform = "{-1, 0, 0, 1, 397, 0}";
},
{
alignment = -1;
name = "descStraight-cy.case";
transform = "{1, 0, 0, 1, 210.853, 0}";
}
);
layerId = "B67F0F2D-EC95-4CB8-966E-23AE86958A69";
paths = (
{
closed = 1;
nodes = (
"523.147 0 LINE",
"523.147 687.235 LINE",
"255.265 687.235 LINE",
"225.529 485.029 LINE SMOOTH",
"188.029 221.029 OFFCURVE",
"128.941 97.559 OFFCURVE",
"86.912 59.471 CURVE",
"83.824 0 LINE"
);
},
{
closed = 1;
nodes = (
"202.382 100.824 OFFCURVE",
"265.824 176.794 OFFCURVE",
"302.765 481.912 CURVE SMOOTH",
"320.294 623.794 LINE",
"451 623.794 LINE",
"451 58.147 LINE",
"160.941 58.147 LINE"
);
},
{
closed = 1;
nodes = (
"73.206 565.265 LINE SMOOTH",
"74.647 402.5 OFFCURVE",
"152.735 349.088 OFFCURVE",
"300.618 349.088 CURVE",
"460.059 349.529 LINE",
"460.059 407 LINE",
"307.265 407 LINE SMOOTH",
"188.853 407 OFFCURVE",
"150.882 455.647 OFFCURVE",
"150.882 568.706 CURVE SMOOTH",
"150.882 687.235 LINE",
"73.206 687.235 LINE"
);
}
);
width = 600;
}
);
unicode = 052C;
},
{
color = 4;
glyphname = "Dzzhe-cy";
lastChange = "2019-03-25 19:36:12 +0000";
layers = (
{
anchors = (
{
name = bottom;
position = "{300, -221.412}";
},
{
name = top;
position = "{300, 692.882}";
}
);
layerId = "4B7A3BAF-EAD8-4024-9BEA-BB1DE86CFCFA";
paths = (
{
closed = 1;
nodes = (
"62.676 -174.265 LINE",
"76.706 0 LINE",
"97.765 0 LINE",
"71.559 97.118 LINE",
"-14.941 97.118 LINE",
"-14.941 -174.265 LINE"
);
},
{
closed = 1;
nodes = (
"356.294 -174.265 LINE",
"356.294 97.118 LINE",
"270.765 97.118 LINE",
"245.5 0 LINE",
"266.559 0 LINE",
"278.647 -174.265 LINE"
);
},
{
closed = 1;
nodes = (
"417.265 0 LINE",
"417.265 97.118 LINE",
"278.118 97.118 LINE",
"278.382 0 LINE"
);
},
{
closed = 1;
nodes = (
"294.206 0 LINE",
"294.206 692.882 LINE",
"81.559 692.882 LINE",
"68.471 473.941 LINE SMOOTH",
"55.382 238.824 OFFCURVE",
"41.088 149.441 OFFCURVE",
"14.176 97.118 CURVE",
"22.912 0 LINE"
);
},
{
closed = 1;
nodes = (
"134.853 166 OFFCURVE",
"152 239.206 OFFCURVE",
"161.059 468 CURVE SMOOTH",
"167.176 606.412 LINE",
"200.765 606.412 LINE",
"200.765 97.118 LINE",
"92.912 97.118 LINE"
);
},
{
closed = 1;
nodes = (
"335.471 320.088 LINE",
"335.471 0 LINE",
"426 0 LINE",
"426 320.088 LINE",
"451.029 320.088 LINE",
"513.412 0 LINE",
"615.882 0 LINE",
"535.441 378.559 LINE",
"606.588 692.882 LINE",
"510.235 692.882 LINE",
"450.088 401.824 LINE",
"426 401.824 LINE",
"426 692.882 LINE",
"335.471 692.882 LINE",
"335.471 401.824 LINE",
"227.559 401.824 LINE",
"227.559 320.088 LINE"
);
}
);
width = 600;
},
{
anchors = (
{
name = bottom;
position = "{300, -193.176}";
},
{
name = top;
position = "{300, 687.235}";
}
);
layerId = "B67F0F2D-EC95-4CB8-966E-23AE86958A69";
paths = (
{
closed = 1;
nodes = (
"47.147 -138.971 LINE",
"62.588 0 LINE",
"86.471 0 LINE",
"98.382 54.765 LINE",
"-12.118 54.765 LINE",
"-12.118 -138.971 LINE"
);
},
{
closed = 1;
nodes = (
"370.412 -138.971 LINE",
"370.412 54.765 LINE",
"259.471 54.765 LINE",
"269.5 0 LINE",
"293.382 0 LINE",
"309.706 -138.971 LINE"
);
},
{
closed = 1;
nodes = (
"381.971 0 LINE",
"381.971 54.765 LINE",
"283.765 54.765 LINE",
"296.735 0 LINE"
);
},
{
closed = 1;
nodes = (
"304.088 0 LINE",
"304.088 687.235 LINE",
"108.382 687.235 LINE",
"91.059 423.118 LINE SMOOTH",
"73.735 182.353 OFFCURVE",
"45.324 122.618 OFFCURVE",
"22.647 54.765 CURVE",
"18.676 0 LINE"
);
},
{
closed = 1;
nodes = (
"127.794 118 OFFCURVE",
"152 201.088 OFFCURVE",
"163.882 420 CURVE SMOOTH",
"175.647 626.176 LINE",
"237.471 626.176 LINE",
"237.471 54.765 LINE",
"88.676 54.765 LINE"
);
},
{
closed = 1;
nodes = (
"358.059 324.324 LINE",
"358.059 0 LINE",
"426 0 LINE",
"426 324.324 LINE",
"452.441 324.324 LINE",
"533.176 0 LINE",
"610.235 0 LINE",
"508.618 357.382 LINE",
"586.824 687.235 LINE",
"521.529 687.235 LINE",
"454.324 393.353 LINE",
"426 393.353 LINE",
"426 687.235 LINE",
"358.059 687.235 LINE",
"358.059 393.353 LINE",
"302.382 393.353 LINE",
"302.382 324.324 LINE"
);
}
);
width = 600;
}
);
unicode = 052A;
},
{
color = 4;
glyphname = "Eldescender-cy";
lastChange = "2019-03-25 19:36:12 +0000";
layers = (
{
components = (
{
alignment = -1;
anchor = bottomright;
name = "descStraight-cy.case";
transform = "{1, 0, 0, 1, 180.324, 0}";
}
);
layerId = "4B7A3BAF-EAD8-4024-9BEA-BB1DE86CFCFA";
paths = (
{
closed = 1;
nodes = (
"136.559 692.882 LINE",
"116.059 472.647 LINE SMOOTH",
"88.853 179.382 OFFCURVE",
"58.706 136.765 OFFCURVE",
"-7.706 88.059 CURVE",
"56.588 -19.765 LINE",
"195.265 46.118 OFFCURVE",
"238.147 124.118 OFFCURVE",
"269.353 456.735 CURVE SMOOTH",
"279.735 568.235 LINE",
"359.088 568.235 LINE",
"359.088 0 LINE",
"523 0 LINE",
"523 692.882 LINE"
);
}
);
width = 600;
},
{
components = (
{
alignment = -1;
anchor = bottomright;
name = "descStraight-cy.case";
transform = "{1, 0, 0, 1, 195.853, 0}";
}
);
layerId = "B67F0F2D-EC95-4CB8-966E-23AE86958A69";
paths = (
{
closed = 1;
nodes = (
"163.382 687.235 LINE",
"118.882 359.706 LINE SMOOTH",
"81.794 101.735 OFFCURVE",
"44.588 77.471 OFFCURVE",
"6.412 42.882 CURVE",
"36.824 -8.471 LINE",
"111.971 51.765 OFFCURVE",
"149.206 81.765 OFFCURVE",
"190.294 396.029 CURVE SMOOTH",
"219.029 627.529 LINE",
"411.324 627.529 LINE",
"411.324 0 LINE",
"475 0 LINE",
"475 687.235 LINE"
);
}
);
width = 600;
}
);
unicode = 052E;
},
{
color = 4;
glyphname = "Be-cy";
lastChange = "2019-03-25 19:36:12 +0000";
layers = (
{
anchors = (
{
name = bottom;
position = "{300, 0}";
},
{
name = top;
position = "{300, 692.882}";
}
);
layerId = "4B7A3BAF-EAD8-4024-9BEA-BB1DE86CFCFA";
paths = (
{
closed = 1;
nodes = (
"57.176 692.882 LINE",
"57.176 0 LINE",
"299.353 0 LINE SMOOTH",
"455.353 0 OFFCURVE",
"568.294 76.471 OFFCURVE",
"568.294 227.647 CURVE SMOOTH",
"568.294 373.618 OFFCURVE",
"465.324 443.382 OFFCURVE",
"290.559 443.382 CURVE SMOOTH",
"221.088 443.382 LINE",
"221.088 568.294 LINE",
"477 568.294 LINE",
"492.794 692.882 LINE"
);
},
{
closed = 1;
nodes = (
"360.588 325.706 OFFCURVE",
"400.382 293.588 OFFCURVE",
"400.382 226.647 CURVE SMOOTH",
"400.382 151.529 OFFCURVE",
"358.618 122.588 OFFCURVE",
"282.118 122.588 CURVE SMOOTH",
"221.088 122.588 LINE",
"221.088 325.706 LINE",
"280.176 325.706 LINE SMOOTH"
);
}
);
width = 600;
},
{
anchors = (
{
name = bottom;
position = "{300, 0}";
},
{
name = top;
position = "{300, 687.235}";
}
);
layerId = "B67F0F2D-EC95-4CB8-966E-23AE86958A69";
paths = (
{
closed = 1;
nodes = (
"113.647 687.235 LINE",
"113.647 0 LINE",
"268.294 0 LINE SMOOTH",
"424.294 0 OFFCURVE",
"534.412 51.059 OFFCURVE",
"534.412 210.706 CURVE SMOOTH",
"534.412 355.265 OFFCURVE",
"432.853 413.735 OFFCURVE",
"269.382 413.735 CURVE SMOOTH",
"177.324 413.735 LINE",
"177.324 630.412 LINE",
"477 630.412 LINE",
"482.912 687.235 LINE"
);
},
{
closed = 1;
nodes = (
"388.824 359.588 OFFCURVE",
"466.735 321.824 OFFCURVE",
"466.735 209.706 CURVE SMOOTH",
"466.735 80.941 OFFCURVE",
"388.265 54.824 OFFCURVE",
"287.765 54.824 CURVE SMOOTH",
"177.324 54.824 LINE",
"177.324 359.588 LINE",
"288.647 359.588 LINE SMOOTH"
);
}
);
width = 600;
}
);
unicode = 0411;
},
{
color = 4;
glyphname = "Ge-cy";
lastChange = "2019-03-25 19:36:12 +0000";
layers = (
{
anchors = (
{
name = bottom;
position = "{172.206, 0}";
},
{
name = bottomright;
position = "{283.559, 0}";
},
{
name = top;
position = "{332.441, 692.882}";
}
);
layerId = "4B7A3BAF-EAD8-4024-9BEA-BB1DE86CFCFA";
paths = (
{
closed = 1;
nodes = (
"90.235 692.882 LINE",
"90.235 0 LINE",
"254.147 0 LINE",
"254.147 564.294 LINE",
"542.794 564.294 LINE",
"558.618 692.882 LINE"
);
}
);
width = 600;
},
{
anchors = (
{
name = bottom;
position = "{182.088, 0}";
},
{
name = bottomright;
position = "{214.382, 0}";
},
{
name = top;
position = "{353.618, 687.235}";
}
);
layerId = "B67F0F2D-EC95-4CB8-966E-23AE86958A69";
paths = (
{
closed = 1;
nodes = (
"149.529 687.235 LINE",
"149.529 0 LINE",
"213.206 0 LINE",
"213.206 626.412 LINE",
"532.912 626.412 LINE",
"540.265 687.235 LINE"
);
}
);
width = 600;
}
);
unicode = 0413;
},
{
color = 4;
glyphname = "Gheupturn-cy";
lastChange = "2019-03-25 19:36:12 +0000";
layers = (
{
components = (
{
alignment = -1;
name = "Ge-cy";
}
);
layerId = "4B7A3BAF-EAD8-4024-9BEA-BB1DE86CFCFA";
paths = (
{
closed = 1;
nodes = (
"407.412 847.647 LINE",
"407.412 682.882 LINE",
"558.618 692.882 LINE",
"558.618 847.647 LINE"
);
}
);
width = 600;
},
{
components = (
{
alignment = -1;
name = "Ge-cy";
}
);
layerId = "B67F0F2D-EC95-4CB8-966E-23AE86958A69";
paths = (
{
closed = 1;
nodes = (
"475.176 830.706 LINE",
"475.176 677.235 LINE",
"540.265 687.235 LINE",
"540.265 830.706 LINE"
);
}
);
width = 600;
}
);
unicode = 0490;
},
{
color = 4;
glyphname = "De-cy";
lastChange = "2019-03-25 19:36:12 +0000";
layers = (
{
anchors = (
{
name = bottom;
position = "{300, -221.412}";
},
{
name = top;
position = "{300, 692.882}";
}
);
components = (
{
alignment = -1;
name = "descStraight-cy.case";
transform = "{1, 0, 0, 1, 185.647, 0}";
},
{
alignment = -1;
name = "descStraight-cy.case";
transform = "{-1, 0, 0, 1, 381.294, 0}";
}
);
layerId = "4B7A3BAF-EAD8-4024-9BEA-BB1DE86CFCFA";
paths = (
{
closed = 1;
nodes = (
"138.794 692.882 LINE",
"118.647 475.412 LINE SMOOTH",
"96.206 238.853 OFFCURVE",
"73.647 168.853 OFFCURVE",
"29.353 121.676 CURVE",
"115.206 0 LINE",
"451.735 -0.971 LINE",
"524.706 121.676 LINE",
"524.706 692.882 LINE"
);
},
{
closed = 1;
nodes = (
"374.382 121.676 LINE",
"158.147 121.676 LINE",
"223.029 175.706 OFFCURVE",
"249.588 258.618 OFFCURVE",
"268.941 488.882 CURVE SMOOTH",
"276.147 577.029 LINE",
"374.382 577.029 LINE"
);
}
);
width = 600;
},
{
anchors = (
{
name = bottom;
position = "{300, -193.176}";
},
{
name = top;
position = "{300, 687.235}";
}
);
components = (
{
alignment = -1;
name = "descStraight-cy.case";
transform = "{1, 0, 0, 1, 216.706, 0}";
},
{
alignment = -1;
name = "descStraight-cy.case";
transform = "{-1, 0, 0, 1, 347.412, 0}";
}
);
layerId = "B67F0F2D-EC95-4CB8-966E-23AE86958A69";
paths = (
{
closed = 1;
nodes = (
"176.912 687.235 LINE",
"149.706 495.176 LINE SMOOTH",
"106.088 183.794 OFFCURVE",
"104.706 113.794 OFFCURVE",
"46.294 58.147 CURVE",
"77.088 0 LINE",
"487.029 0.441 LINE",
"510.588 58.147 LINE",
"510.588 687.235 LINE"
);
},
{
closed = 1;
nodes = (
"440.735 58.147 LINE",
"117.206 58.147 LINE",
"176.441 113.588 OFFCURVE",
"181.824 192.265 OFFCURVE",
"218.118 483.235 CURVE SMOOTH",
"235.206 626.441 LINE",
"440.735 626.441 LINE"
);
}
);
width = 600;
}
);
unicode = 0414;
},
{
color = 4;
glyphname = "Zhe-cy";
lastChange = "2019-03-25 19:36:12 +0000";
layers = (
{
anchors = (
{
name = bottom;
position = "{300, 0}";
},
{
name = bottomright;
position = "{582.324, 0}";
},
{
name = top;
position = "{300, 692.882}";
}
);
layerId = "4B7A3BAF-EAD8-4024-9BEA-BB1DE86CFCFA";
paths = (
{
closed = 1;
nodes = (
"250.294 0 LINE",
"349.706 0 LINE",
"349.706 320.176 LINE",
"377.588 320.176 LINE",
"456.235 0 LINE",
"597.735 0 LINE",
"490.324 378.618 LINE",
"587.618 692.882 LINE",
"453.029 692.882 LINE",
"376.618 401.882 LINE",
"349.706 401.882 LINE",
"349.706 692.882 LINE",
"250.294 692.882 LINE",
"250.294 401.882 LINE",
"223.382 401.882 LINE",
"147 692.882 LINE",
"12.382 692.882 LINE",
"109.676 378.618 LINE",
"2.265 0 LINE",
"141.765 0 LINE",
"220.441 320.176 LINE",
"250.294 320.176 LINE"
);
}
);
width = 600;
},
{
anchors = (
{
name = bottom;
position = "{300, 0}";
},
{
name = bottomright;
position = "{549.853, 0}";
},
{
name = top;
position = "{300, 687.235}";
}
);
layerId = "B67F0F2D-EC95-4CB8-966E-23AE86958A69";
paths = (
{
closed = 1;
nodes = (
"264.412 0 LINE",
"335.588 0 LINE",
"335.588 328.647 LINE",
"405.824 328.647 LINE",
"515.529 0 LINE",
"585.029 0 LINE",
"457.853 360.265 LINE",
"569.265 687.235 LINE",
"502.441 687.235 LINE",
"406.265 396.235 LINE",
"335.588 396.235 LINE",
"335.588 687.235 LINE",
"264.412 687.235 LINE",
"264.412 396.235 LINE",
"193.735 396.235 LINE",
"99 687.235 LINE",
"30.735 687.235 LINE",
"142.147 360.265 LINE",
"14.971 0 LINE",
"82.471 0 LINE",
"193.618 328.647 LINE",
"264.412 328.647 LINE"
);
}
);
width = 600;
}
);
unicode = 0416;
},
{
color = 4;
glyphname = "Ze-cy";
lastChange = "2019-03-25 19:36:12 +0000";
layers = (
{
anchors = (
{
name = bottom;
position = "{287.176, 0}";
},
{
name = top;
position = "{289.235, 692.882}";
}
);
layerId = "4B7A3BAF-EAD8-4024-9BEA-BB1DE86CFCFA";
paths = (
{
closed = 1;
nodes = (
"179.324 710.706 OFFCURVE",
"91.676 679.765 OFFCURVE",
"24.647 620.824 CURVE",
"103.824 537.676 LINE",
"148.029 572.824 OFFCURVE",
"203.971 592 OFFCURVE",
"266.353 592 CURVE SMOOTH",
"338.676 592 OFFCURVE",
"380.294 560.853 OFFCURVE",
"380.294 510.235 CURVE SMOOTH",
"380.294 453.618 OFFCURVE",
"334.588 425.471 OFFCURVE",
"265.382 425.471 CURVE SMOOTH",
"169.147 425.471 LINE",
"150.382 308.647 LINE",
"265.559 308.647 LINE SMOOTH",
"348.794 308.647 OFFCURVE",
"398.324 275.5 OFFCURVE",
"398.324 204.912 CURVE SMOOTH",
"398.324 141.294 OFFCURVE",
"348.029 102.882 OFFCURVE",
"267.294 102.882 CURVE SMOOTH",
"199.147 102.882 OFFCURVE",
"140.059 125 OFFCURVE",
"90.941 166.147 CURVE",
"6.765 82.118 LINE",
"67.735 19.118 OFFCURVE",
"156.647 -16.853 OFFCURVE",
"270.206 -16.853 CURVE SMOOTH",
"456.559 -16.853 OFFCURVE",
"562.412 69.324 OFFCURVE",
"562.412 198.176 CURVE SMOOTH",
"562.412 300.294 OFFCURVE",
"492.147 358.235 OFFCURVE",
"383.765 369.147 CURVE",
"484.147 388.912 OFFCURVE",
"541.353 440.853 OFFCURVE",
"541.353 525.853 CURVE SMOOTH",
"541.353 634.765 OFFCURVE",
"439.647 710.706 OFFCURVE",
"282.941 710.706 CURVE SMOOTH"
);
}
);
width = 600;
},
{
anchors = (
{
name = bottom;
position = "{295.647, 0}";
},
{
name = top;
position = "{300.529, 687.235}";
}
);
layerId = "B67F0F2D-EC95-4CB8-966E-23AE86958A69";
paths = (
{
closed = 1;
nodes = (
"194.853 696.588 OFFCURVE",
"124.147 668.471 OFFCURVE",
"55.706 612.353 CURVE",
"95.353 570.147 LINE",
"149.441 612.353 OFFCURVE",
"202.559 640 OFFCURVE",
"283.294 640 CURVE SMOOTH",
"371.147 640 OFFCURVE",
"442.412 601.794 OFFCURVE",
"442.412 521.529 CURVE SMOOTH",
"442.412 435.265 OFFCURVE",
"362.824 400.059 OFFCURVE",
"283.735 400.059 CURVE SMOOTH",
"176.206 400.059 LINE",
"168.735 339.706 LINE",
"292.382 339.706 LINE SMOOTH",
"386.912 339.706 OFFCURVE",
"461.853 299.5 OFFCURVE",
"461.853 200.676 CURVE SMOOTH",
"461.853 107.412 OFFCURVE",
"397.441 49.235 OFFCURVE",
"281.412 49.235 CURVE SMOOTH",
"206.206 49.235 OFFCURVE",
"142.882 77 OFFCURVE",
"88.118 125.206 CURVE",
"43.471 87.765 LINE",
"103.029 24.765 OFFCURVE",
"187.706 -9.794 OFFCURVE",
"280.088 -9.794 CURVE SMOOTH",
"435.382 -9.794 OFFCURVE",
"534.176 84.853 OFFCURVE",
"534.176 206.647 CURVE SMOOTH",
"534.176 314.412 OFFCURVE",
"451.206 369.529 OFFCURVE",
"372.471 376.206 CURVE",
"443.206 384.676 OFFCURVE",
"510.294 433.794 OFFCURVE",
"510.294 518.794 CURVE SMOOTH",
"510.294 623.471 OFFCURVE",
"422.706 696.588 OFFCURVE",
"280.118 696.588 CURVE SMOOTH"
);
}
);
width = 600;
}
);
unicode = 0417;
},
{
color = 4;
glyphname = "Ii-cy";
lastChange = "2019-03-25 19:36:12 +0000";
layers = (
{
anchors = (
{
name = bottom;
position = "{300, 0}";
},
{
name = bottomright;
position = "{558.147, 0}";
},
{
name = top;
position = "{300, 692.882}";
}
);
layerId = "4B7A3BAF-EAD8-4024-9BEA-BB1DE86CFCFA";
paths = (
{
closed = 1;
nodes = (
"235.941 0 LINE",
"424.559 548.559 LINE",
"409.765 463.176 OFFCURVE",
"397.882 364.412 OFFCURVE",
"397.882 230.206 CURVE SMOOTH",
"397.882 0 LINE",
"548.147 0 LINE",
"548.147 692.882 LINE",
"367.029 692.882 LINE",
"174.471 143.206 LINE",
"189.324 227 OFFCURVE",
"202.118 314.412 OFFCURVE",
"202.118 457.824 CURVE SMOOTH",
"202.118 692.882 LINE",
"51.853 692.882 LINE",
"51.853 0 LINE"
);
}
);
width = 600;
},
{
anchors = (
{
name = bottom;
position = "{300, 0}";
},
{
name = bottomright;
position = "{517.206, 0}";
},
{
name = top;
position = "{300, 687.235}";
}
);
layerId = "B67F0F2D-EC95-4CB8-966E-23AE86958A69";
paths = (
{
closed = 1;
nodes = (
"185.118 0 LINE",
"451.382 623.382 LINE",
"446.471 567.647 OFFCURVE",
"440.235 480.176 OFFCURVE",
"440.235 384.088 CURVE SMOOTH",
"440.235 0 LINE",
"507.206 0 LINE",
"507.206 687.235 LINE",
"416.441 687.235 LINE",
"149.059 57.088 LINE",
"156.853 131 OFFCURVE",
"159.765 190.176 OFFCURVE",
"159.765 305.353 CURVE SMOOTH",
"159.765 687.235 LINE",
"92.794 687.235 LINE",
"92.794 0 LINE"
);
}
);
width = 600;
}
);
unicode = 0418;
},
{
color = 4;
glyphname = "Ka-cy";
lastChange = "2019-03-25 19:36:12 +0000";
layers = (
{
anchors = (
{
name = bottom;
position = "{300, 0}";
},
{
name = bottomright;
position = "{570.059, 0}";
},
{
name = top;
position = "{323.882, 692.882}";
}
);
layerId = "4B7A3BAF-EAD8-4024-9BEA-BB1DE86CFCFA";
paths = (
{
closed = 1;
nodes = (
"429.412 0 LINE",
"608.412 0 LINE",
"412.912 378.618 LINE",
"589.412 692.882 LINE",
"430.176 692.882 LINE",
"276.618 420.412 LINE",
"216.059 420.412 LINE",
"216.059 692.882 LINE",
"52.147 692.882 LINE",
"52.147 0 LINE",
"216.059 0 LINE",
"216.059 301.647 LINE",
"278.529 301.647 LINE"
);
}
);
width = 600;
},
{
anchors = (
{
name = bottom;
position = "{300, 0}";
},
{
name = bottomright;
position = "{524.882, 0}";
},
{
name = top;
position = "{318.235, 687.235}";
}
);
layerId = "B67F0F2D-EC95-4CB8-966E-23AE86958A69";
paths = (
{
closed = 1;
nodes = (
"497.176 0 LINE",
"580.176 0 LINE",
"312.676 360.265 LINE",
"561.176 687.235 LINE",
"486.647 687.235 LINE",
"258.265 392.176 LINE",
"170.882 392.176 LINE",
"170.882 687.235 LINE",
"107.206 687.235 LINE",
"107.206 0 LINE",
"170.882 0 LINE",
"170.882 332.706 LINE",
"255.941 332.706 LINE"
);
}
);
width = 600;
}
);
unicode = 041A;
},
{
color = 4;
glyphname = "El-cy";
lastChange = "2019-03-25 19:36:12 +0000";
layers = (
{
anchors = (
{
name = bottom;
position = "{300, 0}";
},
{
name = bottomright;
position = "{558.147, 0}";
},
{
name = top;
position = "{300, 692.882}";
}
);
layerId = "4B7A3BAF-EAD8-4024-9BEA-BB1DE86CFCFA";
paths = (
{
closed = 1;
nodes = (
"132 692.882 LINE",
"111.5 472.647 LINE SMOOTH",
"84.294 179.382 OFFCURVE",
"54.147 136.765 OFFCURVE",
"-12.265 88.059 CURVE",
"52.029 -19.765 LINE",
"190.706 46.118 OFFCURVE",
"233.588 124.118 OFFCURVE",
"264.794 456.735 CURVE SMOOTH",
"275.176 568.235 LINE",
"384.235 568.235 LINE",
"384.235 0 LINE",
"548.147 0 LINE",
"548.147 692.882 LINE"
);
}
);
width = 600;
},
{
anchors = (
{
name = bottom;
position = "{300, 0}";
},
{
name = bottomright;
position = "{517.206, 0}";
},
{
name = top;
position = "{300, 687.235}";
}
);
layerId = "B67F0F2D-EC95-4CB8-966E-23AE86958A69";
paths = (
{
closed = 1;
nodes = (
"180 687.235 LINE",
"135.5 359.706 LINE SMOOTH",
"98.412 101.735 OFFCURVE",
"61.206 77.471 OFFCURVE",
"23.029 42.882 CURVE",
"53.441 -8.471 LINE",
"128.588 51.765 OFFCURVE",
"165.824 81.765 OFFCURVE",
"206.912 396.029 CURVE SMOOTH",
"235.647 627.529 LINE",
"443.529 627.529 LINE",
"443.529 0 LINE",
"507.206 0 LINE",
"507.206 687.235 LINE"
);
}
);
width = 600;
}
);
unicode = 041B;
},
{
color = 4;
glyphname = "Pe-cy";
lastChange = "2019-03-25 19:36:12 +0000";
layers = (
{
anchors = (
{
name = bottom;
position = "{300, 0}";
},
{
name = bottomright;
position = "{558.147, 0}";
},
{
name = top;
position = "{300, 692.882}";
}
);
layerId = "4B7A3BAF-EAD8-4024-9BEA-BB1DE86CFCFA";
paths = (
{
closed = 1;
nodes = (
"548.147 0 LINE",
"548.147 692.882 LINE",
"51.853 692.882 LINE",
"51.853 0 LINE",
"215.765 0 LINE",
"215.765 567.235 LINE",
"384.235 567.235 LINE",
"384.235 0 LINE"
);
}
);
width = 600;
},
{
anchors = (
{
name = bottom;
position = "{300, 0}";
},
{
name = bottomright;
position = "{517.206, 0}";
},
{
name = top;
position = "{300, 687.235}";
}
);
layerId = "B67F0F2D-EC95-4CB8-966E-23AE86958A69";
paths = (
{
closed = 1;
nodes = (
"507.206 0 LINE",
"507.206 687.235 LINE",
"92.794 687.235 LINE",
"92.794 0 LINE",
"156.471 0 LINE",
"156.471 626.529 LINE",
"443.529 626.529 LINE",
"443.529 0 LINE"
);
}
);
width = 600;
}
);
unicode = 041F;
},
{
color = 4;
glyphname = "U-cy";
lastChange = "2019-03-25 19:36:12 +0000";
layers = (
{
anchors = (
{
name = bottom;
position = "{300, 0}";
},
{
name = top;
position = "{310, 692.882}";
}
);
layerId = "4B7A3BAF-EAD8-4024-9BEA-BB1DE86CFCFA";
paths = (
{
closed = 1;
nodes = (
"441.382 692.882 LINE",
"311.059 277.147 LINE",
"164.706 692.882 LINE",
"-5.147 692.882 LINE",
"210.176 183.176 LINE",
"262.765 183.176 LINE",
"231.853 128.588 OFFCURVE",
"191.088 105.206 OFFCURVE",
"84.647 95 CURVE",
"106.412 -16.853 LINE",
"295.235 -1.765 OFFCURVE",
"362.882 58.206 OFFCURVE",
"431.324 235.5 CURVE SMOOTH",
"607.265 692.882 LINE"
);
}
);
width = 600;
},
{
anchors = (
{
name = bottom;
position = "{300, 0}";
},
{
name = top;
position = "{310, 687.235}";
}
);
layerId = "B67F0F2D-EC95-4CB8-966E-23AE86958A69";
paths = (
{
closed = 1;
nodes = (
"507.735 687.235 LINE",
"313.882 236.206 LINE",
"102.588 687.235 LINE",
"35.794 687.235 LINE",
"266.647 191.647 LINE",
"299.471 191.647 LINE",
"272.794 108.824 OFFCURVE",
"243.324 67.088 OFFCURVE",
"115.706 47 CURVE",
"126.176 -9.794 LINE",
"258.529 9.529 OFFCURVE",
"309.235 68.088 OFFCURVE",
"350.853 163.5 CURVE SMOOTH",
"571.971 687.235 LINE"
);
}
);
width = 600;
}
);
unicode = 0423;
},
{
color = 4;
glyphname = "Ef-cy";
lastChange = "2019-03-25 19:36:12 +0000";
layers = (
{
anchors = (
{
name = bottom;
position = "{300, 0}";
},
{
name = top;
position = "{300, 692.882}";
}
);
layerId = "4B7A3BAF-EAD8-4024-9BEA-BB1DE86CFCFA";
paths = (
{
closed = 1;
nodes = (
"243.382 729.676 LINE",
"243.382 656.088 LINE",
"80.294 645.059 OFFCURVE",
"4.235 544.971 OFFCURVE",
"4.235 349.912 CURVE SMOOTH",
"4.235 155.618 OFFCURVE",
"81.5 47.735 OFFCURVE",
"243.382 37.824 CURVE",
"243.382 -38.735 LINE",
"356.618 -38.735 LINE",
"356.618 37.824 LINE",
"517.5 47.765 OFFCURVE",
"595.765 156.618 OFFCURVE",
"595.765 349.912 CURVE SMOOTH",
"595.765 544.971 OFFCURVE",
"518.735 645.059 OFFCURVE",
"356.618 656.088 CURVE",
"356.618 729.676 LINE"
);
},
{
closed = 1;
nodes = (
"253.147 128.118 LINE",
"178.176 136.147 OFFCURVE",
"157.471 201.353 OFFCURVE",
"157.471 349.912 CURVE SMOOTH",
"157.471 500.676 OFFCURVE",
"182.176 559.853 OFFCURVE",
"253.147 567.735 CURVE"
);
},
{
closed = 1;
nodes = (
"418.794 559.853 OFFCURVE",
"442.529 500.676 OFFCURVE",
"442.529 349.912 CURVE SMOOTH",
"442.529 201.353 OFFCURVE",
"421.824 136.147 OFFCURVE",
"346.853 128.118 CURVE",
"346.853 567.735 LINE"
);
}
);
width = 600;
},
{
anchors = (
{
name = bottom;
position = "{300, 0}";
},
{
name = top;
position = "{300, 687.235}";
}
);
layerId = "B67F0F2D-EC95-4CB8-966E-23AE86958A69";
paths = (
{
closed = 1;
nodes = (
"261.735 714.147 LINE",
"261.735 660.324 LINE",
"94.412 647.882 OFFCURVE",
"15.529 543.559 OFFCURVE",
"15.529 345.676 CURVE SMOOTH",
"15.529 137.265 OFFCURVE",
"105.5 35.029 OFFCURVE",
"261.735 29.353 CURVE",
"261.735 -26.029 LINE",
"338.265 -26.029 LINE",
"338.265 29.353 LINE",
"493.5 36.471 OFFCURVE",
"584.471 138.265 OFFCURVE",
"584.471 345.676 CURVE SMOOTH",
"584.471 543.559 OFFCURVE",
"506.029 647.882 OFFCURVE",
"338.265 660.324 CURVE",
"338.265 714.147 LINE"
);
},
{
closed = 1;
nodes = (
"260.206 85.765 LINE",
"138.647 95.206 OFFCURVE",
"84.059 170.294 OFFCURVE",
"84.059 345.676 CURVE SMOOTH",
"84.059 533.147 OFFCURVE",
"142.647 600.794 OFFCURVE",
"260.206 603.029 CURVE"
);
},
{
closed = 1;
nodes = (
"456.912 600.794 OFFCURVE",
"515.941 533.147 OFFCURVE",
"515.941 345.676 CURVE SMOOTH",
"515.941 170.294 OFFCURVE",
"461.353 95.206 OFFCURVE",
"339.794 85.765 CURVE",
"339.794 603.029 LINE"
);
}
);
width = 600;
}
);
unicode = 0424;
},
{
color = 4;
glyphname = "Che-cy";
lastChange = "2019-03-25 19:36:12 +0000";
layers = (
{
anchors = (
{
name = bottom;
position = "{300, 0}";
},
{
name = bottomleft;
position = "{374.235, 0}";
},
{
name = bottomright;
position = "{558.147, 0}";
},
{
name = top;
position = "{286.088, 692.882}";
}
);
layerId = "4B7A3BAF-EAD8-4024-9BEA-BB1DE86CFCFA";
paths = (
{
closed = 1;
nodes = (
"24.706 692.882 LINE",
"24.706 433.706 LINE SMOOTH",
"24.706 278.559 OFFCURVE",
"104.706 197.588 OFFCURVE",
"240.294 197.588 CURVE SMOOTH",
"304.735 197.588 OFFCURVE",
"355.676 218.647 OFFCURVE",
"396.441 253.176 CURVE",
"393.235 364.029 LINE",
"370.912 340.647 OFFCURVE",
"340.324 319.353 OFFCURVE",
"285.647 319.353 CURVE SMOOTH",
"217.176 319.353 OFFCURVE",
"188.618 351.618 OFFCURVE",
"188.618 438.765 CURVE SMOOTH",
"188.618 692.882 LINE"
);
},
{
closed = 1;
nodes = (
"384.235 692.882 LINE",
"384.235 0 LINE",
"548.147 0 LINE",
"548.147 692.882 LINE"
);
}
);
width = 600;
},
{
anchors = (
{
name = bottom;
position = "{300, 0}";
},
{
name = bottomleft;
position = "{433.529, 0}";
},
{
name = bottomright;
position = "{517.206, 0}";
},
{
name = top;
position = "{290.324, 687.235}";
}
);
layerId = "B67F0F2D-EC95-4CB8-966E-23AE86958A69";
paths = (
{
closed = 1;
nodes = (
"58.588 687.235 LINE",
"58.588 419.588 LINE SMOOTH",
"58.588 305.382 OFFCURVE",
"138.588 225.824 OFFCURVE",
"254.412 225.824 CURVE SMOOTH",
"340.029 225.824 OFFCURVE",
"388.147 249.706 OFFCURVE",
"465.618 309.647 CURVE",
"452.529 365.441 LINE",
"414.676 323.706 OFFCURVE",
"355.853 288.294 OFFCURVE",
"268.706 288.294 CURVE SMOOTH",
"177.647 288.294 OFFCURVE",
"122.265 333.265 OFFCURVE",
"122.265 427.471 CURVE SMOOTH",
"122.265 687.235 LINE"
);
},
{
closed = 1;
nodes = (
"443.529 687.235 LINE",
"443.529 0 LINE",
"507.206 0 LINE",
"507.206 687.235 LINE"
);
}
);
width = 600;
}
);
unicode = 0427;
},
{
color = 4;
glyphname = "Sha-cy";
lastChange = "2019-03-25 19:36:12 +0000";
layers = (
{
anchors = (
{
name = bottom;
position = "{300, 0}";
},
{
name = bottomright;
position = "{574.706, 0}";
},
{
name = top;
position = "{300, 692.882}";
}
);
layerId = "4B7A3BAF-EAD8-4024-9BEA-BB1DE86CFCFA";
paths = (
{
closed = 1;
nodes = (
"435 692.882 LINE",
"435 111.941 LINE",
"357.5 111.941 LINE",
"357.5 692.882 LINE",
"242.5 692.882 LINE",
"242.5 111.941 LINE",
"165 111.941 LINE",
"165 692.882 LINE",
"35.294 692.882 LINE",
"35.294 0 LINE",
"564.706 0 LINE",
"564.706 692.882 LINE"
);
}
);
width = 600;
},
{
anchors = (
{
name = bottom;
position = "{300, 0}";
},
{
name = bottomright;
position = "{560.588, 0}";
},
{
name = top;
position = "{300, 687.235}";
}
);
layerId = "B67F0F2D-EC95-4CB8-966E-23AE86958A69";
paths = (
{
closed = 1;
nodes = (
"483 687.235 LINE",
"483 61.118 LINE",
"333.5 61.118 LINE",
"333.5 687.235 LINE",
"266.5 687.235 LINE",
"266.5 61.118 LINE",
"117 61.118 LINE",
"117 687.235 LINE",
"49.412 687.235 LINE",
"49.412 0 LINE",
"550.588 0 LINE",
"550.588 687.235 LINE"
);
}
);
width = 600;
}
);
unicode = 0428;
},
{
color = 4;
glyphname = "Softsign-cy";
lastChange = "2019-03-25 19:36:12 +0000";
layers = (
{
anchors = (
{
name = bottom;
position = "{300, 0}";
},
{
name = top;
position = "{300, 692.882}";
}
);
layerId = "4B7A3BAF-EAD8-4024-9BEA-BB1DE86CFCFA";
paths = (
{
closed = 1;
nodes = (
"55.059 692.882 LINE",
"55.059 0 LINE",
"297.676 0 LINE SMOOTH",
"465.324 0 OFFCURVE",
"576.324 75.618 OFFCURVE",
"576.324 235.618 CURVE SMOOTH",
"576.324 388.5 OFFCURVE",
"467.529 459.294 OFFCURVE",
"286.941 459.294 CURVE SMOOTH",
"218.971 459.294 LINE",
"218.971 692.882 LINE"
);
},
{
closed = 1;
nodes = (
"366.618 342.588 OFFCURVE",
"407.382 309.471 OFFCURVE",
"407.382 234.618 CURVE SMOOTH",
"407.382 153.529 OFFCURVE",
"364.647 119.676 OFFCURVE",
"287.235 119.676 CURVE SMOOTH",
"218.971 119.676 LINE",
"218.971 342.588 LINE",
"281.412 342.588 LINE SMOOTH"
);
}
);
width = 600;
},
{
anchors = (
{
name = bottom;
position = "{300, 0}";
},
{
name = top;
position = "{300, 687.235}";
}
);
layerId = "B67F0F2D-EC95-4CB8-966E-23AE86958A69";
paths = (
{
closed = 1;
nodes = (
"105.882 687.235 LINE",
"105.882 0 LINE",
"282.147 0 LINE SMOOTH",
"432.853 0 OFFCURVE",
"543.853 57.265 OFFCURVE",
"543.853 217.265 CURVE SMOOTH",
"543.853 364.5 OFFCURVE",
"444.941 425.412 OFFCURVE",
"284.118 425.412 CURVE SMOOTH",
"169.559 425.412 LINE",
"169.559 687.235 LINE"
);
},
{
closed = 1;
nodes = (
"396.265 370.824 OFFCURVE",
"473.735 332.059 OFFCURVE",
"473.735 216.265 CURVE SMOOTH",
"473.735 82.941 OFFCURVE",
"395.706 56.147 OFFCURVE",
"298.529 56.147 CURVE SMOOTH",
"169.559 56.147 LINE",
"169.559 370.824 LINE",
"301.176 370.824 LINE SMOOTH"
);
}
);
width = 600;
}
);
unicode = 042C;
},
{
color = 4;
glyphname = "Hardsign-cy";
lastChange = "2019-03-25 19:36:12 +0000";
layers = (
{
layerId = "4B7A3BAF-EAD8-4024-9BEA-BB1DE86CFCFA";
paths = (
{
closed = 1;
nodes = (
"-2.912 692.882 LINE",
"-2.912 573.059 LINE",
"90.824 573.059 LINE",
"90.824 0 LINE",
"309.176 0 LINE SMOOTH",
"471.971 0 OFFCURVE",
"586.853 72.676 OFFCURVE",
"586.853 235.618 CURVE SMOOTH",
"586.853 388.5 OFFCURVE",
"478.059 459.294 OFFCURVE",
"297.471 459.294 CURVE SMOOTH",
"245.029 459.294 LINE",
"245.029 692.882 LINE"
);
},
{
closed = 1;
nodes = (
"380.118 345.5 OFFCURVE",
"419.912 309.471 OFFCURVE",
"419.912 234.618 CURVE SMOOTH",
"419.912 143.794 OFFCURVE",
"367.471 116.765 OFFCURVE",
"279.382 116.765 CURVE SMOOTH",
"245.029 116.765 LINE",
"245.029 345.5 LINE",
"292 345.5 LINE SMOOTH"
);
}
);
width = 600;
},
{
layerId = "B67F0F2D-EC95-4CB8-966E-23AE86958A69";
paths = (
{
closed = 1;
nodes = (
"1.324 687.235 LINE",
"1.324 623.882 LINE",
"130.353 623.882 LINE",
"130.353 0 LINE",
"317.647 0 LINE SMOOTH",
"470.559 0 OFFCURVE",
"579.794 57.147 OFFCURVE",
"579.794 217.265 CURVE SMOOTH",
"579.794 364.5 OFFCURVE",
"480.882 425.412 OFFCURVE",
"320.059 425.412 CURVE SMOOTH",
"198.441 425.412 LINE",
"198.441 687.235 LINE"
);
},
{
closed = 1;
nodes = (
"433.765 369.5 OFFCURVE",
"511.676 332.059 OFFCURVE",
"511.676 216.265 CURVE SMOOTH",
"511.676 85.912 OFFCURVE",
"438.059 57.471 OFFCURVE",
"345.735 57.471 CURVE SMOOTH",
"198.441 57.471 LINE",
"198.441 369.5 LINE",
"340 369.5 LINE SMOOTH"
);
}
);
width = 600;
}
);
unicode = 042A;
},
{
color = 4;
glyphname = "Yeru-cy";
lastChange = "2019-03-25 19:36:12 +0000";
layers = (
{
anchors = (
{
name = bottom;
position = "{300, 0}";
},
{
name = top;
position = "{300, 692.882}";
}
);
layerId = "4B7A3BAF-EAD8-4024-9BEA-BB1DE86CFCFA";
paths = (
{
closed = 1;
nodes = (
"21.265 692.882 LINE",
"21.265 0 LINE",
"166.471 0 LINE SMOOTH",
"318.588 0 OFFCURVE",
"418.324 72 OFFCURVE",
"418.324 236.588 CURVE SMOOTH",
"418.324 388.176 OFFCURVE",
"324.676 462.206 OFFCURVE",
"164.471 462.206 CURVE SMOOTH",
"155.029 462.206 LINE",
"155.029 692.882 LINE"
);
},
{
closed = 1;
nodes = (
"245.176 351.412 OFFCURVE",
"278.618 314.088 OFFCURVE",
"278.618 235.588 CURVE SMOOTH",
"278.618 141.176 OFFCURVE",
"238.294 112.824 OFFCURVE",
"168.647 112.824 CURVE SMOOTH",
"155.029 112.824 LINE",
"155.029 351.412 LINE",
"178.353 351.412 LINE SMOOTH"
);
},
{
closed = 1;
nodes = (
"444.971 692.882 LINE",
"444.971 0 LINE",
"578.735 0 LINE",
"578.735 692.882 LINE"
);
}
);
width = 600;
},
{
anchors = (
{
name = bottom;
position = "{300, 0}";
},
{
name = top;
position = "{300, 687.235}";
}
);
layerId = "B67F0F2D-EC95-4CB8-966E-23AE86958A69";
paths = (
{
closed = 1;
nodes = (
"33.971 687.235 LINE",
"33.971 0 LINE",
"189.059 0 LINE SMOOTH",
"346.824 0 OFFCURVE",
"433.853 72 OFFCURVE",
"433.853 216.824 CURVE SMOOTH",
"433.853 348.647 OFFCURVE",
"357.147 424.088 OFFCURVE",
"187.059 424.088 CURVE SMOOTH",
"108.441 424.088 LINE",
"108.441 687.235 LINE"
);
},
{
closed = 1;
nodes = (
"301.647 371.176 OFFCURVE",
"356.265 318.324 OFFCURVE",
"356.265 215.824 CURVE SMOOTH",
"356.265 101.647 OFFCURVE",
"300.412 56.353 OFFCURVE",
"199.706 56.353 CURVE SMOOTH",
"108.441 56.353 LINE",
"108.441 371.176 LINE",
"195.294 371.176 LINE SMOOTH"
);
},
{
closed = 1;
nodes = (
"491.559 687.235 LINE",
"491.559 0 LINE",
"566.029 0 LINE",
"566.029 687.235 LINE"
);
}
);
width = 600;
}
);
unicode = 042B;
},
{
color = 4;
glyphname = "Lje-cy";
lastChange = "2019-03-25 19:36:12 +0000";
layers = (
{
anchors = (
{
name = bottom;
position = "{300, 0}";
},
{
name = top;
position = "{300, 692.882}";
}
);
layerId = "4B7A3BAF-EAD8-4024-9BEA-BB1DE86CFCFA";
paths = (
{
closed = 1;
nodes = (
"61.029 692.882 LINE",
"40.765 321.765 LINE SMOOTH",
"30.618 134.529 OFFCURVE",
"13.5 98.5 OFFCURVE",
"-14.559 74.235 CURVE",
"44.059 -19.765 LINE",
"121.559 32.059 OFFCURVE",
"157.353 69.882 OFFCURVE",
"168.559 304.176 CURVE SMOOTH",
"181.824 588.765 LINE",
"238.824 588.765 LINE",
"238.824 0 LINE",
"364.941 0 LINE SMOOTH",
"508.029 0 OFFCURVE",
"600 73.706 OFFCURVE",
"600 235.618 CURVE SMOOTH",
"600 387.471 OFFCURVE",
"514.118 459.294 OFFCURVE",
"363.765 459.294 CURVE",
"363.765 692.882 LINE"
);
},
{
closed = 1;
nodes = (
"439.588 356.265 OFFCURVE",
"465.206 312.412 OFFCURVE",
"465.206 234.618 CURVE SMOOTH",
"465.206 153.529 OFFCURVE",
"440.5 106.029 OFFCURVE",
"378.765 106.029 CURVE SMOOTH",
"363.765 106.029 LINE",
"363.765 356.265 LINE",
"373.912 356.265 LINE SMOOTH"
);
}
);
width = 600;
},
{
anchors = (
{
name = bottom;
position = "{300, 0}";
},
{
name = top;
position = "{300, 687.235}";
}
);
layerId = "B67F0F2D-EC95-4CB8-966E-23AE86958A69";
paths = (
{
closed = 1;
nodes = (
"110.441 687.235 LINE",
"77.471 310.471 LINE SMOOTH",
"60.265 111.941 OFFCURVE",
"37.5 74.5 OFFCURVE",
"6.618 37.529 CURVE",
"46.882 -8.471 LINE",
"100.382 34.882 OFFCURVE",
"126.294 64.235 OFFCURVE",
"147.382 312.647 CURVE SMOOTH",
"173.353 625.471 LINE",
"278.353 625.471 LINE",
"278.353 0 LINE",
"362.118 0 LINE SMOOTH",
"509.441 0 OFFCURVE",
"600 59.588 OFFCURVE",
"600 217.265 CURVE SMOOTH",
"600 362.059 OFFCURVE",
"519.765 425.412 OFFCURVE",
"352.471 425.412 CURVE",
"352.471 687.235 LINE"
);
},
{
closed = 1;
nodes = (
"467.824 368.971 OFFCURVE",
"523.088 332.176 OFFCURVE",
"523.088 216.265 CURVE SMOOTH",
"523.088 82.941 OFFCURVE",
"464.5 59.441 OFFCURVE",
"367.471 59.441 CURVE SMOOTH",
"352.471 59.441 LINE",
"352.471 368.971 LINE",
"369.676 368.971 LINE SMOOTH"
);
}
);
width = 600;
}
);
unicode = 0409;
},
{
color = 4;
glyphname = "Nje-cy";
lastChange = "2019-03-25 19:36:12 +0000";
layers = (
{
anchors = (
{
name = bottom;
position = "{300, 0}";
},
{
name = top;
position = "{300, 692.882}";
}
);
layerId = "4B7A3BAF-EAD8-4024-9BEA-BB1DE86CFCFA";
paths = (
{
closed = 1;
nodes = (
"240.765 692.882 LINE",
"240.765 434.441 LINE",
"157.176 434.441 LINE",
"157.176 692.882 LINE",
"28.353 692.882 LINE",
"28.353 0 LINE",
"157.176 0 LINE",
"157.176 321.735 LINE",
"240.765 321.735 LINE",
"240.765 0 LINE",
"360.088 0 LINE SMOOTH",
"519.676 0 OFFCURVE",
"600 75.471 OFFCURVE",
"600 226.618 CURVE SMOOTH",
"600 368.559 OFFCURVE",
"511.206 432.5 OFFCURVE",
"369.588 434.441 CURVE",
"369.588 692.882 LINE"
);
},
{
closed = 1;
nodes = (
"439.588 323.676 OFFCURVE",
"468.118 298.441 OFFCURVE",
"468.118 225.618 CURVE SMOOTH",
"468.118 147.5 OFFCURVE",
"443.412 114.735 OFFCURVE",
"374.882 112.794 CURVE SMOOTH",
"369.588 112.794 LINE",
"369.588 324.647 LINE",
"374.882 324.647 LINE SMOOTH"
);
}
);
width = 600;
},
{
anchors = (
{
name = bottom;
position = "{300, 0}";
},
{
name = top;
position = "{300, 687.235}";
}
);
layerId = "B67F0F2D-EC95-4CB8-966E-23AE86958A69";
paths = (
{
closed = 1;
nodes = (
"277.471 687.235 LINE",
"277.471 407.618 LINE",
"117.647 407.618 LINE",
"117.647 687.235 LINE",
"45.294 687.235 LINE",
"45.294 0 LINE",
"117.647 0 LINE",
"117.647 357.029 LINE",
"277.471 357.029 LINE",
"277.471 0 LINE",
"364.324 0 LINE SMOOTH",
"504.147 0 OFFCURVE",
"600 50.059 OFFCURVE",
"600 208.265 CURVE SMOOTH",
"600 347.382 OFFCURVE",
"521.088 408.5 OFFCURVE",
"349.824 407.618 CURVE",
"349.824 687.235 LINE"
);
},
{
closed = 1;
nodes = (
"467.824 356.147 OFFCURVE",
"521.765 319.618 OFFCURVE",
"521.765 207.265 CURVE SMOOTH",
"521.765 75.5 OFFCURVE",
"463.176 54.029 OFFCURVE",
"369.235 54.912 CURVE SMOOTH",
"349.824 54.912 LINE",
"349.824 355.706 LINE",
"369.235 355.706 LINE SMOOTH"
);
}
);
width = 600;
}
);
unicode = 040A;
},
{
color = 4;
glyphname = "E-cy";
lastChange = "2019-03-25 19:36:12 +0000";
layers = (
{
anchors = (
{
name = bottom;
position = "{300, 0}";
},
{
name = top;
position = "{300, 692.882}";
}
);
layerId = "4B7A3BAF-EAD8-4024-9BEA-BB1DE86CFCFA";
paths = (
{
closed = 1;
nodes = (
"172.559 710.706 OFFCURVE",
"33.647 579.912 OFFCURVE",
"33.647 347.912 CURVE SMOOTH",
"33.647 110.088 OFFCURVE",
"163.5 -16.853 OFFCURVE",
"354 -16.853 CURVE SMOOTH",
"463.706 -16.853 OFFCURVE",
"538.5 24.029 OFFCURVE",
"589.265 72.765 CURVE",
"516.971 160.912 LINE",
"476.176 131.882 OFFCURVE",
"433.029 106.765 OFFCURVE",
"364.794 106.765 CURVE SMOOTH",
"275.176 106.765 OFFCURVE",
"208.559 165.206 OFFCURVE",
"200.559 291.706 CURVE",
"456.912 291.706 LINE",
"456.912 417.265 LINE",
"200.618 417.265 LINE",
"210.706 537.765 OFFCURVE",
"281.235 592 OFFCURVE",
"368.706 592 CURVE SMOOTH",
"421.706 592 OFFCURVE",
"461.971 573.088 OFFCURVE",
"503.118 544.941 CURVE",
"580.235 633.971 LINE",
"520.412 680.853 OFFCURVE",
"457.559 710.706 OFFCURVE",
"357.853 710.706 CURVE SMOOTH"
);
}
);
width = 600;
},
{
anchors = (
{
name = bottom;
position = "{300, 0}";
},
{
name = top;
position = "{300, 687.235}";
}
);
layerId = "B67F0F2D-EC95-4CB8-966E-23AE86958A69";
paths = (
{
closed = 1;
nodes = (
"199.382 696.588 OFFCURVE",
"64.706 575.676 OFFCURVE",
"64.706 343.676 CURVE SMOOTH",
"64.706 114.324 OFFCURVE",
"187.5 -9.794 OFFCURVE",
"354 -9.794 CURVE SMOOTH",
"449.588 -9.794 OFFCURVE",
"514.5 25.441 OFFCURVE",
"553.971 61.471 CURVE",
"515.559 108.676 LINE",
"484.647 78.235 OFFCURVE",
"434.441 47.471 OFFCURVE",
"354.912 47.471 CURVE SMOOTH",
"235.647 47.471 OFFCURVE",
"139.382 127.088 OFFCURVE",
"131.382 325.588 CURVE",
"452.676 325.588 LINE",
"452.676 381.971 LINE",
"134.265 381.971 LINE",
"148.588 574.471 OFFCURVE",
"244.529 640 OFFCURVE",
"354.588 640 CURVE SMOOTH",
"407.588 640 OFFCURVE",
"460.559 625.324 OFFCURVE",
"508.765 590.118 CURVE",
"543.529 632.559 LINE",
"492.176 673.794 OFFCURVE",
"436.382 696.588 OFFCURVE",
"350.794 696.588 CURVE SMOOTH"
);
}
);
width = 600;
}
);
unicode = 0404;
},
{
color = 4;
glyphname = "Ereversed-cy";
lastChange = "2019-03-25 19:36:12 +0000";
layers = (
{
anchors = (
{
name = bottom;
position = "{300, 0}";
},
{
name = top;
position = "{278.294, 689}";
}
);
layerId = "4B7A3BAF-EAD8-4024-9BEA-BB1DE86CFCFA";
paths = (
{
closed = 1;
nodes = (
"158.353 710.706 OFFCURVE",
"85.441 676.559 OFFCURVE",
"21.765 623.765 CURVE",
"98 537.706 LINE",
"135.118 564.882 OFFCURVE",
"181.176 592 OFFCURVE",
"246.5 592 CURVE SMOOTH",
"335.059 592 OFFCURVE",
"387.412 543.559 OFFCURVE",
"393.5 412.412 CURVE",
"137.235 412.412 LINE",
"137.235 296.559 LINE",
"393.5 296.559 LINE",
"388.412 159.5 OFFCURVE",
"330.235 106.765 OFFCURVE",
"241.382 106.765 CURVE SMOOTH",
"178.353 106.765 OFFCURVE",
"135.176 126.824 OFFCURVE",
"90.118 160.088 CURVE",
"13.765 71.147 LINE",
"70.618 15.235 OFFCURVE",
"149.559 -16.853 OFFCURVE",
"242.5 -16.853 CURVE SMOOTH",
"431.971 -16.853 OFFCURVE",
"560.412 104.235 OFFCURVE",
"560.412 351.059 CURVE SMOOTH",
"560.412 586.971 OFFCURVE",
"448.618 710.706 OFFCURVE",
"260.235 710.706 CURVE SMOOTH"
);
}
);
width = 600;
},
{
anchors = (
{
name = bottom;
position = "{300, 0}";
},
{
name = top;
position = "{292.412, 689}";
}
);
layerId = "B67F0F2D-EC95-4CB8-966E-23AE86958A69";
paths = (
{
closed = 1;
nodes = (
"175.294 696.588 OFFCURVE",
"106.618 655.382 OFFCURVE",
"58.471 612.471 CURVE",
"98 571.588 LINE",
"140.765 607.235 OFFCURVE",
"189.647 640 OFFCURVE",
"270.5 640 CURVE SMOOTH",
"385.882 640 OFFCURVE",
"455.176 570.382 OFFCURVE",
"465.5 384.176 CURVE",
"148.529 384.176 LINE",
"148.529 323.382 LINE",
"465.5 323.382 LINE",
"456.176 135.5 OFFCURVE",
"389.529 47.471 OFFCURVE",
"259.735 47.471 CURVE SMOOTH",
"195.294 47.471 OFFCURVE",
"143.647 70.353 OFFCURVE",
"95.765 116.324 CURVE",
"50.471 78.206 LINE",
"100.265 26.529 OFFCURVE",
"176.382 -9.794 OFFCURVE",
"266.5 -9.794 CURVE SMOOTH",
"430.559 -9.794 OFFCURVE",
"532.176 115.529 OFFCURVE",
"532.176 353.882 CURVE SMOOTH",
"532.176 585.559 OFFCURVE",
"430.265 696.588 OFFCURVE",
"271.529 696.588 CURVE SMOOTH"
);
}
);
width = 600;
}
);
unicode = 042D;
},
{
color = 4;
glyphname = "Tshe-cy";
lastChange = "2019-03-25 19:36:12 +0000";
layers = (
{
layerId = "4B7A3BAF-EAD8-4024-9BEA-BB1DE86CFCFA";
paths = (
{
closed = 1;
nodes = (
"-7.912 692.882 LINE",
"-7.912 576.088 LINE",
"130.706 576.088 LINE",
"130.706 0 LINE",
"283.912 0 LINE",
"283.912 320.029 LINE",
"303.088 338.176 OFFCURVE",
"326.471 352.588 OFFCURVE",
"360.235 352.588 CURVE SMOOTH",
"409.088 352.588 OFFCURVE",
"428.382 329.176 OFFCURVE",
"428.382 266.294 CURVE SMOOTH",
"428.382 0 LINE",
"581.588 0 LINE",
"581.588 251.853 LINE SMOOTH",
"581.588 397.5 OFFCURVE",
"519.706 470.441 OFFCURVE",
"402.618 470.441 CURVE SMOOTH",
"354.235 470.441 OFFCURVE",
"316.029 453.235 OFFCURVE",
"283.912 426.029 CURVE",
"283.912 576.088 LINE",
"423.471 576.088 LINE",
"440.265 692.882 LINE"
);
}
);
width = 600;
},
{
layerId = "B67F0F2D-EC95-4CB8-966E-23AE86958A69";
paths = (
{
closed = 1;
nodes = (
"-3.676 687.235 LINE",
"-3.676 628.324 LINE",
"164.588 628.324 LINE",
"164.588 0 LINE",
"231.676 0 LINE",
"231.676 321.441 LINE",
"259.324 346.647 OFFCURVE",
"301.059 380.824 OFFCURVE",
"371.529 380.824 CURVE SMOOTH",
"461.324 380.824 OFFCURVE",
"494.735 337.647 OFFCURVE",
"494.735 232.412 CURVE SMOOTH",
"494.735 0 LINE",
"561.824 0 LINE",
"561.824 244.794 LINE SMOOTH",
"561.824 373.5 OFFCURVE",
"505.588 443.618 OFFCURVE",
"384.265 443.618 CURVE SMOOTH",
"317.529 443.618 OFFCURVE",
"269.441 416.529 OFFCURVE",
"231.676 379.441 CURVE",
"231.676 628.324 LINE",
"398.059 628.324 LINE",
"404.971 687.235 LINE"
);
}
);
width = 600;
}
);
unicode = 040B;
},
{
color = 4;
glyphname = "Iu-cy";
lastChange = "2019-03-25 19:36:12 +0000";
layers = (
{
anchors = (
{
name = bottom;
position = "{300, 0}";
},
{
name = top;
position = "{300, 692.882}";
}
);
layerId = "4B7A3BAF-EAD8-4024-9BEA-BB1DE86CFCFA";
paths = (
{
closed = 1;
nodes = (
"262.853 710.706 OFFCURVE",
"210.882 602.676 OFFCURVE",
"202.882 413.441 CURVE",
"156.294 413.441 LINE",
"156.294 692.882 LINE",
"31.412 692.882 LINE",
"31.412 0 LINE",
"156.294 0 LINE",
"156.294 302.5 LINE",
"201.882 302.5 LINE",
"206.824 94.735 OFFCURVE",
"254.735 -16.853 OFFCURVE",
"393.853 -16.853 CURVE SMOOTH",
"538.618 -16.853 OFFCURVE",
"587.765 107.206 OFFCURVE",
"587.765 346.912 CURVE SMOOTH",
"587.765 589.676 OFFCURVE",
"540.765 710.706 OFFCURVE",
"393.853 710.706 CURVE SMOOTH"
);
},
{
closed = 1;
nodes = (
"440.471 602.706 OFFCURVE",
"452.029 552.118 OFFCURVE",
"452.029 346.912 CURVE SMOOTH",
"452.029 143.647 OFFCURVE",
"439.5 91.147 OFFCURVE",
"393.853 91.147 CURVE SMOOTH",
"347.118 91.147 OFFCURVE",
"335.676 144.647 OFFCURVE",
"335.676 347.912 CURVE SMOOTH",
"335.676 552.147 OFFCURVE",
"349.059 602.706 OFFCURVE",
"393.853 602.706 CURVE SMOOTH"
);
}
);
width = 600;
},
{
anchors = (
{
name = bottom;
position = "{300, 0}";
},
{
name = top;
position = "{300, 687.235}";
}
);
layerId = "B67F0F2D-EC95-4CB8-966E-23AE86958A69";
paths = (
{
closed = 1;
nodes = (
"255.794 696.588 OFFCURVE",
"205.235 587.147 OFFCURVE",
"197.235 386.618 CURVE",
"122.412 386.618 LINE",
"122.412 687.235 LINE",
"51.176 687.235 LINE",
"51.176 0 LINE",
"122.412 0 LINE",
"122.412 326.5 LINE",
"196.235 326.5 LINE",
"198.353 130.029 OFFCURVE",
"242.029 -9.794 OFFCURVE",
"386.794 -9.794 CURVE SMOOTH",
"520.265 -9.794 OFFCURVE",
"576.471 117.088 OFFCURVE",
"576.471 342.676 CURVE SMOOTH",
"576.471 574.147 OFFCURVE",
"529.471 696.588 OFFCURVE",
"386.794 696.588 CURVE SMOOTH"
);
},
{
closed = 1;
nodes = (
"463.059 636.588 OFFCURVE",
"501.441 557.765 OFFCURVE",
"501.441 342.676 CURVE SMOOTH",
"501.441 126.706 OFFCURVE",
"463.5 50.206 OFFCURVE",
"386.794 50.206 CURVE SMOOTH",
"304.765 50.206 OFFCURVE",
"272.147 127.706 OFFCURVE",
"272.147 343.676 CURVE SMOOTH",
"272.147 559.206 OFFCURVE",
"303.882 636.588 OFFCURVE",
"386.794 636.588 CURVE SMOOTH"
);
}
);
width = 600;
}
);
unicode = 042E;
},
{
color = 4;
glyphname = "Ia-cy";
lastChange = "2019-03-25 19:36:12 +0000";
layers = (
{
anchors = (
{
name = bottom;
position = "{300, 0}";
},
{
name = top;
position = "{300, 692.882}";
}
);
layerId = "4B7A3BAF-EAD8-4024-9BEA-BB1DE86CFCFA";
paths = (
{
closed = 1;
nodes = (
"321.382 692.882 LINE SMOOTH",
"133.853 692.882 OFFCURVE",
"37.029 619.824 OFFCURVE",
"37.029 473.294 CURVE SMOOTH",
"37.029 375.676 OFFCURVE",
"78 316.441 OFFCURVE",
"155.088 281.412 CURVE",
"1.853 0 LINE",
"178.706 0 LINE",
"299.382 250.706 LINE",
"384.235 250.706 LINE",
"384.235 0 LINE",
"548.147 0 LINE",
"548.147 692.882 LINE"
);
},
{
closed = 1;
nodes = (
"384.235 362.588 LINE",
"327.441 362.588 LINE SMOOTH",
"251.059 362.588 OFFCURVE",
"205.971 390.029 OFFCURVE",
"205.971 469.412 CURVE SMOOTH",
"205.971 541 OFFCURVE",
"246.265 578.118 OFFCURVE",
"324.029 578.118 CURVE SMOOTH",
"384.235 578.118 LINE"
);
}
);
width = 600;
},
{
anchors = (
{
name = bottom;
position = "{300, 0}";
},
{
name = top;
position = "{300, 687.235}";
}
);
layerId = "B67F0F2D-EC95-4CB8-966E-23AE86958A69";
paths = (
{
closed = 1;
nodes = (
"339.735 687.235 LINE SMOOTH",
"174.794 687.235 OFFCURVE",
"86.441 611.353 OFFCURVE",
"86.441 487.412 CURVE SMOOTH",
"86.441 408.147 OFFCURVE",
"126 337.618 OFFCURVE",
"207.324 301.176 CURVE",
"42.794 0 LINE",
"116.588 0 LINE",
"269.735 284.588 LINE",
"443.529 284.588 LINE",
"443.529 0 LINE",
"507.206 0 LINE",
"507.206 687.235 LINE"
);
},
{
closed = 1;
nodes = (
"443.529 342.824 LINE",
"300.618 342.824 LINE SMOOTH",
"205.882 342.824 OFFCURVE",
"156.559 391.441 OFFCURVE",
"156.559 489.176 CURVE SMOOTH",
"156.559 589 OFFCURVE",
"210.971 631.765 OFFCURVE",
"325.441 631.765 CURVE SMOOTH",
"443.529 631.765 LINE"
);
}
);
width = 600;
}
);
unicode = 042F;
},
{
color = 4;
glyphname = "Dje-cy";
lastChange = "2019-03-25 19:36:12 +0000";
layers = (
{
anchors = (
{
name = bottom;
position = "{300, -221.412}";
},
{
name = top;
position = "{300, 692.882}";
}
);
layerId = "4B7A3BAF-EAD8-4024-9BEA-BB1DE86CFCFA";
paths = (
{
closed = 1;
nodes = (
"423.471 576.088 LINE",
"440.265 692.882 LINE",
"-7.912 692.882 LINE",
"-7.912 576.088 LINE",
"130.706 576.088 LINE",
"130.706 0 LINE",
"283.912 0 LINE",
"283.912 320.029 LINE",
"303.088 338.176 OFFCURVE",
"326.471 352.588 OFFCURVE",
"360.235 352.588 CURVE SMOOTH",
"409.088 352.588 OFFCURVE",
"428.382 329.176 OFFCURVE",
"428.382 266.294 CURVE SMOOTH",
"428.382 101.824 LINE SMOOTH",
"428.382 17.676 OFFCURVE",
"412.265 -24.176 OFFCURVE",
"330.118 -58.206 CURVE",
"372.559 -170.059 LINE",
"489.353 -131.118 OFFCURVE",
"581.588 -65.412 OFFCURVE",
"581.588 98.912 CURVE SMOOTH",
"581.588 251.853 LINE SMOOTH",
"581.588 397.5 OFFCURVE",
"519.706 470.441 OFFCURVE",
"402.618 470.441 CURVE SMOOTH",
"354.294 470.441 OFFCURVE",
"316.029 453.176 OFFCURVE",
"283.912 426.029 CURVE",
"283.912 576.088 LINE"
);
}
);
width = 600;
},
{
anchors = (
{
name = bottom;
position = "{300, -193.176}";
},
{
name = top;
position = "{300, 687.235}";
}
);
layerId = "B67F0F2D-EC95-4CB8-966E-23AE86958A69";
paths = (
{
closed = 1;
nodes = (
"398.059 628.324 LINE",
"404.971 687.235 LINE",
"-3.676 687.235 LINE",
"-3.676 628.324 LINE",
"164.588 628.324 LINE",
"164.588 0 LINE",
"231.676 0 LINE",
"231.676 321.441 LINE",
"259.324 346.647 OFFCURVE",
"301.059 380.824 OFFCURVE",
"371.529 380.824 CURVE SMOOTH",
"461.324 380.824 OFFCURVE",
"494.735 337.647 OFFCURVE",
"494.735 232.412 CURVE SMOOTH",
"494.735 93.353 LINE SMOOTH",
"494.735 2.147 OFFCURVE",
"472.971 -32.647 OFFCURVE",
"383.765 -68.088 CURVE",
"399.382 -124.882 LINE",
"506.294 -88.765 OFFCURVE",
"561.824 -37.176 OFFCURVE",
"561.824 94.676 CURVE SMOOTH",
"561.824 244.794 LINE SMOOTH",
"561.824 373.5 OFFCURVE",
"505.588 443.618 OFFCURVE",
"384.265 443.618 CURVE SMOOTH",
"320.412 443.618 OFFCURVE",
"269.441 413.647 OFFCURVE",
"231.676 379.441 CURVE",
"231.676 628.324 LINE"
);
}
);
width = 600;
}
);
unicode = 0402;
},
{
color = 4;
glyphname = "Omega-cy";
lastChange = "2019-03-25 19:36:12 +0000";
layers = (
{
layerId = "4B7A3BAF-EAD8-4024-9BEA-BB1DE86CFCFA";
paths = (
{
closed = 1;
nodes = (
"383.235 692.882 LINE",
"409.588 583.824 OFFCURVE",
"440.588 485.441 OFFCURVE",
"440.588 305.824 CURVE SMOOTH",
"440.588 156.412 OFFCURVE",
"421.059 104.794 OFFCURVE",
"391.588 104.794 CURVE SMOOTH",
"370.147 104.794 OFFCURVE",
"360.529 123.118 OFFCURVE",
"360.529 160.265 CURVE SMOOTH",
"360.529 398.971 LINE",
"238.529 398.971 LINE",
"238.529 160.235 LINE SMOOTH",
"238.529 122.059 OFFCURVE",
"226.059 104.794 OFFCURVE",
"208.618 104.794 CURVE SMOOTH",
"177.971 104.794 OFFCURVE",
"159.441 157 OFFCURVE",
"159.441 305.882 CURVE SMOOTH",
"159.441 486.412 OFFCURVE",
"192.294 583.794 OFFCURVE",
"216.794 692.882 CURVE",
"85.088 692.882 LINE",
"48.412 592.706 OFFCURVE",
"11.147 491.059 OFFCURVE",
"11.147 303.853 CURVE SMOOTH",
"11.147 82.529 OFFCURVE",
"87.353 -19.765 OFFCURVE",
"190.706 -19.765 CURVE SMOOTH",
"246.971 -19.765 OFFCURVE",
"280 16.265 OFFCURVE",
"299.059 75.471 CURVE",
"315.176 17.235 OFFCURVE",
"339.529 -19.765 OFFCURVE",
"412.294 -19.765 CURVE SMOOTH",
"509.265 -19.765 OFFCURVE",
"588.882 82.676 OFFCURVE",
"588.882 303.853 CURVE SMOOTH",
"588.882 491.059 OFFCURVE",
"551.647 592.706 OFFCURVE",
"513.971 692.882 CURVE"
);
}
);
width = 600;
},
{
layerId = "B67F0F2D-EC95-4CB8-966E-23AE86958A69";
paths = (
{
closed = 1;
nodes = (
"442.529 687.235 LINE",
"485.824 575.353 OFFCURVE",
"516.824 458.618 OFFCURVE",
"516.824 297.353 CURVE SMOOTH",
"516.824 80.176 OFFCURVE",
"471.882 46.912 OFFCURVE",
"419.824 46.912 CURVE SMOOTH",
"377.206 46.912 OFFCURVE",
"337.941 80.765 OFFCURVE",
"337.941 172.971 CURVE SMOOTH",
"337.941 397.559 LINE",
"263.941 397.559 LINE",
"263.941 171.529 LINE SMOOTH",
"263.941 76.882 OFFCURVE",
"228.882 46.912 OFFCURVE",
"190.265 46.912 CURVE SMOOTH",
"128.559 46.912 OFFCURVE",
"84.618 109 OFFCURVE",
"84.618 300.235 CURVE SMOOTH",
"84.618 458.176 OFFCURVE",
"110.412 573.912 OFFCURVE",
"158.912 687.235 CURVE",
"89.324 687.235 LINE",
"68.176 626.588 OFFCURVE",
"18.206 493.882 OFFCURVE",
"18.206 296.794 CURVE SMOOTH",
"18.206 59.941 OFFCURVE",
"104.294 -8.471 OFFCURVE",
"176.588 -8.471 CURVE SMOOTH",
"245.559 -8.471 OFFCURVE",
"280 28.971 OFFCURVE",
"301.882 98.059 CURVE",
"323.647 28.529 OFFCURVE",
"364.941 -8.471 OFFCURVE",
"426.412 -8.471 CURVE SMOOTH",
"521.971 -8.471 OFFCURVE",
"583.235 67.147 OFFCURVE",
"583.235 296.794 CURVE SMOOTH",
"583.235 493.882 OFFCURVE",
"534.706 626.588 OFFCURVE",
"512.559 687.235 CURVE"
);
}
);
width = 600;
}
);
unicode = 0460;
},
